<?xml version="1.0" encoding="utf-8" standalone="no"?>
<!DOCTYPE svg PUBLIC "-//W3C//DTD SVG 1.1//EN"
  "http://www.w3.org/Graphics/SVG/1.1/DTD/svg11.dtd">
<!-- Created with matplotlib (http://matplotlib.org/) -->
<svg height="345pt" version="1.1" viewBox="0 0 460 345" width="460pt" xmlns="http://www.w3.org/2000/svg" xmlns:xlink="http://www.w3.org/1999/xlink">
 <defs>
  <style type="text/css">
*{stroke-linecap:butt;stroke-linejoin:round;}
  </style>
 </defs>
 <g id="figure_1">
  <g id="patch_1">
   <path d="M 0 345.6 
L 460.8 345.6 
L 460.8 0 
L 0 0 
z
" style="fill:#ffffff;"/>
  </g>
  <g id="axes_1">
   <g id="patch_2">
    <path d="M 57.6 307.584 
L 414.72 307.584 
L 414.72 41.472 
L 57.6 41.472 
z
" style="fill:#ffffff;"/>
   </g>
   <g id="matplotlib.axis_1">
    <g id="xtick_1">
     <g id="line2d_1">
      <path clip-path="url(#p7d71325df8)" d="M 73.832727 307.584 
L 73.832727 41.472 
" style="fill:none;stroke:#b0b0b0;stroke-linecap:square;stroke-width:0.8;"/>
     </g>
     <g id="line2d_2">
      <defs>
       <path d="M 0 0 
L 0 3.5 
" id="m355639f7a9" style="stroke:#000000;stroke-width:0.8;"/>
      </defs>
      <g>
       <use style="stroke:#000000;stroke-width:0.8;" x="73.832727" xlink:href="#m355639f7a9" y="307.584"/>
      </g>
     </g>
     <g id="text_1">
      <!-- 0.0 -->
      <defs>
       <path d="M 31.78125 66.40625 
Q 24.171875 66.40625 20.328125 58.90625 
Q 16.5 51.421875 16.5 36.375 
Q 16.5 21.390625 20.328125 13.890625 
Q 24.171875 6.390625 31.78125 6.390625 
Q 39.453125 6.390625 43.28125 13.890625 
Q 47.125 21.390625 47.125 36.375 
Q 47.125 51.421875 43.28125 58.90625 
Q 39.453125 66.40625 31.78125 66.40625 
M 31.78125 74.21875 
Q 44.046875 74.21875 50.515625 64.515625 
Q 56.984375 54.828125 56.984375 36.375 
Q 56.984375 17.96875 50.515625 8.265625 
Q 44.046875 -1.421875 31.78125 -1.421875 
Q 19.53125 -1.421875 13.0625 8.265625 
Q 6.59375 17.96875 6.59375 36.375 
Q 6.59375 54.828125 13.0625 64.515625 
Q 19.53125 74.21875 31.78125 74.21875 
" id="DejaVuSans-30"/>
       <path d="M 10.6875 12.40625 
L 21 12.40625 
L 21 0 
L 10.6875 0 
z
" id="DejaVuSans-2e"/>
      </defs>
      <g transform="translate(65.881165 322.182437)scale(0.1 -0.1)">
       <use xlink:href="#DejaVuSans-30"/>
       <use x="63.623047" xlink:href="#DejaVuSans-2e"/>
       <use x="95.410156" xlink:href="#DejaVuSans-30"/>
      </g>
     </g>
    </g>
    <g id="xtick_2">
     <g id="line2d_3">
      <path clip-path="url(#p7d71325df8)" d="M 145.978182 307.584 
L 145.978182 41.472 
" style="fill:none;stroke:#b0b0b0;stroke-linecap:square;stroke-width:0.8;"/>
     </g>
     <g id="line2d_4">
      <g>
       <use style="stroke:#000000;stroke-width:0.8;" x="145.978182" xlink:href="#m355639f7a9" y="307.584"/>
      </g>
     </g>
     <g id="text_2">
      <!-- 0.2 -->
      <defs>
       <path d="M 19.1875 8.296875 
L 53.609375 8.296875 
L 53.609375 0 
L 7.328125 0 
L 7.328125 8.296875 
Q 12.9375 14.109375 22.625 23.890625 
Q 32.328125 33.6875 34.8125 36.53125 
Q 39.546875 41.84375 41.421875 45.53125 
Q 43.3125 49.21875 43.3125 52.78125 
Q 43.3125 58.59375 39.234375 62.25 
Q 35.15625 65.921875 28.609375 65.921875 
Q 23.96875 65.921875 18.8125 64.3125 
Q 13.671875 62.703125 7.8125 59.421875 
L 7.8125 69.390625 
Q 13.765625 71.78125 18.9375 73 
Q 24.125 74.21875 28.421875 74.21875 
Q 39.75 74.21875 46.484375 68.546875 
Q 53.21875 62.890625 53.21875 53.421875 
Q 53.21875 48.921875 51.53125 44.890625 
Q 49.859375 40.875 45.40625 35.40625 
Q 44.1875 33.984375 37.640625 27.21875 
Q 31.109375 20.453125 19.1875 8.296875 
" id="DejaVuSans-32"/>
      </defs>
      <g transform="translate(138.026619 322.182437)scale(0.1 -0.1)">
       <use xlink:href="#DejaVuSans-30"/>
       <use x="63.623047" xlink:href="#DejaVuSans-2e"/>
       <use x="95.410156" xlink:href="#DejaVuSans-32"/>
      </g>
     </g>
    </g>
    <g id="xtick_3">
     <g id="line2d_5">
      <path clip-path="url(#p7d71325df8)" d="M 218.123636 307.584 
L 218.123636 41.472 
" style="fill:none;stroke:#b0b0b0;stroke-linecap:square;stroke-width:0.8;"/>
     </g>
     <g id="line2d_6">
      <g>
       <use style="stroke:#000000;stroke-width:0.8;" x="218.123636" xlink:href="#m355639f7a9" y="307.584"/>
      </g>
     </g>
     <g id="text_3">
      <!-- 0.4 -->
      <defs>
       <path d="M 37.796875 64.3125 
L 12.890625 25.390625 
L 37.796875 25.390625 
z
M 35.203125 72.90625 
L 47.609375 72.90625 
L 47.609375 25.390625 
L 58.015625 25.390625 
L 58.015625 17.1875 
L 47.609375 17.1875 
L 47.609375 0 
L 37.796875 0 
L 37.796875 17.1875 
L 4.890625 17.1875 
L 4.890625 26.703125 
z
" id="DejaVuSans-34"/>
      </defs>
      <g transform="translate(210.172074 322.182437)scale(0.1 -0.1)">
       <use xlink:href="#DejaVuSans-30"/>
       <use x="63.623047" xlink:href="#DejaVuSans-2e"/>
       <use x="95.410156" xlink:href="#DejaVuSans-34"/>
      </g>
     </g>
    </g>
    <g id="xtick_4">
     <g id="line2d_7">
      <path clip-path="url(#p7d71325df8)" d="M 290.269091 307.584 
L 290.269091 41.472 
" style="fill:none;stroke:#b0b0b0;stroke-linecap:square;stroke-width:0.8;"/>
     </g>
     <g id="line2d_8">
      <g>
       <use style="stroke:#000000;stroke-width:0.8;" x="290.269091" xlink:href="#m355639f7a9" y="307.584"/>
      </g>
     </g>
     <g id="text_4">
      <!-- 0.6 -->
      <defs>
       <path d="M 33.015625 40.375 
Q 26.375 40.375 22.484375 35.828125 
Q 18.609375 31.296875 18.609375 23.390625 
Q 18.609375 15.53125 22.484375 10.953125 
Q 26.375 6.390625 33.015625 6.390625 
Q 39.65625 6.390625 43.53125 10.953125 
Q 47.40625 15.53125 47.40625 23.390625 
Q 47.40625 31.296875 43.53125 35.828125 
Q 39.65625 40.375 33.015625 40.375 
M 52.59375 71.296875 
L 52.59375 62.3125 
Q 48.875 64.0625 45.09375 64.984375 
Q 41.3125 65.921875 37.59375 65.921875 
Q 27.828125 65.921875 22.671875 59.328125 
Q 17.53125 52.734375 16.796875 39.40625 
Q 19.671875 43.65625 24.015625 45.921875 
Q 28.375 48.1875 33.59375 48.1875 
Q 44.578125 48.1875 50.953125 41.515625 
Q 57.328125 34.859375 57.328125 23.390625 
Q 57.328125 12.15625 50.6875 5.359375 
Q 44.046875 -1.421875 33.015625 -1.421875 
Q 20.359375 -1.421875 13.671875 8.265625 
Q 6.984375 17.96875 6.984375 36.375 
Q 6.984375 53.65625 15.1875 63.9375 
Q 23.390625 74.21875 37.203125 74.21875 
Q 40.921875 74.21875 44.703125 73.484375 
Q 48.484375 72.75 52.59375 71.296875 
" id="DejaVuSans-36"/>
      </defs>
      <g transform="translate(282.317528 322.182437)scale(0.1 -0.1)">
       <use xlink:href="#DejaVuSans-30"/>
       <use x="63.623047" xlink:href="#DejaVuSans-2e"/>
       <use x="95.410156" xlink:href="#DejaVuSans-36"/>
      </g>
     </g>
    </g>
    <g id="xtick_5">
     <g id="line2d_9">
      <path clip-path="url(#p7d71325df8)" d="M 362.414545 307.584 
L 362.414545 41.472 
" style="fill:none;stroke:#b0b0b0;stroke-linecap:square;stroke-width:0.8;"/>
     </g>
     <g id="line2d_10">
      <g>
       <use style="stroke:#000000;stroke-width:0.8;" x="362.414545" xlink:href="#m355639f7a9" y="307.584"/>
      </g>
     </g>
     <g id="text_5">
      <!-- 0.8 -->
      <defs>
       <path d="M 31.78125 34.625 
Q 24.75 34.625 20.71875 30.859375 
Q 16.703125 27.09375 16.703125 20.515625 
Q 16.703125 13.921875 20.71875 10.15625 
Q 24.75 6.390625 31.78125 6.390625 
Q 38.8125 6.390625 42.859375 10.171875 
Q 46.921875 13.96875 46.921875 20.515625 
Q 46.921875 27.09375 42.890625 30.859375 
Q 38.875 34.625 31.78125 34.625 
M 21.921875 38.8125 
Q 15.578125 40.375 12.03125 44.71875 
Q 8.5 49.078125 8.5 55.328125 
Q 8.5 64.0625 14.71875 69.140625 
Q 20.953125 74.21875 31.78125 74.21875 
Q 42.671875 74.21875 48.875 69.140625 
Q 55.078125 64.0625 55.078125 55.328125 
Q 55.078125 49.078125 51.53125 44.71875 
Q 48 40.375 41.703125 38.8125 
Q 48.828125 37.15625 52.796875 32.3125 
Q 56.78125 27.484375 56.78125 20.515625 
Q 56.78125 9.90625 50.3125 4.234375 
Q 43.84375 -1.421875 31.78125 -1.421875 
Q 19.734375 -1.421875 13.25 4.234375 
Q 6.78125 9.90625 6.78125 20.515625 
Q 6.78125 27.484375 10.78125 32.3125 
Q 14.796875 37.15625 21.921875 38.8125 
M 18.3125 54.390625 
Q 18.3125 48.734375 21.84375 45.5625 
Q 25.390625 42.390625 31.78125 42.390625 
Q 38.140625 42.390625 41.71875 45.5625 
Q 45.3125 48.734375 45.3125 54.390625 
Q 45.3125 60.0625 41.71875 63.234375 
Q 38.140625 66.40625 31.78125 66.40625 
Q 25.390625 66.40625 21.84375 63.234375 
Q 18.3125 60.0625 18.3125 54.390625 
" id="DejaVuSans-38"/>
      </defs>
      <g transform="translate(354.462983 322.182437)scale(0.1 -0.1)">
       <use xlink:href="#DejaVuSans-30"/>
       <use x="63.623047" xlink:href="#DejaVuSans-2e"/>
       <use x="95.410156" xlink:href="#DejaVuSans-38"/>
      </g>
     </g>
    </g>
    <g id="text_6">
     <!-- 1−r -->
     <defs>
      <path d="M 12.40625 8.296875 
L 28.515625 8.296875 
L 28.515625 63.921875 
L 10.984375 60.40625 
L 10.984375 69.390625 
L 28.421875 72.90625 
L 38.28125 72.90625 
L 38.28125 8.296875 
L 54.390625 8.296875 
L 54.390625 0 
L 12.40625 0 
z
" id="DejaVuSans-31"/>
      <path d="M 10.59375 35.5 
L 73.1875 35.5 
L 73.1875 27.203125 
L 10.59375 27.203125 
z
" id="DejaVuSans-2212"/>
      <path d="M 41.109375 46.296875 
Q 39.59375 47.171875 37.8125 47.578125 
Q 36.03125 48 33.890625 48 
Q 26.265625 48 22.1875 43.046875 
Q 18.109375 38.09375 18.109375 28.8125 
L 18.109375 0 
L 9.078125 0 
L 9.078125 54.6875 
L 18.109375 54.6875 
L 18.109375 46.1875 
Q 20.953125 51.171875 25.484375 53.578125 
Q 30.03125 56 36.53125 56 
Q 37.453125 56 38.578125 55.875 
Q 39.703125 55.765625 41.0625 55.515625 
z
" id="DejaVuSans-72"/>
     </defs>
     <g transform="translate(226.733438 335.860562)scale(0.1 -0.1)">
      <use xlink:href="#DejaVuSans-31"/>
      <use x="63.623047" xlink:href="#DejaVuSans-2212"/>
      <use x="147.412109" xlink:href="#DejaVuSans-72"/>
     </g>
    </g>
   </g>
   <g id="matplotlib.axis_2">
    <g id="ytick_1">
     <g id="line2d_11">
      <path clip-path="url(#p7d71325df8)" d="M 57.6 295.488 
L 414.72 295.488 
" style="fill:none;stroke:#b0b0b0;stroke-linecap:square;stroke-width:0.8;"/>
     </g>
     <g id="line2d_12">
      <defs>
       <path d="M 0 0 
L -3.5 0 
" id="me6816f1151" style="stroke:#000000;stroke-width:0.8;"/>
      </defs>
      <g>
       <use style="stroke:#000000;stroke-width:0.8;" x="57.6" xlink:href="#me6816f1151" y="295.488"/>
      </g>
     </g>
     <g id="text_7">
      <!-- 0.0 -->
      <g transform="translate(34.696875 299.287219)scale(0.1 -0.1)">
       <use xlink:href="#DejaVuSans-30"/>
       <use x="63.623047" xlink:href="#DejaVuSans-2e"/>
       <use x="95.410156" xlink:href="#DejaVuSans-30"/>
      </g>
     </g>
    </g>
    <g id="ytick_2">
     <g id="line2d_13">
      <path clip-path="url(#p7d71325df8)" d="M 57.6 247.104 
L 414.72 247.104 
" style="fill:none;stroke:#b0b0b0;stroke-linecap:square;stroke-width:0.8;"/>
     </g>
     <g id="line2d_14">
      <g>
       <use style="stroke:#000000;stroke-width:0.8;" x="57.6" xlink:href="#me6816f1151" y="247.104"/>
      </g>
     </g>
     <g id="text_8">
      <!-- 0.2 -->
      <g transform="translate(34.696875 250.903219)scale(0.1 -0.1)">
       <use xlink:href="#DejaVuSans-30"/>
       <use x="63.623047" xlink:href="#DejaVuSans-2e"/>
       <use x="95.410156" xlink:href="#DejaVuSans-32"/>
      </g>
     </g>
    </g>
    <g id="ytick_3">
     <g id="line2d_15">
      <path clip-path="url(#p7d71325df8)" d="M 57.6 198.72 
L 414.72 198.72 
" style="fill:none;stroke:#b0b0b0;stroke-linecap:square;stroke-width:0.8;"/>
     </g>
     <g id="line2d_16">
      <g>
       <use style="stroke:#000000;stroke-width:0.8;" x="57.6" xlink:href="#me6816f1151" y="198.72"/>
      </g>
     </g>
     <g id="text_9">
      <!-- 0.4 -->
      <g transform="translate(34.696875 202.519219)scale(0.1 -0.1)">
       <use xlink:href="#DejaVuSans-30"/>
       <use x="63.623047" xlink:href="#DejaVuSans-2e"/>
       <use x="95.410156" xlink:href="#DejaVuSans-34"/>
      </g>
     </g>
    </g>
    <g id="ytick_4">
     <g id="line2d_17">
      <path clip-path="url(#p7d71325df8)" d="M 57.6 150.336 
L 414.72 150.336 
" style="fill:none;stroke:#b0b0b0;stroke-linecap:square;stroke-width:0.8;"/>
     </g>
     <g id="line2d_18">
      <g>
       <use style="stroke:#000000;stroke-width:0.8;" x="57.6" xlink:href="#me6816f1151" y="150.336"/>
      </g>
     </g>
     <g id="text_10">
      <!-- 0.6 -->
      <g transform="translate(34.696875 154.135219)scale(0.1 -0.1)">
       <use xlink:href="#DejaVuSans-30"/>
       <use x="63.623047" xlink:href="#DejaVuSans-2e"/>
       <use x="95.410156" xlink:href="#DejaVuSans-36"/>
      </g>
     </g>
    </g>
    <g id="ytick_5">
     <g id="line2d_19">
      <path clip-path="url(#p7d71325df8)" d="M 57.6 101.952 
L 414.72 101.952 
" style="fill:none;stroke:#b0b0b0;stroke-linecap:square;stroke-width:0.8;"/>
     </g>
     <g id="line2d_20">
      <g>
       <use style="stroke:#000000;stroke-width:0.8;" x="57.6" xlink:href="#me6816f1151" y="101.952"/>
      </g>
     </g>
     <g id="text_11">
      <!-- 0.8 -->
      <g transform="translate(34.696875 105.751219)scale(0.1 -0.1)">
       <use xlink:href="#DejaVuSans-30"/>
       <use x="63.623047" xlink:href="#DejaVuSans-2e"/>
       <use x="95.410156" xlink:href="#DejaVuSans-38"/>
      </g>
     </g>
    </g>
    <g id="ytick_6">
     <g id="line2d_21">
      <path clip-path="url(#p7d71325df8)" d="M 57.6 53.568 
L 414.72 53.568 
" style="fill:none;stroke:#b0b0b0;stroke-linecap:square;stroke-width:0.8;"/>
     </g>
     <g id="line2d_22">
      <g>
       <use style="stroke:#000000;stroke-width:0.8;" x="57.6" xlink:href="#me6816f1151" y="53.568"/>
      </g>
     </g>
     <g id="text_12">
      <!-- 1.0 -->
      <g transform="translate(34.696875 57.367219)scale(0.1 -0.1)">
       <use xlink:href="#DejaVuSans-31"/>
       <use x="63.623047" xlink:href="#DejaVuSans-2e"/>
       <use x="95.410156" xlink:href="#DejaVuSans-30"/>
      </g>
     </g>
    </g>
    <g id="text_13">
     <!-- prevf(1−x,f), för f=0,9,0,85,…,0.1 -->
     <defs>
      <path d="M 18.109375 8.203125 
L 18.109375 -20.796875 
L 9.078125 -20.796875 
L 9.078125 54.6875 
L 18.109375 54.6875 
L 18.109375 46.390625 
Q 20.953125 51.265625 25.265625 53.625 
Q 29.59375 56 35.59375 56 
Q 45.5625 56 51.78125 48.09375 
Q 58.015625 40.1875 58.015625 27.296875 
Q 58.015625 14.40625 51.78125 6.484375 
Q 45.5625 -1.421875 35.59375 -1.421875 
Q 29.59375 -1.421875 25.265625 0.953125 
Q 20.953125 3.328125 18.109375 8.203125 
M 48.6875 27.296875 
Q 48.6875 37.203125 44.609375 42.84375 
Q 40.53125 48.484375 33.40625 48.484375 
Q 26.265625 48.484375 22.1875 42.84375 
Q 18.109375 37.203125 18.109375 27.296875 
Q 18.109375 17.390625 22.1875 11.75 
Q 26.265625 6.109375 33.40625 6.109375 
Q 40.53125 6.109375 44.609375 11.75 
Q 48.6875 17.390625 48.6875 27.296875 
" id="DejaVuSans-70"/>
      <path d="M 56.203125 29.59375 
L 56.203125 25.203125 
L 14.890625 25.203125 
Q 15.484375 15.921875 20.484375 11.0625 
Q 25.484375 6.203125 34.421875 6.203125 
Q 39.59375 6.203125 44.453125 7.46875 
Q 49.3125 8.734375 54.109375 11.28125 
L 54.109375 2.78125 
Q 49.265625 0.734375 44.1875 -0.34375 
Q 39.109375 -1.421875 33.890625 -1.421875 
Q 20.796875 -1.421875 13.15625 6.1875 
Q 5.515625 13.8125 5.515625 26.8125 
Q 5.515625 40.234375 12.765625 48.109375 
Q 20.015625 56 32.328125 56 
Q 43.359375 56 49.78125 48.890625 
Q 56.203125 41.796875 56.203125 29.59375 
M 47.21875 32.234375 
Q 47.125 39.59375 43.09375 43.984375 
Q 39.0625 48.390625 32.421875 48.390625 
Q 24.90625 48.390625 20.390625 44.140625 
Q 15.875 39.890625 15.1875 32.171875 
z
" id="DejaVuSans-65"/>
      <path d="M 2.984375 54.6875 
L 12.5 54.6875 
L 29.59375 8.796875 
L 46.6875 54.6875 
L 56.203125 54.6875 
L 35.6875 0 
L 23.484375 0 
z
" id="DejaVuSans-76"/>
      <path d="M 37.109375 75.984375 
L 37.109375 68.5 
L 28.515625 68.5 
Q 23.6875 68.5 21.796875 66.546875 
Q 19.921875 64.59375 19.921875 59.515625 
L 19.921875 54.6875 
L 34.71875 54.6875 
L 34.71875 47.703125 
L 19.921875 47.703125 
L 19.921875 0 
L 10.890625 0 
L 10.890625 47.703125 
L 2.296875 47.703125 
L 2.296875 54.6875 
L 10.890625 54.6875 
L 10.890625 58.5 
Q 10.890625 67.625 15.140625 71.796875 
Q 19.390625 75.984375 28.609375 75.984375 
z
" id="DejaVuSans-66"/>
      <path d="M 31 75.875 
Q 24.46875 64.65625 21.28125 53.65625 
Q 18.109375 42.671875 18.109375 31.390625 
Q 18.109375 20.125 21.3125 9.0625 
Q 24.515625 -2 31 -13.1875 
L 23.1875 -13.1875 
Q 15.875 -1.703125 12.234375 9.375 
Q 8.59375 20.453125 8.59375 31.390625 
Q 8.59375 42.28125 12.203125 53.3125 
Q 15.828125 64.359375 23.1875 75.875 
z
" id="DejaVuSans-28"/>
      <path d="M 54.890625 54.6875 
L 35.109375 28.078125 
L 55.90625 0 
L 45.3125 0 
L 29.390625 21.484375 
L 13.484375 0 
L 2.875 0 
L 24.125 28.609375 
L 4.6875 54.6875 
L 15.28125 54.6875 
L 29.78125 35.203125 
L 44.28125 54.6875 
z
" id="DejaVuSans-78"/>
      <path d="M 11.71875 12.40625 
L 22.015625 12.40625 
L 22.015625 4 
L 14.015625 -11.625 
L 7.71875 -11.625 
L 11.71875 4 
z
" id="DejaVuSans-2c"/>
      <path d="M 8.015625 75.875 
L 15.828125 75.875 
Q 23.140625 64.359375 26.78125 53.3125 
Q 30.421875 42.28125 30.421875 31.390625 
Q 30.421875 20.453125 26.78125 9.375 
Q 23.140625 -1.703125 15.828125 -13.1875 
L 8.015625 -13.1875 
Q 14.5 -2 17.703125 9.0625 
Q 20.90625 20.125 20.90625 31.390625 
Q 20.90625 42.671875 17.703125 53.65625 
Q 14.5 64.65625 8.015625 75.875 
" id="DejaVuSans-29"/>
      <path id="DejaVuSans-20"/>
      <path d="M 30.609375 48.390625 
Q 23.390625 48.390625 19.1875 42.75 
Q 14.984375 37.109375 14.984375 27.296875 
Q 14.984375 17.484375 19.15625 11.84375 
Q 23.34375 6.203125 30.609375 6.203125 
Q 37.796875 6.203125 41.984375 11.859375 
Q 46.1875 17.53125 46.1875 27.296875 
Q 46.1875 37.015625 41.984375 42.703125 
Q 37.796875 48.390625 30.609375 48.390625 
M 30.609375 56 
Q 42.328125 56 49.015625 48.375 
Q 55.71875 40.765625 55.71875 27.296875 
Q 55.71875 13.875 49.015625 6.21875 
Q 42.328125 -1.421875 30.609375 -1.421875 
Q 18.84375 -1.421875 12.171875 6.21875 
Q 5.515625 13.875 5.515625 27.296875 
Q 5.515625 40.765625 12.171875 48.375 
Q 18.84375 56 30.609375 56 
M 35.21875 75.78125 
L 45.125 75.78125 
L 45.125 65.921875 
L 35.21875 65.921875 
z
M 16.125 75.78125 
L 26.03125 75.78125 
L 26.03125 65.921875 
L 16.125 65.921875 
z
" id="DejaVuSans-f6"/>
      <path d="M 10.59375 45.40625 
L 73.1875 45.40625 
L 73.1875 37.203125 
L 10.59375 37.203125 
z
M 10.59375 25.484375 
L 73.1875 25.484375 
L 73.1875 17.1875 
L 10.59375 17.1875 
z
" id="DejaVuSans-3d"/>
      <path d="M 10.984375 1.515625 
L 10.984375 10.5 
Q 14.703125 8.734375 18.5 7.8125 
Q 22.3125 6.890625 25.984375 6.890625 
Q 35.75 6.890625 40.890625 13.453125 
Q 46.046875 20.015625 46.78125 33.40625 
Q 43.953125 29.203125 39.59375 26.953125 
Q 35.25 24.703125 29.984375 24.703125 
Q 19.046875 24.703125 12.671875 31.3125 
Q 6.296875 37.9375 6.296875 49.421875 
Q 6.296875 60.640625 12.9375 67.421875 
Q 19.578125 74.21875 30.609375 74.21875 
Q 43.265625 74.21875 49.921875 64.515625 
Q 56.59375 54.828125 56.59375 36.375 
Q 56.59375 19.140625 48.40625 8.859375 
Q 40.234375 -1.421875 26.421875 -1.421875 
Q 22.703125 -1.421875 18.890625 -0.6875 
Q 15.09375 0.046875 10.984375 1.515625 
M 30.609375 32.421875 
Q 37.25 32.421875 41.125 36.953125 
Q 45.015625 41.5 45.015625 49.421875 
Q 45.015625 57.28125 41.125 61.84375 
Q 37.25 66.40625 30.609375 66.40625 
Q 23.96875 66.40625 20.09375 61.84375 
Q 16.21875 57.28125 16.21875 49.421875 
Q 16.21875 41.5 20.09375 36.953125 
Q 23.96875 32.421875 30.609375 32.421875 
" id="DejaVuSans-39"/>
      <path d="M 10.796875 72.90625 
L 49.515625 72.90625 
L 49.515625 64.59375 
L 19.828125 64.59375 
L 19.828125 46.734375 
Q 21.96875 47.46875 24.109375 47.828125 
Q 26.265625 48.1875 28.421875 48.1875 
Q 40.625 48.1875 47.75 41.5 
Q 54.890625 34.8125 54.890625 23.390625 
Q 54.890625 11.625 47.5625 5.09375 
Q 40.234375 -1.421875 26.90625 -1.421875 
Q 22.3125 -1.421875 17.546875 -0.640625 
Q 12.796875 0.140625 7.71875 1.703125 
L 7.71875 11.625 
Q 12.109375 9.234375 16.796875 8.0625 
Q 21.484375 6.890625 26.703125 6.890625 
Q 35.15625 6.890625 40.078125 11.328125 
Q 45.015625 15.765625 45.015625 23.390625 
Q 45.015625 31 40.078125 35.4375 
Q 35.15625 39.890625 26.703125 39.890625 
Q 22.75 39.890625 18.8125 39.015625 
Q 14.890625 38.140625 10.796875 36.28125 
z
" id="DejaVuSans-35"/>
      <path d="M 44.828125 12.40625 
L 55.171875 12.40625 
L 55.171875 0 
L 44.828125 0 
z
M 78.078125 12.40625 
L 88.484375 12.40625 
L 88.484375 0 
L 78.078125 0 
z
M 11.53125 12.40625 
L 21.921875 12.40625 
L 21.921875 0 
L 11.53125 0 
z
" id="DejaVuSans-2026"/>
     </defs>
     <g transform="translate(28.617187 259.528781)rotate(-90)scale(0.1 -0.1)">
      <use xlink:href="#DejaVuSans-70"/>
      <use x="63.476562" xlink:href="#DejaVuSans-72"/>
      <use x="104.558594" xlink:href="#DejaVuSans-65"/>
      <use x="166.082031" xlink:href="#DejaVuSans-76"/>
      <use x="225.261719" xlink:href="#DejaVuSans-66"/>
      <use x="260.466797" xlink:href="#DejaVuSans-28"/>
      <use x="299.480469" xlink:href="#DejaVuSans-31"/>
      <use x="363.103516" xlink:href="#DejaVuSans-2212"/>
      <use x="446.892578" xlink:href="#DejaVuSans-78"/>
      <use x="506.072266" xlink:href="#DejaVuSans-2c"/>
      <use x="537.859375" xlink:href="#DejaVuSans-66"/>
      <use x="573.064453" xlink:href="#DejaVuSans-29"/>
      <use x="612.078125" xlink:href="#DejaVuSans-2c"/>
      <use x="643.865234" xlink:href="#DejaVuSans-20"/>
      <use x="675.652344" xlink:href="#DejaVuSans-66"/>
      <use x="710.857422" xlink:href="#DejaVuSans-f6"/>
      <use x="772.039062" xlink:href="#DejaVuSans-72"/>
      <use x="813.152344" xlink:href="#DejaVuSans-20"/>
      <use x="844.939453" xlink:href="#DejaVuSans-66"/>
      <use x="880.144531" xlink:href="#DejaVuSans-3d"/>
      <use x="963.933594" xlink:href="#DejaVuSans-30"/>
      <use x="1027.556641" xlink:href="#DejaVuSans-2c"/>
      <use x="1059.34375" xlink:href="#DejaVuSans-39"/>
      <use x="1122.966797" xlink:href="#DejaVuSans-2c"/>
      <use x="1154.753906" xlink:href="#DejaVuSans-30"/>
      <use x="1218.376953" xlink:href="#DejaVuSans-2c"/>
      <use x="1250.164062" xlink:href="#DejaVuSans-38"/>
      <use x="1313.787109" xlink:href="#DejaVuSans-35"/>
      <use x="1377.410156" xlink:href="#DejaVuSans-2c"/>
      <use x="1409.197266" xlink:href="#DejaVuSans-2026"/>
      <use x="1509.197266" xlink:href="#DejaVuSans-2c"/>
      <use x="1540.984375" xlink:href="#DejaVuSans-30"/>
      <use x="1604.607422" xlink:href="#DejaVuSans-2e"/>
      <use x="1636.394531" xlink:href="#DejaVuSans-31"/>
     </g>
    </g>
   </g>
   <g id="line2d_23">
    <path clip-path="url(#p7d71325df8)" d="M 73.832727 295.488 
L 77.44 273.495273 
L 81.047273 251.053714 
L 84.654545 228.149443 
L 88.261818 204.768 
L 91.869091 180.894316 
L 95.476364 156.512681 
L 99.083636 131.60671 
L 102.690909 106.159304 
L 106.298182 80.152615 
L 109.905455 53.568 
" style="fill:none;stroke:#1f77b4;stroke-linecap:square;stroke-width:1.5;"/>
   </g>
   <g id="line2d_24">
    <path clip-path="url(#p7d71325df8)" d="M 73.832727 295.488 
L 77.44 281.640727 
L 81.047273 267.510857 
L 84.654545 253.089649 
L 88.261818 238.368 
L 91.869091 223.336421 
L 95.476364 207.985021 
L 99.083636 192.303484 
L 102.690909 176.281043 
L 106.298182 159.906462 
L 109.905455 143.168 
L 113.512727 126.053393 
L 117.12 108.549818 
L 120.727273 90.643862 
L 124.334545 72.321488 
L 127.941818 53.568 
" style="fill:none;stroke:#ff7f0e;stroke-linecap:square;stroke-width:1.5;"/>
   </g>
   <g id="line2d_25">
    <path clip-path="url(#p7d71325df8)" d="M 73.832727 295.488 
L 77.44 285.713455 
L 81.047273 275.739429 
L 84.654545 265.559753 
L 88.261818 255.168 
L 91.869091 244.557474 
L 95.476364 233.721191 
L 99.083636 222.651871 
L 102.690909 211.341913 
L 106.298182 199.783385 
L 109.905455 187.968 
L 113.512727 175.887101 
L 117.12 163.531636 
L 120.727273 150.892138 
L 124.334545 137.958698 
L 127.941818 124.720941 
L 131.549091 111.168 
L 135.156364 97.288482 
L 138.763636 83.070439 
L 142.370909 68.501333 
L 145.978182 53.568 
" style="fill:none;stroke:#2ca02c;stroke-linecap:square;stroke-width:1.5;"/>
   </g>
   <g id="line2d_26">
    <path clip-path="url(#p7d71325df8)" d="M 73.832727 295.488 
L 77.44 288.157091 
L 81.047273 280.676571 
L 84.654545 273.041814 
L 88.261818 265.248 
L 91.869091 257.290105 
L 95.476364 249.162894 
L 99.083636 240.860903 
L 102.690909 232.378435 
L 106.298182 223.709538 
L 109.905455 214.848 
L 113.512727 205.787326 
L 117.12 196.520727 
L 120.727273 187.041103 
L 124.334545 177.341023 
L 127.941818 167.412706 
L 131.549091 157.248 
L 135.156364 146.838361 
L 138.763636 136.174829 
L 142.370909 125.248 
L 145.978182 114.048 
L 149.585455 102.564456 
L 153.192727 90.786462 
L 156.8 78.702545 
L 160.407273 66.300632 
L 164.014545 53.568 
" style="fill:none;stroke:#d62728;stroke-linecap:square;stroke-width:1.5;"/>
   </g>
   <g id="line2d_27">
    <path clip-path="url(#p7d71325df8)" d="M 73.832727 295.488 
L 77.44 289.786182 
L 81.047273 283.968 
L 84.654545 278.029856 
L 88.261818 271.968 
L 91.869091 265.778526 
L 95.476364 259.457362 
L 99.083636 253.000258 
L 102.690909 246.402783 
L 106.298182 239.660308 
L 109.905455 232.768 
L 113.512727 225.720809 
L 117.12 218.513455 
L 120.727273 211.140414 
L 124.334545 203.595907 
L 127.941818 195.873882 
L 131.549091 187.968 
L 135.156364 179.871614 
L 138.763636 171.577756 
L 142.370909 163.079111 
L 145.978182 154.368 
L 149.585455 145.436354 
L 153.192727 136.275692 
L 156.8 126.877091 
L 160.407273 117.231158 
L 164.014545 107.328 
L 167.621818 97.157189 
L 171.229091 86.707726 
L 174.836364 75.968 
L 178.443636 64.925746 
L 182.050909 53.568 
" style="fill:none;stroke:#9467bd;stroke-linecap:square;stroke-width:1.5;"/>
   </g>
   <g id="line2d_28">
    <path clip-path="url(#p7d71325df8)" d="M 73.832727 295.488 
L 77.44 290.949818 
L 81.047273 286.31902 
L 84.654545 281.592742 
L 88.261818 276.768 
L 91.869091 271.841684 
L 95.476364 266.810553 
L 99.083636 261.671226 
L 102.690909 256.420174 
L 106.298182 251.053714 
L 109.905455 245.568 
L 113.512727 239.959011 
L 117.12 234.222545 
L 120.727273 228.354207 
L 124.334545 222.349395 
L 127.941818 216.203294 
L 131.549091 209.910857 
L 135.156364 203.466795 
L 138.763636 196.865561 
L 142.370909 190.101333 
L 145.978182 183.168 
L 149.585455 176.059139 
L 153.192727 168.768 
L 156.8 161.287481 
L 160.407273 153.610105 
L 164.014545 145.728 
L 167.621818 137.632865 
L 171.229091 129.315945 
L 174.836364 120.768 
L 178.443636 111.979268 
L 182.050909 102.939429 
L 185.658182 93.637565 
L 189.265455 84.062118 
L 192.872727 74.200836 
L 196.48 64.040727 
L 200.087273 53.568 
" style="fill:none;stroke:#8c564b;stroke-linecap:square;stroke-width:1.5;"/>
   </g>
   <g id="line2d_29">
    <path clip-path="url(#p7d71325df8)" d="M 73.832727 295.488 
L 77.44 291.822545 
L 81.047273 288.082286 
L 84.654545 284.264907 
L 88.261818 280.368 
L 91.869091 276.389053 
L 95.476364 272.325447 
L 99.083636 268.174452 
L 102.690909 263.933217 
L 106.298182 259.598769 
L 109.905455 255.168 
L 113.512727 250.637663 
L 117.12 246.004364 
L 120.727273 241.264552 
L 124.334545 236.414512 
L 127.941818 231.450353 
L 131.549091 226.368 
L 135.156364 221.163181 
L 138.763636 215.831415 
L 142.370909 210.368 
L 145.978182 204.768 
L 149.585455 199.026228 
L 153.192727 193.137231 
L 156.8 187.095273 
L 160.407273 180.894316 
L 164.014545 174.528 
L 167.621818 167.989622 
L 171.229091 161.27211 
L 174.836364 154.368 
L 178.443636 147.269408 
L 182.050909 139.968 
L 185.658182 132.454957 
L 189.265455 124.720941 
L 192.872727 116.75606 
L 196.48 108.549818 
L 200.087273 100.091077 
L 203.694545 91.368 
L 207.301818 82.368 
L 210.909091 73.077677 
L 214.516364 63.482754 
L 218.123636 53.568 
" style="fill:none;stroke:#e377c2;stroke-linecap:square;stroke-width:1.5;"/>
   </g>
   <g id="line2d_30">
    <path clip-path="url(#p7d71325df8)" d="M 73.832727 295.488 
L 77.44 292.501333 
L 81.047273 289.453714 
L 84.654545 286.343258 
L 88.261818 283.168 
L 91.869091 279.925895 
L 95.476364 276.614809 
L 99.083636 273.232516 
L 102.690909 269.776696 
L 106.298182 266.244923 
L 109.905455 262.634667 
L 113.512727 258.943281 
L 117.12 255.168 
L 120.727273 251.305931 
L 124.334545 247.354047 
L 127.941818 243.309176 
L 131.549091 239.168 
L 135.156364 234.927036 
L 138.763636 230.582634 
L 142.370909 226.130963 
L 145.978182 221.568 
L 149.585455 216.889519 
L 153.192727 212.091077 
L 156.8 207.168 
L 160.407273 202.115368 
L 164.014545 196.928 
L 167.621818 191.600432 
L 171.229091 186.126904 
L 174.836364 180.501333 
L 178.443636 174.717296 
L 182.050909 168.768 
L 185.658182 162.646261 
L 189.265455 156.344471 
L 192.872727 149.854567 
L 196.48 143.168 
L 200.087273 136.275692 
L 203.694545 129.168 
L 207.301818 121.834667 
L 210.909091 114.264774 
L 214.516364 106.446689 
L 218.123636 98.368 
L 221.730909 90.015458 
L 225.338182 81.374897 
L 228.945455 72.431158 
L 232.552727 63.168 
L 236.16 53.568 
" style="fill:none;stroke:#7f7f7f;stroke-linecap:square;stroke-width:1.5;"/>
   </g>
   <g id="line2d_31">
    <path clip-path="url(#p7d71325df8)" d="M 73.832727 295.488 
L 77.44 293.044364 
L 81.047273 290.550857 
L 84.654545 288.005938 
L 88.261818 285.408 
L 91.869091 282.755368 
L 95.476364 280.046298 
L 99.083636 277.278968 
L 102.690909 274.451478 
L 106.298182 271.561846 
L 109.905455 268.608 
L 113.512727 265.587775 
L 117.12 262.498909 
L 120.727273 259.339034 
L 124.334545 256.105674 
L 127.941818 252.796235 
L 131.549091 249.408 
L 135.156364 245.93812 
L 138.763636 242.38361 
L 142.370909 238.741333 
L 145.978182 235.008 
L 149.585455 231.180152 
L 153.192727 227.254154 
L 156.8 223.226182 
L 160.407273 219.092211 
L 164.014545 214.848 
L 167.621818 210.489081 
L 171.229091 206.01074 
L 174.836364 201.408 
L 178.443636 196.675606 
L 182.050909 191.808 
L 185.658182 186.799304 
L 189.265455 181.643294 
L 192.872727 176.333373 
L 196.48 170.862545 
L 200.087273 165.223385 
L 203.694545 159.408 
L 207.301818 153.408 
L 210.909091 147.214452 
L 214.516364 140.817836 
L 218.123636 134.208 
L 221.730909 127.374102 
L 225.338182 120.304552 
L 228.945455 112.986947 
L 232.552727 105.408 
L 236.16 97.553455 
L 239.767273 89.408 
L 243.374545 80.95517 
L 246.981818 72.177231 
L 250.589091 63.055059 
L 254.196364 53.568 
" style="fill:none;stroke:#bcbd22;stroke-linecap:square;stroke-width:1.5;"/>
   </g>
   <g id="line2d_32">
    <path clip-path="url(#p7d71325df8)" d="M 73.832727 295.488 
L 77.44 293.488661 
L 81.047273 291.448519 
L 84.654545 289.366313 
L 88.261818 287.240727 
L 91.869091 285.070392 
L 95.476364 282.85388 
L 99.083636 280.589701 
L 102.690909 278.2763 
L 106.298182 275.912056 
L 109.905455 273.495273 
L 113.512727 271.02418 
L 117.12 268.496926 
L 120.727273 265.911574 
L 124.334545 263.266097 
L 127.941818 260.558374 
L 131.549091 257.786182 
L 135.156364 254.947189 
L 138.763636 252.038953 
L 142.370909 249.058909 
L 145.978182 246.004364 
L 149.585455 242.872488 
L 153.192727 239.660308 
L 156.8 236.364694 
L 160.407273 232.982354 
L 164.014545 229.509818 
L 167.621818 225.94343 
L 171.229091 222.279333 
L 174.836364 218.513455 
L 178.443636 214.641496 
L 182.050909 210.658909 
L 185.658182 206.560885 
L 189.265455 202.342332 
L 192.872727 197.997851 
L 196.48 193.521719 
L 200.087273 188.90786 
L 203.694545 184.149818 
L 207.301818 179.240727 
L 210.909091 174.173279 
L 214.516364 168.939684 
L 218.123636 163.531636 
L 221.730909 157.940265 
L 225.338182 152.156088 
L 228.945455 146.168957 
L 232.552727 139.968 
L 236.16 133.541554 
L 239.767273 126.877091 
L 243.374545 119.961139 
L 246.981818 112.779189 
L 250.589091 105.315594 
L 254.196364 97.553455 
L 257.803636 89.474494 
L 261.410909 81.058909 
L 265.018182 72.285215 
L 268.625455 63.130055 
L 272.232727 53.568 
" style="fill:none;stroke:#17becf;stroke-linecap:square;stroke-width:1.5;"/>
   </g>
   <g id="line2d_33">
    <path clip-path="url(#p7d71325df8)" d="M 73.832727 295.488 
L 77.44 293.858909 
L 81.047273 292.196571 
L 84.654545 290.499959 
L 88.261818 288.768 
L 91.869091 286.999579 
L 95.476364 285.193532 
L 99.083636 283.348645 
L 102.690909 281.463652 
L 106.298182 279.537231 
L 109.905455 277.568 
L 113.512727 275.554517 
L 117.12 273.495273 
L 120.727273 271.38869 
L 124.334545 269.233116 
L 127.941818 267.026824 
L 131.549091 264.768 
L 135.156364 262.454747 
L 138.763636 260.085073 
L 142.370909 257.656889 
L 145.978182 255.168 
L 149.585455 252.616101 
L 153.192727 249.998769 
L 156.8 247.313455 
L 160.407273 244.557474 
L 164.014545 241.728 
L 167.621818 238.822054 
L 171.229091 235.836493 
L 174.836364 232.768 
L 178.443636 229.61307 
L 182.050909 226.368 
L 185.658182 223.02887 
L 189.265455 219.591529 
L 192.872727 216.051582 
L 196.48 212.404364 
L 200.087273 208.644923 
L 203.694545 204.768 
L 207.301818 200.768 
L 210.909091 196.638968 
L 214.516364 192.374557 
L 218.123636 187.968 
L 221.730909 183.412068 
L 225.338182 178.699034 
L 228.945455 173.820632 
L 232.552727 168.768 
L 236.16 163.531636 
L 239.767273 158.101333 
L 243.374545 152.466113 
L 246.981818 146.614154 
L 250.589091 140.532706 
L 254.196364 134.208 
L 257.803636 127.625143 
L 261.410909 120.768 
L 265.018182 113.619064 
L 268.625455 106.159304 
L 272.232727 98.368 
L 275.84 90.222545 
L 279.447273 81.698233 
L 283.054545 72.768 
L 286.661818 63.402146 
L 290.269091 53.568 
" style="fill:none;stroke:#1f77b4;stroke-linecap:square;stroke-width:1.5;"/>
   </g>
   <g id="line2d_34">
    <path clip-path="url(#p7d71325df8)" d="M 73.832727 295.488 
L 77.44 294.172196 
L 81.047273 292.829538 
L 84.654545 291.459197 
L 88.261818 290.060308 
L 91.869091 288.631968 
L 95.476364 287.173237 
L 99.083636 285.683136 
L 102.690909 284.160642 
L 106.298182 282.604686 
L 109.905455 281.014154 
L 113.512727 279.387879 
L 117.12 277.724643 
L 120.727273 276.023172 
L 124.334545 274.282132 
L 127.941818 272.500127 
L 131.549091 270.675692 
L 135.156364 268.807296 
L 138.763636 266.893328 
L 142.370909 264.932103 
L 145.978182 262.921846 
L 149.585455 260.860697 
L 153.192727 258.746698 
L 156.8 256.57779 
L 160.407273 254.351806 
L 164.014545 252.066462 
L 167.621818 249.719351 
L 171.229091 247.307937 
L 174.836364 244.829538 
L 178.443636 242.281326 
L 182.050909 239.660308 
L 185.658182 236.963318 
L 189.265455 234.187005 
L 192.872727 231.327816 
L 196.48 228.381986 
L 200.087273 225.345515 
L 203.694545 222.214154 
L 207.301818 218.983385 
L 210.909091 215.648397 
L 214.516364 212.204066 
L 218.123636 208.644923 
L 221.730909 204.965132 
L 225.338182 201.158451 
L 228.945455 197.218202 
L 232.552727 193.137231 
L 236.16 188.90786 
L 239.767273 184.521846 
L 243.374545 179.970322 
L 246.981818 175.24374 
L 250.589091 170.331801 
L 254.196364 165.223385 
L 257.803636 159.906462 
L 261.410909 154.368 
L 265.018182 148.593859 
L 268.625455 142.568669 
L 272.232727 136.275692 
L 275.84 129.696671 
L 279.447273 122.811649 
L 283.054545 115.598769 
L 286.661818 108.034041 
L 290.269091 100.091077 
L 293.876364 91.740781 
L 297.483636 82.950996 
L 301.090909 73.686087 
L 304.698182 63.906462 
L 308.305455 53.568 
" style="fill:none;stroke:#ff7f0e;stroke-linecap:square;stroke-width:1.5;"/>
   </g>
   <g id="line2d_35">
    <path clip-path="url(#p7d71325df8)" d="M 73.832727 295.488 
L 77.44 294.440727 
L 81.047273 293.372082 
L 84.654545 292.281402 
L 88.261818 291.168 
L 91.869091 290.031158 
L 95.476364 288.870128 
L 99.083636 287.684129 
L 102.690909 286.472348 
L 106.298182 285.233934 
L 109.905455 283.968 
L 113.512727 282.673618 
L 117.12 281.349818 
L 120.727273 279.995586 
L 124.334545 278.60986 
L 127.941818 277.191529 
L 131.549091 275.739429 
L 135.156364 274.252337 
L 138.763636 272.728976 
L 142.370909 271.168 
L 145.978182 269.568 
L 149.585455 267.927494 
L 153.192727 266.244923 
L 156.8 264.518649 
L 160.407273 262.746947 
L 164.014545 260.928 
L 167.621818 259.059892 
L 171.229091 257.140603 
L 174.836364 255.168 
L 178.443636 253.139831 
L 182.050909 251.053714 
L 185.658182 248.90713 
L 189.265455 246.697412 
L 192.872727 244.421731 
L 196.48 242.077091 
L 200.087273 239.660308 
L 203.694545 237.168 
L 207.301818 234.596571 
L 210.909091 231.942194 
L 214.516364 229.200787 
L 218.123636 226.368 
L 221.730909 223.439186 
L 225.338182 220.409379 
L 228.945455 217.273263 
L 232.552727 214.025143 
L 236.16 210.658909 
L 239.767273 207.168 
L 243.374545 203.545358 
L 246.981818 199.783385 
L 250.589091 195.873882 
L 254.196364 191.808 
L 257.803636 187.576163 
L 261.410909 183.168 
L 265.018182 178.572255 
L 268.625455 173.776696 
L 272.232727 168.768 
L 275.84 163.531636 
L 279.447273 158.051721 
L 283.054545 152.310857 
L 286.661818 146.289951 
L 290.269091 139.968 
L 293.876364 133.321846 
L 297.483636 126.325895 
L 301.090909 118.951784 
L 304.698182 111.168 
L 308.305455 102.939429 
L 311.912727 94.226824 
L 315.52 84.986182 
L 319.127273 75.168 
L 322.734545 64.716387 
L 326.341818 53.568 
" style="fill:none;stroke:#2ca02c;stroke-linecap:square;stroke-width:1.5;"/>
   </g>
   <g id="line2d_36">
    <path clip-path="url(#p7d71325df8)" d="M 73.832727 295.488 
L 77.44 294.673455 
L 81.047273 293.842286 
L 84.654545 292.993979 
L 88.261818 292.128 
L 91.869091 291.243789 
L 95.476364 290.340766 
L 99.083636 289.418323 
L 102.690909 288.475826 
L 106.298182 287.512615 
L 109.905455 286.528 
L 113.512727 285.521258 
L 117.12 284.491636 
L 120.727273 283.438345 
L 124.334545 282.360558 
L 127.941818 281.257412 
L 131.549091 280.128 
L 135.156364 278.971373 
L 138.763636 277.786537 
L 142.370909 276.572444 
L 145.978182 275.328 
L 149.585455 274.052051 
L 153.192727 272.743385 
L 156.8 271.400727 
L 160.407273 270.022737 
L 164.014545 268.608 
L 167.621818 267.155027 
L 171.229091 265.662247 
L 174.836364 264.128 
L 178.443636 262.550535 
L 182.050909 260.928 
L 185.658182 259.258435 
L 189.265455 257.539765 
L 192.872727 255.769791 
L 196.48 253.946182 
L 200.087273 252.066462 
L 203.694545 250.128 
L 207.301818 248.128 
L 210.909091 246.063484 
L 214.516364 243.931279 
L 218.123636 241.728 
L 221.730909 239.450034 
L 225.338182 237.093517 
L 228.945455 234.654316 
L 232.552727 232.128 
L 236.16 229.509818 
L 239.767273 226.794667 
L 243.374545 223.977057 
L 246.981818 221.051077 
L 250.589091 218.010353 
L 254.196364 214.848 
L 257.803636 211.556571 
L 261.410909 208.128 
L 265.018182 204.553532 
L 268.625455 200.823652 
L 272.232727 196.928 
L 275.84 192.855273 
L 279.447273 188.593116 
L 283.054545 184.128 
L 286.661818 179.445073 
L 290.269091 174.528 
L 293.876364 169.358769 
L 297.483636 163.917474 
L 301.090909 158.182054 
L 304.698182 152.128 
L 308.305455 145.728 
L 311.912727 138.951529 
L 315.52 131.764364 
L 319.127273 124.128 
L 322.734545 115.998968 
L 326.341818 107.328 
L 329.949091 98.059034 
L 333.556364 88.128 
L 337.163636 77.461333 
L 340.770909 65.974154 
L 344.378182 53.568 
" style="fill:none;stroke:#d62728;stroke-linecap:square;stroke-width:1.5;"/>
   </g>
   <g id="line2d_37">
    <path clip-path="url(#p7d71325df8)" d="M 73.832727 295.488 
L 77.44 294.877091 
L 81.047273 294.253714 
L 84.654545 293.617485 
L 88.261818 292.968 
L 91.869091 292.304842 
L 95.476364 291.627574 
L 99.083636 290.935742 
L 102.690909 290.22887 
L 106.298182 289.506462 
L 109.905455 288.768 
L 113.512727 288.012944 
L 117.12 287.240727 
L 120.727273 286.450759 
L 124.334545 285.642419 
L 127.941818 284.815059 
L 131.549091 283.968 
L 135.156364 283.10053 
L 138.763636 282.211902 
L 142.370909 281.301333 
L 145.978182 280.368 
L 149.585455 279.411038 
L 153.192727 278.429538 
L 156.8 277.422545 
L 160.407273 276.389053 
L 164.014545 275.328 
L 167.621818 274.23827 
L 171.229091 273.118685 
L 174.836364 271.968 
L 178.443636 270.784901 
L 182.050909 269.568 
L 185.658182 268.315826 
L 189.265455 267.026824 
L 192.872727 265.699343 
L 196.48 264.331636 
L 200.087273 262.921846 
L 203.694545 261.468 
L 207.301818 259.968 
L 210.909091 258.419613 
L 214.516364 256.820459 
L 218.123636 255.168 
L 221.730909 253.459525 
L 225.338182 251.692138 
L 228.945455 249.862737 
L 232.552727 247.968 
L 236.16 246.004364 
L 239.767273 243.968 
L 243.374545 241.854792 
L 246.981818 239.660308 
L 250.589091 237.379765 
L 254.196364 235.008 
L 257.803636 232.539429 
L 261.410909 229.968 
L 265.018182 227.287149 
L 268.625455 224.489739 
L 272.232727 221.568 
L 275.84 218.513455 
L 279.447273 215.316837 
L 283.054545 211.968 
L 286.661818 208.455805 
L 290.269091 204.768 
L 293.876364 200.891077 
L 297.483636 196.810105 
L 301.090909 192.508541 
L 304.698182 187.968 
L 308.305455 183.168 
L 311.912727 178.085647 
L 315.52 172.695273 
L 319.127273 166.968 
L 322.734545 160.871226 
L 326.341818 154.368 
L 329.949091 147.416276 
L 333.556364 139.968 
L 337.163636 131.968 
L 340.770909 123.352615 
L 344.378182 114.048 
L 347.985455 103.968 
L 351.592727 93.011478 
L 355.2 81.058909 
L 358.807273 67.968 
L 362.414545 53.568 
" style="fill:none;stroke:#9467bd;stroke-linecap:square;stroke-width:1.5;"/>
   </g>
   <g id="line2d_38">
    <path clip-path="url(#p7d71325df8)" d="M 73.832727 295.488 
L 77.44 295.05677 
L 81.047273 294.616739 
L 84.654545 294.167636 
L 88.261818 293.709176 
L 91.869091 293.241065 
L 95.476364 292.762994 
L 99.083636 292.274641 
L 102.690909 291.775673 
L 106.298182 291.265738 
L 109.905455 290.744471 
L 113.512727 290.21149 
L 117.12 289.666396 
L 120.727273 289.108771 
L 124.334545 288.538178 
L 127.941818 287.954159 
L 131.549091 287.356235 
L 135.156364 286.743904 
L 138.763636 286.116637 
L 142.370909 285.473882 
L 145.978182 284.815059 
L 149.585455 284.139556 
L 153.192727 283.446733 
L 156.8 282.735914 
L 160.407273 282.00639 
L 164.014545 281.257412 
L 167.621818 280.488191 
L 171.229091 279.697895 
L 174.836364 278.885647 
L 178.443636 278.050519 
L 182.050909 277.191529 
L 185.658182 276.307642 
L 189.265455 275.397758 
L 192.872727 274.460713 
L 196.48 273.495273 
L 200.087273 272.500127 
L 203.694545 271.473882 
L 207.301818 270.415059 
L 210.909091 269.32208 
L 214.516364 268.193265 
L 218.123636 267.026824 
L 221.730909 265.820841 
L 225.338182 264.573274 
L 228.945455 263.281932 
L 232.552727 261.944471 
L 236.16 260.558374 
L 239.767273 259.120941 
L 243.374545 257.629265 
L 246.981818 256.080217 
L 250.589091 254.470422 
L 254.196364 252.796235 
L 257.803636 251.053714 
L 261.410909 249.238588 
L 265.018182 247.346223 
L 268.625455 245.371581 
L 272.232727 243.309176 
L 275.84 241.153027 
L 279.447273 238.896591 
L 283.054545 236.532706 
L 286.661818 234.053509 
L 290.269091 231.450353 
L 293.876364 228.713701 
L 297.483636 225.833015 
L 301.090909 222.796617 
L 304.698182 219.591529 
L 308.305455 216.203294 
L 311.912727 212.615751 
L 315.52 208.810781 
L 319.127273 204.768 
L 322.734545 200.464395 
L 326.341818 195.873882 
L 329.949091 190.966783 
L 333.556364 185.709176 
L 337.163636 180.062118 
L 340.770909 173.98067 
L 344.378182 167.412706 
L 347.985455 160.297412 
L 351.592727 152.563396 
L 355.2 144.126289 
L 358.807273 134.885647 
L 362.414545 124.720941 
L 366.021818 113.486266 
L 369.629091 101.003294 
L 373.236364 87.051737 
L 376.843636 71.356235 
L 380.450909 53.568 
" style="fill:none;stroke:#8c564b;stroke-linecap:square;stroke-width:1.5;"/>
   </g>
   <g id="line2d_39">
    <path clip-path="url(#p7d71325df8)" d="M 73.832727 295.488 
L 77.44 295.216485 
L 81.047273 294.939429 
L 84.654545 294.65666 
L 88.261818 294.368 
L 91.869091 294.073263 
L 95.476364 293.772255 
L 99.083636 293.464774 
L 102.690909 293.150609 
L 106.298182 292.829538 
L 109.905455 292.501333 
L 113.512727 292.165753 
L 117.12 291.822545 
L 120.727273 291.471448 
L 124.334545 291.112186 
L 127.941818 290.744471 
L 131.549091 290.368 
L 135.156364 289.982458 
L 138.763636 289.587512 
L 142.370909 289.182815 
L 145.978182 288.768 
L 149.585455 288.342684 
L 153.192727 287.906462 
L 156.8 287.458909 
L 160.407273 286.999579 
L 164.014545 286.528 
L 167.621818 286.043676 
L 171.229091 285.546082 
L 174.836364 285.034667 
L 178.443636 284.508845 
L 182.050909 283.968 
L 185.658182 283.411478 
L 189.265455 282.838588 
L 192.872727 282.248597 
L 196.48 281.640727 
L 200.087273 281.014154 
L 203.694545 280.368 
L 207.301818 279.701333 
L 210.909091 279.013161 
L 214.516364 278.302426 
L 218.123636 277.568 
L 221.730909 276.808678 
L 225.338182 276.023172 
L 228.945455 275.210105 
L 232.552727 274.368 
L 236.16 273.495273 
L 239.767273 272.590222 
L 243.374545 271.651019 
L 246.981818 270.675692 
L 250.589091 269.662118 
L 254.196364 268.608 
L 257.803636 267.510857 
L 261.410909 266.368 
L 265.018182 265.176511 
L 268.625455 263.933217 
L 272.232727 262.634667 
L 275.84 261.277091 
L 279.447273 259.856372 
L 283.054545 258.368 
L 286.661818 256.807024 
L 290.269091 255.168 
L 293.876364 253.444923 
L 297.483636 251.631158 
L 301.090909 249.719351 
L 304.698182 247.701333 
L 308.305455 245.568 
L 311.912727 243.309176 
L 315.52 240.913455 
L 319.127273 238.368 
L 322.734545 235.658323 
L 326.341818 232.768 
L 329.949091 229.678345 
L 333.556364 226.368 
L 337.163636 222.812444 
L 340.770909 218.983385 
L 344.378182 214.848 
L 347.985455 210.368 
L 351.592727 205.498435 
L 355.2 200.186182 
L 358.807273 194.368 
L 362.414545 187.968 
L 366.021818 180.894316 
L 369.629091 173.034667 
L 373.236364 164.250353 
L 376.843636 154.368 
L 380.450909 143.168 
L 384.058182 130.368 
L 387.665455 115.598769 
L 391.272727 98.368 
L 394.88 78.004364 
L 398.487273 53.568 
" style="fill:none;stroke:#e377c2;stroke-linecap:square;stroke-width:1.5;"/>
   </g>
   <g id="patch_3">
    <path d="M 57.6 307.584 
L 57.6 41.472 
" style="fill:none;stroke:#000000;stroke-linecap:square;stroke-linejoin:miter;stroke-width:0.8;"/>
   </g>
   <g id="patch_4">
    <path d="M 414.72 307.584 
L 414.72 41.472 
" style="fill:none;stroke:#000000;stroke-linecap:square;stroke-linejoin:miter;stroke-width:0.8;"/>
   </g>
   <g id="patch_5">
    <path d="M 57.6 307.584 
L 414.72 307.584 
" style="fill:none;stroke:#000000;stroke-linecap:square;stroke-linejoin:miter;stroke-width:0.8;"/>
   </g>
   <g id="patch_6">
    <path d="M 57.6 41.472 
L 414.72 41.472 
" style="fill:none;stroke:#000000;stroke-linecap:square;stroke-linejoin:miter;stroke-width:0.8;"/>
   </g>
   <g id="text_14">
    <!-- Förklarad andel av riskreduktion -->
    <defs>
     <path d="M 9.8125 72.90625 
L 51.703125 72.90625 
L 51.703125 64.59375 
L 19.671875 64.59375 
L 19.671875 43.109375 
L 48.578125 43.109375 
L 48.578125 34.8125 
L 19.671875 34.8125 
L 19.671875 0 
L 9.8125 0 
z
" id="DejaVuSans-46"/>
     <path d="M 9.078125 75.984375 
L 18.109375 75.984375 
L 18.109375 31.109375 
L 44.921875 54.6875 
L 56.390625 54.6875 
L 27.390625 29.109375 
L 57.625 0 
L 45.90625 0 
L 18.109375 26.703125 
L 18.109375 0 
L 9.078125 0 
z
" id="DejaVuSans-6b"/>
     <path d="M 9.421875 75.984375 
L 18.40625 75.984375 
L 18.40625 0 
L 9.421875 0 
z
" id="DejaVuSans-6c"/>
     <path d="M 34.28125 27.484375 
Q 23.390625 27.484375 19.1875 25 
Q 14.984375 22.515625 14.984375 16.5 
Q 14.984375 11.71875 18.140625 8.90625 
Q 21.296875 6.109375 26.703125 6.109375 
Q 34.1875 6.109375 38.703125 11.40625 
Q 43.21875 16.703125 43.21875 25.484375 
L 43.21875 27.484375 
z
M 52.203125 31.203125 
L 52.203125 0 
L 43.21875 0 
L 43.21875 8.296875 
Q 40.140625 3.328125 35.546875 0.953125 
Q 30.953125 -1.421875 24.3125 -1.421875 
Q 15.921875 -1.421875 10.953125 3.296875 
Q 6 8.015625 6 15.921875 
Q 6 25.140625 12.171875 29.828125 
Q 18.359375 34.515625 30.609375 34.515625 
L 43.21875 34.515625 
L 43.21875 35.40625 
Q 43.21875 41.609375 39.140625 45 
Q 35.0625 48.390625 27.6875 48.390625 
Q 23 48.390625 18.546875 47.265625 
Q 14.109375 46.140625 10.015625 43.890625 
L 10.015625 52.203125 
Q 14.9375 54.109375 19.578125 55.046875 
Q 24.21875 56 28.609375 56 
Q 40.484375 56 46.34375 49.84375 
Q 52.203125 43.703125 52.203125 31.203125 
" id="DejaVuSans-61"/>
     <path d="M 45.40625 46.390625 
L 45.40625 75.984375 
L 54.390625 75.984375 
L 54.390625 0 
L 45.40625 0 
L 45.40625 8.203125 
Q 42.578125 3.328125 38.25 0.953125 
Q 33.9375 -1.421875 27.875 -1.421875 
Q 17.96875 -1.421875 11.734375 6.484375 
Q 5.515625 14.40625 5.515625 27.296875 
Q 5.515625 40.1875 11.734375 48.09375 
Q 17.96875 56 27.875 56 
Q 33.9375 56 38.25 53.625 
Q 42.578125 51.265625 45.40625 46.390625 
M 14.796875 27.296875 
Q 14.796875 17.390625 18.875 11.75 
Q 22.953125 6.109375 30.078125 6.109375 
Q 37.203125 6.109375 41.296875 11.75 
Q 45.40625 17.390625 45.40625 27.296875 
Q 45.40625 37.203125 41.296875 42.84375 
Q 37.203125 48.484375 30.078125 48.484375 
Q 22.953125 48.484375 18.875 42.84375 
Q 14.796875 37.203125 14.796875 27.296875 
" id="DejaVuSans-64"/>
     <path d="M 54.890625 33.015625 
L 54.890625 0 
L 45.90625 0 
L 45.90625 32.71875 
Q 45.90625 40.484375 42.875 44.328125 
Q 39.84375 48.1875 33.796875 48.1875 
Q 26.515625 48.1875 22.3125 43.546875 
Q 18.109375 38.921875 18.109375 30.90625 
L 18.109375 0 
L 9.078125 0 
L 9.078125 54.6875 
L 18.109375 54.6875 
L 18.109375 46.1875 
Q 21.34375 51.125 25.703125 53.5625 
Q 30.078125 56 35.796875 56 
Q 45.21875 56 50.046875 50.171875 
Q 54.890625 44.34375 54.890625 33.015625 
" id="DejaVuSans-6e"/>
     <path d="M 9.421875 54.6875 
L 18.40625 54.6875 
L 18.40625 0 
L 9.421875 0 
z
M 9.421875 75.984375 
L 18.40625 75.984375 
L 18.40625 64.59375 
L 9.421875 64.59375 
z
" id="DejaVuSans-69"/>
     <path d="M 44.28125 53.078125 
L 44.28125 44.578125 
Q 40.484375 46.53125 36.375 47.5 
Q 32.28125 48.484375 27.875 48.484375 
Q 21.1875 48.484375 17.84375 46.4375 
Q 14.5 44.390625 14.5 40.28125 
Q 14.5 37.15625 16.890625 35.375 
Q 19.28125 33.59375 26.515625 31.984375 
L 29.59375 31.296875 
Q 39.15625 29.25 43.1875 25.515625 
Q 47.21875 21.78125 47.21875 15.09375 
Q 47.21875 7.46875 41.1875 3.015625 
Q 35.15625 -1.421875 24.609375 -1.421875 
Q 20.21875 -1.421875 15.453125 -0.5625 
Q 10.6875 0.296875 5.421875 2 
L 5.421875 11.28125 
Q 10.40625 8.6875 15.234375 7.390625 
Q 20.0625 6.109375 24.8125 6.109375 
Q 31.15625 6.109375 34.5625 8.28125 
Q 37.984375 10.453125 37.984375 14.40625 
Q 37.984375 18.0625 35.515625 20.015625 
Q 33.0625 21.96875 24.703125 23.78125 
L 21.578125 24.515625 
Q 13.234375 26.265625 9.515625 29.90625 
Q 5.8125 33.546875 5.8125 39.890625 
Q 5.8125 47.609375 11.28125 51.796875 
Q 16.75 56 26.8125 56 
Q 31.78125 56 36.171875 55.265625 
Q 40.578125 54.546875 44.28125 53.078125 
" id="DejaVuSans-73"/>
     <path d="M 8.5 21.578125 
L 8.5 54.6875 
L 17.484375 54.6875 
L 17.484375 21.921875 
Q 17.484375 14.15625 20.5 10.265625 
Q 23.53125 6.390625 29.59375 6.390625 
Q 36.859375 6.390625 41.078125 11.03125 
Q 45.3125 15.671875 45.3125 23.6875 
L 45.3125 54.6875 
L 54.296875 54.6875 
L 54.296875 0 
L 45.3125 0 
L 45.3125 8.40625 
Q 42.046875 3.421875 37.71875 1 
Q 33.40625 -1.421875 27.6875 -1.421875 
Q 18.265625 -1.421875 13.375 4.4375 
Q 8.5 10.296875 8.5 21.578125 
M 31.109375 56 
z
" id="DejaVuSans-75"/>
     <path d="M 18.3125 70.21875 
L 18.3125 54.6875 
L 36.8125 54.6875 
L 36.8125 47.703125 
L 18.3125 47.703125 
L 18.3125 18.015625 
Q 18.3125 11.328125 20.140625 9.421875 
Q 21.96875 7.515625 27.59375 7.515625 
L 36.8125 7.515625 
L 36.8125 0 
L 27.59375 0 
Q 17.1875 0 13.234375 3.875 
Q 9.28125 7.765625 9.28125 18.015625 
L 9.28125 47.703125 
L 2.6875 47.703125 
L 2.6875 54.6875 
L 9.28125 54.6875 
L 9.28125 70.21875 
z
" id="DejaVuSans-74"/>
     <path d="M 30.609375 48.390625 
Q 23.390625 48.390625 19.1875 42.75 
Q 14.984375 37.109375 14.984375 27.296875 
Q 14.984375 17.484375 19.15625 11.84375 
Q 23.34375 6.203125 30.609375 6.203125 
Q 37.796875 6.203125 41.984375 11.859375 
Q 46.1875 17.53125 46.1875 27.296875 
Q 46.1875 37.015625 41.984375 42.703125 
Q 37.796875 48.390625 30.609375 48.390625 
M 30.609375 56 
Q 42.328125 56 49.015625 48.375 
Q 55.71875 40.765625 55.71875 27.296875 
Q 55.71875 13.875 49.015625 6.21875 
Q 42.328125 -1.421875 30.609375 -1.421875 
Q 18.84375 -1.421875 12.171875 6.21875 
Q 5.515625 13.875 5.515625 27.296875 
Q 5.515625 40.765625 12.171875 48.375 
Q 18.84375 56 30.609375 56 
" id="DejaVuSans-6f"/>
    </defs>
    <g transform="translate(138.73875 35.472)scale(0.12 -0.12)">
     <use xlink:href="#DejaVuSans-46"/>
     <use x="57.472656" xlink:href="#DejaVuSans-f6"/>
     <use x="118.654297" xlink:href="#DejaVuSans-72"/>
     <use x="159.767578" xlink:href="#DejaVuSans-6b"/>
     <use x="217.677734" xlink:href="#DejaVuSans-6c"/>
     <use x="245.460938" xlink:href="#DejaVuSans-61"/>
     <use x="306.740234" xlink:href="#DejaVuSans-72"/>
     <use x="347.853516" xlink:href="#DejaVuSans-61"/>
     <use x="409.132812" xlink:href="#DejaVuSans-64"/>
     <use x="472.609375" xlink:href="#DejaVuSans-20"/>
     <use x="504.396484" xlink:href="#DejaVuSans-61"/>
     <use x="565.675781" xlink:href="#DejaVuSans-6e"/>
     <use x="629.054688" xlink:href="#DejaVuSans-64"/>
     <use x="692.53125" xlink:href="#DejaVuSans-65"/>
     <use x="754.054688" xlink:href="#DejaVuSans-6c"/>
     <use x="781.837891" xlink:href="#DejaVuSans-20"/>
     <use x="813.625" xlink:href="#DejaVuSans-61"/>
     <use x="874.904297" xlink:href="#DejaVuSans-76"/>
     <use x="934.083984" xlink:href="#DejaVuSans-20"/>
     <use x="965.871094" xlink:href="#DejaVuSans-72"/>
     <use x="1006.984375" xlink:href="#DejaVuSans-69"/>
     <use x="1034.767578" xlink:href="#DejaVuSans-73"/>
     <use x="1086.867188" xlink:href="#DejaVuSans-6b"/>
     <use x="1144.777344" xlink:href="#DejaVuSans-72"/>
     <use x="1185.859375" xlink:href="#DejaVuSans-65"/>
     <use x="1247.382812" xlink:href="#DejaVuSans-64"/>
     <use x="1310.859375" xlink:href="#DejaVuSans-75"/>
     <use x="1374.238281" xlink:href="#DejaVuSans-6b"/>
     <use x="1432.148438" xlink:href="#DejaVuSans-74"/>
     <use x="1471.357422" xlink:href="#DejaVuSans-69"/>
     <use x="1499.140625" xlink:href="#DejaVuSans-6f"/>
     <use x="1560.322266" xlink:href="#DejaVuSans-6e"/>
    </g>
   </g>
  </g>
 </g>
 <defs>
  <clipPath id="p7d71325df8">
   <rect height="266.112" width="357.12" x="57.6" y="41.472"/>
  </clipPath>
 </defs>
</svg>
