<?xml version="1.0" encoding="utf-8" standalone="no"?>
<!DOCTYPE svg PUBLIC "-//W3C//DTD SVG 1.1//EN"
  "http://www.w3.org/Graphics/SVG/1.1/DTD/svg11.dtd">
<!-- Created with matplotlib (http://matplotlib.org/) -->
<svg height="345pt" version="1.1" viewBox="0 0 460 345" width="460pt" xmlns="http://www.w3.org/2000/svg" xmlns:xlink="http://www.w3.org/1999/xlink">
 <defs>
  <style type="text/css">
*{stroke-linecap:butt;stroke-linejoin:round;}
  </style>
 </defs>
 <g id="figure_1">
  <g id="patch_1">
   <path d="M 0 345.6 
L 460.8 345.6 
L 460.8 0 
L 0 0 
z
" style="fill:#ffffff;"/>
  </g>
  <g id="axes_1">
   <g id="patch_2">
    <path d="M 57.6 307.584 
L 414.72 307.584 
L 414.72 41.472 
L 57.6 41.472 
z
" style="fill:#ffffff;"/>
   </g>
   <g id="matplotlib.axis_1">
    <g id="xtick_1">
     <g id="line2d_1">
      <path clip-path="url(#p4b8252b39d)" d="M 94.123636 307.584 
L 94.123636 41.472 
" style="fill:none;stroke:#b0b0b0;stroke-linecap:square;stroke-width:0.8;"/>
     </g>
     <g id="line2d_2">
      <defs>
       <path d="M 0 0 
L 0 3.5 
" id="m7746fc3834" style="stroke:#000000;stroke-width:0.8;"/>
      </defs>
      <g>
       <use style="stroke:#000000;stroke-width:0.8;" x="94.123636" xlink:href="#m7746fc3834" y="307.584"/>
      </g>
     </g>
     <g id="text_1">
      <!-- 10 -->
      <defs>
       <path d="M 12.40625 8.296875 
L 28.515625 8.296875 
L 28.515625 63.921875 
L 10.984375 60.40625 
L 10.984375 69.390625 
L 28.421875 72.90625 
L 38.28125 72.90625 
L 38.28125 8.296875 
L 54.390625 8.296875 
L 54.390625 0 
L 12.40625 0 
z
" id="DejaVuSans-31"/>
       <path d="M 31.78125 66.40625 
Q 24.171875 66.40625 20.328125 58.90625 
Q 16.5 51.421875 16.5 36.375 
Q 16.5 21.390625 20.328125 13.890625 
Q 24.171875 6.390625 31.78125 6.390625 
Q 39.453125 6.390625 43.28125 13.890625 
Q 47.125 21.390625 47.125 36.375 
Q 47.125 51.421875 43.28125 58.90625 
Q 39.453125 66.40625 31.78125 66.40625 
M 31.78125 74.21875 
Q 44.046875 74.21875 50.515625 64.515625 
Q 56.984375 54.828125 56.984375 36.375 
Q 56.984375 17.96875 50.515625 8.265625 
Q 44.046875 -1.421875 31.78125 -1.421875 
Q 19.53125 -1.421875 13.0625 8.265625 
Q 6.59375 17.96875 6.59375 36.375 
Q 6.59375 54.828125 13.0625 64.515625 
Q 19.53125 74.21875 31.78125 74.21875 
" id="DejaVuSans-30"/>
      </defs>
      <g transform="translate(87.761136 322.182437)scale(0.1 -0.1)">
       <use xlink:href="#DejaVuSans-31"/>
       <use x="63.623047" xlink:href="#DejaVuSans-30"/>
      </g>
     </g>
    </g>
    <g id="xtick_2">
     <g id="line2d_3">
      <path clip-path="url(#p4b8252b39d)" d="M 134.705455 307.584 
L 134.705455 41.472 
" style="fill:none;stroke:#b0b0b0;stroke-linecap:square;stroke-width:0.8;"/>
     </g>
     <g id="line2d_4">
      <g>
       <use style="stroke:#000000;stroke-width:0.8;" x="134.705455" xlink:href="#m7746fc3834" y="307.584"/>
      </g>
     </g>
     <g id="text_2">
      <!-- 20 -->
      <defs>
       <path d="M 19.1875 8.296875 
L 53.609375 8.296875 
L 53.609375 0 
L 7.328125 0 
L 7.328125 8.296875 
Q 12.9375 14.109375 22.625 23.890625 
Q 32.328125 33.6875 34.8125 36.53125 
Q 39.546875 41.84375 41.421875 45.53125 
Q 43.3125 49.21875 43.3125 52.78125 
Q 43.3125 58.59375 39.234375 62.25 
Q 35.15625 65.921875 28.609375 65.921875 
Q 23.96875 65.921875 18.8125 64.3125 
Q 13.671875 62.703125 7.8125 59.421875 
L 7.8125 69.390625 
Q 13.765625 71.78125 18.9375 73 
Q 24.125 74.21875 28.421875 74.21875 
Q 39.75 74.21875 46.484375 68.546875 
Q 53.21875 62.890625 53.21875 53.421875 
Q 53.21875 48.921875 51.53125 44.890625 
Q 49.859375 40.875 45.40625 35.40625 
Q 44.1875 33.984375 37.640625 27.21875 
Q 31.109375 20.453125 19.1875 8.296875 
" id="DejaVuSans-32"/>
      </defs>
      <g transform="translate(128.342955 322.182437)scale(0.1 -0.1)">
       <use xlink:href="#DejaVuSans-32"/>
       <use x="63.623047" xlink:href="#DejaVuSans-30"/>
      </g>
     </g>
    </g>
    <g id="xtick_3">
     <g id="line2d_5">
      <path clip-path="url(#p4b8252b39d)" d="M 175.287273 307.584 
L 175.287273 41.472 
" style="fill:none;stroke:#b0b0b0;stroke-linecap:square;stroke-width:0.8;"/>
     </g>
     <g id="line2d_6">
      <g>
       <use style="stroke:#000000;stroke-width:0.8;" x="175.287273" xlink:href="#m7746fc3834" y="307.584"/>
      </g>
     </g>
     <g id="text_3">
      <!-- 30 -->
      <defs>
       <path d="M 40.578125 39.3125 
Q 47.65625 37.796875 51.625 33 
Q 55.609375 28.21875 55.609375 21.1875 
Q 55.609375 10.40625 48.1875 4.484375 
Q 40.765625 -1.421875 27.09375 -1.421875 
Q 22.515625 -1.421875 17.65625 -0.515625 
Q 12.796875 0.390625 7.625 2.203125 
L 7.625 11.71875 
Q 11.71875 9.328125 16.59375 8.109375 
Q 21.484375 6.890625 26.8125 6.890625 
Q 36.078125 6.890625 40.9375 10.546875 
Q 45.796875 14.203125 45.796875 21.1875 
Q 45.796875 27.640625 41.28125 31.265625 
Q 36.765625 34.90625 28.71875 34.90625 
L 20.21875 34.90625 
L 20.21875 43.015625 
L 29.109375 43.015625 
Q 36.375 43.015625 40.234375 45.921875 
Q 44.09375 48.828125 44.09375 54.296875 
Q 44.09375 59.90625 40.109375 62.90625 
Q 36.140625 65.921875 28.71875 65.921875 
Q 24.65625 65.921875 20.015625 65.03125 
Q 15.375 64.15625 9.8125 62.3125 
L 9.8125 71.09375 
Q 15.4375 72.65625 20.34375 73.4375 
Q 25.25 74.21875 29.59375 74.21875 
Q 40.828125 74.21875 47.359375 69.109375 
Q 53.90625 64.015625 53.90625 55.328125 
Q 53.90625 49.265625 50.4375 45.09375 
Q 46.96875 40.921875 40.578125 39.3125 
" id="DejaVuSans-33"/>
      </defs>
      <g transform="translate(168.924773 322.182437)scale(0.1 -0.1)">
       <use xlink:href="#DejaVuSans-33"/>
       <use x="63.623047" xlink:href="#DejaVuSans-30"/>
      </g>
     </g>
    </g>
    <g id="xtick_4">
     <g id="line2d_7">
      <path clip-path="url(#p4b8252b39d)" d="M 215.869091 307.584 
L 215.869091 41.472 
" style="fill:none;stroke:#b0b0b0;stroke-linecap:square;stroke-width:0.8;"/>
     </g>
     <g id="line2d_8">
      <g>
       <use style="stroke:#000000;stroke-width:0.8;" x="215.869091" xlink:href="#m7746fc3834" y="307.584"/>
      </g>
     </g>
     <g id="text_4">
      <!-- 40 -->
      <defs>
       <path d="M 37.796875 64.3125 
L 12.890625 25.390625 
L 37.796875 25.390625 
z
M 35.203125 72.90625 
L 47.609375 72.90625 
L 47.609375 25.390625 
L 58.015625 25.390625 
L 58.015625 17.1875 
L 47.609375 17.1875 
L 47.609375 0 
L 37.796875 0 
L 37.796875 17.1875 
L 4.890625 17.1875 
L 4.890625 26.703125 
z
" id="DejaVuSans-34"/>
      </defs>
      <g transform="translate(209.506591 322.182437)scale(0.1 -0.1)">
       <use xlink:href="#DejaVuSans-34"/>
       <use x="63.623047" xlink:href="#DejaVuSans-30"/>
      </g>
     </g>
    </g>
    <g id="xtick_5">
     <g id="line2d_9">
      <path clip-path="url(#p4b8252b39d)" d="M 256.450909 307.584 
L 256.450909 41.472 
" style="fill:none;stroke:#b0b0b0;stroke-linecap:square;stroke-width:0.8;"/>
     </g>
     <g id="line2d_10">
      <g>
       <use style="stroke:#000000;stroke-width:0.8;" x="256.450909" xlink:href="#m7746fc3834" y="307.584"/>
      </g>
     </g>
     <g id="text_5">
      <!-- 50 -->
      <defs>
       <path d="M 10.796875 72.90625 
L 49.515625 72.90625 
L 49.515625 64.59375 
L 19.828125 64.59375 
L 19.828125 46.734375 
Q 21.96875 47.46875 24.109375 47.828125 
Q 26.265625 48.1875 28.421875 48.1875 
Q 40.625 48.1875 47.75 41.5 
Q 54.890625 34.8125 54.890625 23.390625 
Q 54.890625 11.625 47.5625 5.09375 
Q 40.234375 -1.421875 26.90625 -1.421875 
Q 22.3125 -1.421875 17.546875 -0.640625 
Q 12.796875 0.140625 7.71875 1.703125 
L 7.71875 11.625 
Q 12.109375 9.234375 16.796875 8.0625 
Q 21.484375 6.890625 26.703125 6.890625 
Q 35.15625 6.890625 40.078125 11.328125 
Q 45.015625 15.765625 45.015625 23.390625 
Q 45.015625 31 40.078125 35.4375 
Q 35.15625 39.890625 26.703125 39.890625 
Q 22.75 39.890625 18.8125 39.015625 
Q 14.890625 38.140625 10.796875 36.28125 
z
" id="DejaVuSans-35"/>
      </defs>
      <g transform="translate(250.088409 322.182437)scale(0.1 -0.1)">
       <use xlink:href="#DejaVuSans-35"/>
       <use x="63.623047" xlink:href="#DejaVuSans-30"/>
      </g>
     </g>
    </g>
    <g id="xtick_6">
     <g id="line2d_11">
      <path clip-path="url(#p4b8252b39d)" d="M 297.032727 307.584 
L 297.032727 41.472 
" style="fill:none;stroke:#b0b0b0;stroke-linecap:square;stroke-width:0.8;"/>
     </g>
     <g id="line2d_12">
      <g>
       <use style="stroke:#000000;stroke-width:0.8;" x="297.032727" xlink:href="#m7746fc3834" y="307.584"/>
      </g>
     </g>
     <g id="text_6">
      <!-- 60 -->
      <defs>
       <path d="M 33.015625 40.375 
Q 26.375 40.375 22.484375 35.828125 
Q 18.609375 31.296875 18.609375 23.390625 
Q 18.609375 15.53125 22.484375 10.953125 
Q 26.375 6.390625 33.015625 6.390625 
Q 39.65625 6.390625 43.53125 10.953125 
Q 47.40625 15.53125 47.40625 23.390625 
Q 47.40625 31.296875 43.53125 35.828125 
Q 39.65625 40.375 33.015625 40.375 
M 52.59375 71.296875 
L 52.59375 62.3125 
Q 48.875 64.0625 45.09375 64.984375 
Q 41.3125 65.921875 37.59375 65.921875 
Q 27.828125 65.921875 22.671875 59.328125 
Q 17.53125 52.734375 16.796875 39.40625 
Q 19.671875 43.65625 24.015625 45.921875 
Q 28.375 48.1875 33.59375 48.1875 
Q 44.578125 48.1875 50.953125 41.515625 
Q 57.328125 34.859375 57.328125 23.390625 
Q 57.328125 12.15625 50.6875 5.359375 
Q 44.046875 -1.421875 33.015625 -1.421875 
Q 20.359375 -1.421875 13.671875 8.265625 
Q 6.984375 17.96875 6.984375 36.375 
Q 6.984375 53.65625 15.1875 63.9375 
Q 23.390625 74.21875 37.203125 74.21875 
Q 40.921875 74.21875 44.703125 73.484375 
Q 48.484375 72.75 52.59375 71.296875 
" id="DejaVuSans-36"/>
      </defs>
      <g transform="translate(290.670227 322.182437)scale(0.1 -0.1)">
       <use xlink:href="#DejaVuSans-36"/>
       <use x="63.623047" xlink:href="#DejaVuSans-30"/>
      </g>
     </g>
    </g>
    <g id="xtick_7">
     <g id="line2d_13">
      <path clip-path="url(#p4b8252b39d)" d="M 337.614545 307.584 
L 337.614545 41.472 
" style="fill:none;stroke:#b0b0b0;stroke-linecap:square;stroke-width:0.8;"/>
     </g>
     <g id="line2d_14">
      <g>
       <use style="stroke:#000000;stroke-width:0.8;" x="337.614545" xlink:href="#m7746fc3834" y="307.584"/>
      </g>
     </g>
     <g id="text_7">
      <!-- 70 -->
      <defs>
       <path d="M 8.203125 72.90625 
L 55.078125 72.90625 
L 55.078125 68.703125 
L 28.609375 0 
L 18.3125 0 
L 43.21875 64.59375 
L 8.203125 64.59375 
z
" id="DejaVuSans-37"/>
      </defs>
      <g transform="translate(331.252045 322.182437)scale(0.1 -0.1)">
       <use xlink:href="#DejaVuSans-37"/>
       <use x="63.623047" xlink:href="#DejaVuSans-30"/>
      </g>
     </g>
    </g>
    <g id="xtick_8">
     <g id="line2d_15">
      <path clip-path="url(#p4b8252b39d)" d="M 378.196364 307.584 
L 378.196364 41.472 
" style="fill:none;stroke:#b0b0b0;stroke-linecap:square;stroke-width:0.8;"/>
     </g>
     <g id="line2d_16">
      <g>
       <use style="stroke:#000000;stroke-width:0.8;" x="378.196364" xlink:href="#m7746fc3834" y="307.584"/>
      </g>
     </g>
     <g id="text_8">
      <!-- 80 -->
      <defs>
       <path d="M 31.78125 34.625 
Q 24.75 34.625 20.71875 30.859375 
Q 16.703125 27.09375 16.703125 20.515625 
Q 16.703125 13.921875 20.71875 10.15625 
Q 24.75 6.390625 31.78125 6.390625 
Q 38.8125 6.390625 42.859375 10.171875 
Q 46.921875 13.96875 46.921875 20.515625 
Q 46.921875 27.09375 42.890625 30.859375 
Q 38.875 34.625 31.78125 34.625 
M 21.921875 38.8125 
Q 15.578125 40.375 12.03125 44.71875 
Q 8.5 49.078125 8.5 55.328125 
Q 8.5 64.0625 14.71875 69.140625 
Q 20.953125 74.21875 31.78125 74.21875 
Q 42.671875 74.21875 48.875 69.140625 
Q 55.078125 64.0625 55.078125 55.328125 
Q 55.078125 49.078125 51.53125 44.71875 
Q 48 40.375 41.703125 38.8125 
Q 48.828125 37.15625 52.796875 32.3125 
Q 56.78125 27.484375 56.78125 20.515625 
Q 56.78125 9.90625 50.3125 4.234375 
Q 43.84375 -1.421875 31.78125 -1.421875 
Q 19.734375 -1.421875 13.25 4.234375 
Q 6.78125 9.90625 6.78125 20.515625 
Q 6.78125 27.484375 10.78125 32.3125 
Q 14.796875 37.15625 21.921875 38.8125 
M 18.3125 54.390625 
Q 18.3125 48.734375 21.84375 45.5625 
Q 25.390625 42.390625 31.78125 42.390625 
Q 38.140625 42.390625 41.71875 45.5625 
Q 45.3125 48.734375 45.3125 54.390625 
Q 45.3125 60.0625 41.71875 63.234375 
Q 38.140625 66.40625 31.78125 66.40625 
Q 25.390625 66.40625 21.84375 63.234375 
Q 18.3125 60.0625 18.3125 54.390625 
" id="DejaVuSans-38"/>
      </defs>
      <g transform="translate(371.833864 322.182437)scale(0.1 -0.1)">
       <use xlink:href="#DejaVuSans-38"/>
       <use x="63.623047" xlink:href="#DejaVuSans-30"/>
      </g>
     </g>
    </g>
    <g id="text_9">
     <!-- Ålder -->
     <defs>
      <path d="M 41.609375 79.390625 
Q 41.609375 82.46875 39.421875 84.640625 
Q 37.25 86.8125 34.1875 86.8125 
Q 31.0625 86.8125 28.9375 84.6875 
Q 26.8125 82.5625 26.8125 79.390625 
Q 26.8125 76.3125 28.953125 74.15625 
Q 31.109375 72.015625 34.1875 72.015625 
Q 37.25 72.015625 39.421875 74.15625 
Q 41.609375 76.3125 41.609375 79.390625 
M 34.1875 63.1875 
L 20.90625 26.90625 
L 47.515625 26.90625 
z
M 26.8125 68.21875 
Q 23.828125 70.21875 22.3125 73.015625 
Q 20.796875 75.828125 20.796875 79.390625 
Q 20.796875 85.015625 24.671875 88.921875 
Q 28.5625 92.828125 34.1875 92.828125 
Q 39.75 92.828125 43.671875 88.890625 
Q 47.609375 84.96875 47.609375 79.390625 
Q 47.609375 75.984375 46.0625 73.09375 
Q 44.53125 70.21875 41.609375 68.21875 
L 67.578125 0 
L 57.328125 0 
L 50.6875 18.703125 
L 17.828125 18.703125 
L 11.1875 0 
L 0.78125 0 
z
" id="DejaVuSans-c5"/>
      <path d="M 9.421875 75.984375 
L 18.40625 75.984375 
L 18.40625 0 
L 9.421875 0 
z
" id="DejaVuSans-6c"/>
      <path d="M 45.40625 46.390625 
L 45.40625 75.984375 
L 54.390625 75.984375 
L 54.390625 0 
L 45.40625 0 
L 45.40625 8.203125 
Q 42.578125 3.328125 38.25 0.953125 
Q 33.9375 -1.421875 27.875 -1.421875 
Q 17.96875 -1.421875 11.734375 6.484375 
Q 5.515625 14.40625 5.515625 27.296875 
Q 5.515625 40.1875 11.734375 48.09375 
Q 17.96875 56 27.875 56 
Q 33.9375 56 38.25 53.625 
Q 42.578125 51.265625 45.40625 46.390625 
M 14.796875 27.296875 
Q 14.796875 17.390625 18.875 11.75 
Q 22.953125 6.109375 30.078125 6.109375 
Q 37.203125 6.109375 41.296875 11.75 
Q 45.40625 17.390625 45.40625 27.296875 
Q 45.40625 37.203125 41.296875 42.84375 
Q 37.203125 48.484375 30.078125 48.484375 
Q 22.953125 48.484375 18.875 42.84375 
Q 14.796875 37.203125 14.796875 27.296875 
" id="DejaVuSans-64"/>
      <path d="M 56.203125 29.59375 
L 56.203125 25.203125 
L 14.890625 25.203125 
Q 15.484375 15.921875 20.484375 11.0625 
Q 25.484375 6.203125 34.421875 6.203125 
Q 39.59375 6.203125 44.453125 7.46875 
Q 49.3125 8.734375 54.109375 11.28125 
L 54.109375 2.78125 
Q 49.265625 0.734375 44.1875 -0.34375 
Q 39.109375 -1.421875 33.890625 -1.421875 
Q 20.796875 -1.421875 13.15625 6.1875 
Q 5.515625 13.8125 5.515625 26.8125 
Q 5.515625 40.234375 12.765625 48.109375 
Q 20.015625 56 32.328125 56 
Q 43.359375 56 49.78125 48.890625 
Q 56.203125 41.796875 56.203125 29.59375 
M 47.21875 32.234375 
Q 47.125 39.59375 43.09375 43.984375 
Q 39.0625 48.390625 32.421875 48.390625 
Q 24.90625 48.390625 20.390625 44.140625 
Q 15.875 39.890625 15.1875 32.171875 
z
" id="DejaVuSans-65"/>
      <path d="M 41.109375 46.296875 
Q 39.59375 47.171875 37.8125 47.578125 
Q 36.03125 48 33.890625 48 
Q 26.265625 48 22.1875 43.046875 
Q 18.109375 38.09375 18.109375 28.8125 
L 18.109375 0 
L 9.078125 0 
L 9.078125 54.6875 
L 18.109375 54.6875 
L 18.109375 46.1875 
Q 20.953125 51.171875 25.484375 53.578125 
Q 30.03125 56 36.53125 56 
Q 37.453125 56 38.578125 55.875 
Q 39.703125 55.765625 41.0625 55.515625 
z
" id="DejaVuSans-72"/>
     </defs>
     <g transform="translate(223.044375 335.860562)scale(0.1 -0.1)">
      <use xlink:href="#DejaVuSans-c5"/>
      <use x="68.408203" xlink:href="#DejaVuSans-6c"/>
      <use x="96.191406" xlink:href="#DejaVuSans-64"/>
      <use x="159.667969" xlink:href="#DejaVuSans-65"/>
      <use x="221.191406" xlink:href="#DejaVuSans-72"/>
     </g>
    </g>
   </g>
   <g id="matplotlib.axis_2">
    <g id="ytick_1">
     <g id="line2d_17">
      <path clip-path="url(#p4b8252b39d)" d="M 57.6 295.510403 
L 414.72 295.510403 
" style="fill:none;stroke:#b0b0b0;stroke-linecap:square;stroke-width:0.8;"/>
     </g>
     <g id="line2d_18">
      <defs>
       <path d="M 0 0 
L -3.5 0 
" id="m4a552a9859" style="stroke:#000000;stroke-width:0.8;"/>
      </defs>
      <g>
       <use style="stroke:#000000;stroke-width:0.8;" x="57.6" xlink:href="#m4a552a9859" y="295.510403"/>
      </g>
     </g>
     <g id="text_10">
      <!-- 0,80 -->
      <defs>
       <path d="M 11.71875 12.40625 
L 22.015625 12.40625 
L 22.015625 4 
L 14.015625 -11.625 
L 7.71875 -11.625 
L 11.71875 4 
z
" id="DejaVuSans-2c"/>
      </defs>
      <g transform="translate(28.334375 299.309622)scale(0.1 -0.1)">
       <use xlink:href="#DejaVuSans-30"/>
       <use x="63.623047" xlink:href="#DejaVuSans-2c"/>
       <use x="95.410156" xlink:href="#DejaVuSans-38"/>
       <use x="159.033203" xlink:href="#DejaVuSans-30"/>
      </g>
     </g>
    </g>
    <g id="ytick_2">
     <g id="line2d_19">
      <path clip-path="url(#p4b8252b39d)" d="M 57.6 246.624778 
L 414.72 246.624778 
" style="fill:none;stroke:#b0b0b0;stroke-linecap:square;stroke-width:0.8;"/>
     </g>
     <g id="line2d_20">
      <g>
       <use style="stroke:#000000;stroke-width:0.8;" x="57.6" xlink:href="#m4a552a9859" y="246.624778"/>
      </g>
     </g>
     <g id="text_11">
      <!-- 0,82 -->
      <g transform="translate(28.334375 250.423997)scale(0.1 -0.1)">
       <use xlink:href="#DejaVuSans-30"/>
       <use x="63.623047" xlink:href="#DejaVuSans-2c"/>
       <use x="95.410156" xlink:href="#DejaVuSans-38"/>
       <use x="159.033203" xlink:href="#DejaVuSans-32"/>
      </g>
     </g>
    </g>
    <g id="ytick_3">
     <g id="line2d_21">
      <path clip-path="url(#p4b8252b39d)" d="M 57.6 197.739152 
L 414.72 197.739152 
" style="fill:none;stroke:#b0b0b0;stroke-linecap:square;stroke-width:0.8;"/>
     </g>
     <g id="line2d_22">
      <g>
       <use style="stroke:#000000;stroke-width:0.8;" x="57.6" xlink:href="#m4a552a9859" y="197.739152"/>
      </g>
     </g>
     <g id="text_12">
      <!-- 0,84 -->
      <g transform="translate(28.334375 201.538371)scale(0.1 -0.1)">
       <use xlink:href="#DejaVuSans-30"/>
       <use x="63.623047" xlink:href="#DejaVuSans-2c"/>
       <use x="95.410156" xlink:href="#DejaVuSans-38"/>
       <use x="159.033203" xlink:href="#DejaVuSans-34"/>
      </g>
     </g>
    </g>
    <g id="ytick_4">
     <g id="line2d_23">
      <path clip-path="url(#p4b8252b39d)" d="M 57.6 148.853527 
L 414.72 148.853527 
" style="fill:none;stroke:#b0b0b0;stroke-linecap:square;stroke-width:0.8;"/>
     </g>
     <g id="line2d_24">
      <g>
       <use style="stroke:#000000;stroke-width:0.8;" x="57.6" xlink:href="#m4a552a9859" y="148.853527"/>
      </g>
     </g>
     <g id="text_13">
      <!-- 0,86 -->
      <g transform="translate(28.334375 152.652746)scale(0.1 -0.1)">
       <use xlink:href="#DejaVuSans-30"/>
       <use x="63.623047" xlink:href="#DejaVuSans-2c"/>
       <use x="95.410156" xlink:href="#DejaVuSans-38"/>
       <use x="159.033203" xlink:href="#DejaVuSans-36"/>
      </g>
     </g>
    </g>
    <g id="ytick_5">
     <g id="line2d_25">
      <path clip-path="url(#p4b8252b39d)" d="M 57.6 99.967902 
L 414.72 99.967902 
" style="fill:none;stroke:#b0b0b0;stroke-linecap:square;stroke-width:0.8;"/>
     </g>
     <g id="line2d_26">
      <g>
       <use style="stroke:#000000;stroke-width:0.8;" x="57.6" xlink:href="#m4a552a9859" y="99.967902"/>
      </g>
     </g>
     <g id="text_14">
      <!-- 0,88 -->
      <g transform="translate(28.334375 103.76712)scale(0.1 -0.1)">
       <use xlink:href="#DejaVuSans-30"/>
       <use x="63.623047" xlink:href="#DejaVuSans-2c"/>
       <use x="95.410156" xlink:href="#DejaVuSans-38"/>
       <use x="159.033203" xlink:href="#DejaVuSans-38"/>
      </g>
     </g>
    </g>
    <g id="ytick_6">
     <g id="line2d_27">
      <path clip-path="url(#p4b8252b39d)" d="M 57.6 51.082276 
L 414.72 51.082276 
" style="fill:none;stroke:#b0b0b0;stroke-linecap:square;stroke-width:0.8;"/>
     </g>
     <g id="line2d_28">
      <g>
       <use style="stroke:#000000;stroke-width:0.8;" x="57.6" xlink:href="#m4a552a9859" y="51.082276"/>
      </g>
     </g>
     <g id="text_15">
      <!-- 0,90 -->
      <defs>
       <path d="M 10.984375 1.515625 
L 10.984375 10.5 
Q 14.703125 8.734375 18.5 7.8125 
Q 22.3125 6.890625 25.984375 6.890625 
Q 35.75 6.890625 40.890625 13.453125 
Q 46.046875 20.015625 46.78125 33.40625 
Q 43.953125 29.203125 39.59375 26.953125 
Q 35.25 24.703125 29.984375 24.703125 
Q 19.046875 24.703125 12.671875 31.3125 
Q 6.296875 37.9375 6.296875 49.421875 
Q 6.296875 60.640625 12.9375 67.421875 
Q 19.578125 74.21875 30.609375 74.21875 
Q 43.265625 74.21875 49.921875 64.515625 
Q 56.59375 54.828125 56.59375 36.375 
Q 56.59375 19.140625 48.40625 8.859375 
Q 40.234375 -1.421875 26.421875 -1.421875 
Q 22.703125 -1.421875 18.890625 -0.6875 
Q 15.09375 0.046875 10.984375 1.515625 
M 30.609375 32.421875 
Q 37.25 32.421875 41.125 36.953125 
Q 45.015625 41.5 45.015625 49.421875 
Q 45.015625 57.28125 41.125 61.84375 
Q 37.25 66.40625 30.609375 66.40625 
Q 23.96875 66.40625 20.09375 61.84375 
Q 16.21875 57.28125 16.21875 49.421875 
Q 16.21875 41.5 20.09375 36.953125 
Q 23.96875 32.421875 30.609375 32.421875 
" id="DejaVuSans-39"/>
      </defs>
      <g transform="translate(28.334375 54.881495)scale(0.1 -0.1)">
       <use xlink:href="#DejaVuSans-30"/>
       <use x="63.623047" xlink:href="#DejaVuSans-2c"/>
       <use x="95.410156" xlink:href="#DejaVuSans-39"/>
       <use x="159.033203" xlink:href="#DejaVuSans-30"/>
      </g>
     </g>
    </g>
    <g id="text_16">
     <!-- RR -->
     <defs>
      <path d="M 44.390625 34.1875 
Q 47.5625 33.109375 50.5625 29.59375 
Q 53.5625 26.078125 56.59375 19.921875 
L 66.609375 0 
L 56 0 
L 46.6875 18.703125 
Q 43.0625 26.03125 39.671875 28.421875 
Q 36.28125 30.8125 30.421875 30.8125 
L 19.671875 30.8125 
L 19.671875 0 
L 9.8125 0 
L 9.8125 72.90625 
L 32.078125 72.90625 
Q 44.578125 72.90625 50.734375 67.671875 
Q 56.890625 62.453125 56.890625 51.90625 
Q 56.890625 45.015625 53.6875 40.46875 
Q 50.484375 35.9375 44.390625 34.1875 
M 19.671875 64.796875 
L 19.671875 38.921875 
L 32.078125 38.921875 
Q 39.203125 38.921875 42.84375 42.21875 
Q 46.484375 45.515625 46.484375 51.90625 
Q 46.484375 58.296875 42.84375 61.546875 
Q 39.203125 64.796875 32.078125 64.796875 
z
" id="DejaVuSans-52"/>
     </defs>
     <g transform="translate(22.254688 181.476438)rotate(-90)scale(0.1 -0.1)">
      <use xlink:href="#DejaVuSans-52"/>
      <use x="69.482422" xlink:href="#DejaVuSans-52"/>
     </g>
    </g>
   </g>
   <g id="line2d_29">
    <path clip-path="url(#p4b8252b39d)" d="M 73.832727 295.488 
L 94.123636 295.466525 
L 114.414545 295.458723 
L 134.705455 295.439889 
L 154.996364 295.408369 
L 175.287273 295.350529 
L 195.578182 295.243492 
L 215.869091 295.115409 
L 236.16 294.796057 
L 256.450909 294.290966 
L 276.741818 293.362238 
L 297.032727 291.728656 
L 317.323636 289.126381 
L 337.614545 285.128313 
L 357.905455 279.783448 
L 378.196364 272.391 
L 398.487273 262.682127 
" style="fill:none;stroke:#1f77b4;stroke-linecap:square;stroke-width:1.5;"/>
    <defs>
     <path d="M 0 3 
C 0.795609 3 1.55874 2.683901 2.12132 2.12132 
C 2.683901 1.55874 3 0.795609 3 0 
C 3 -0.795609 2.683901 -1.55874 2.12132 -2.12132 
C 1.55874 -2.683901 0.795609 -3 0 -3 
C -0.795609 -3 -1.55874 -2.683901 -2.12132 -2.12132 
C -2.683901 -1.55874 -3 -0.795609 -3 0 
C -3 0.795609 -2.683901 1.55874 -2.12132 2.12132 
C -1.55874 2.683901 -0.795609 3 0 3 
z
" id="ma287601556" style="stroke:#1f77b4;"/>
    </defs>
    <g clip-path="url(#p4b8252b39d)">
     <use style="fill:#1f77b4;stroke:#1f77b4;" x="73.832727" xlink:href="#ma287601556" y="295.488"/>
     <use style="fill:#1f77b4;stroke:#1f77b4;" x="94.123636" xlink:href="#ma287601556" y="295.466525"/>
     <use style="fill:#1f77b4;stroke:#1f77b4;" x="114.414545" xlink:href="#ma287601556" y="295.458723"/>
     <use style="fill:#1f77b4;stroke:#1f77b4;" x="134.705455" xlink:href="#ma287601556" y="295.439889"/>
     <use style="fill:#1f77b4;stroke:#1f77b4;" x="154.996364" xlink:href="#ma287601556" y="295.408369"/>
     <use style="fill:#1f77b4;stroke:#1f77b4;" x="175.287273" xlink:href="#ma287601556" y="295.350529"/>
     <use style="fill:#1f77b4;stroke:#1f77b4;" x="195.578182" xlink:href="#ma287601556" y="295.243492"/>
     <use style="fill:#1f77b4;stroke:#1f77b4;" x="215.869091" xlink:href="#ma287601556" y="295.115409"/>
     <use style="fill:#1f77b4;stroke:#1f77b4;" x="236.16" xlink:href="#ma287601556" y="294.796057"/>
     <use style="fill:#1f77b4;stroke:#1f77b4;" x="256.450909" xlink:href="#ma287601556" y="294.290966"/>
     <use style="fill:#1f77b4;stroke:#1f77b4;" x="276.741818" xlink:href="#ma287601556" y="293.362238"/>
     <use style="fill:#1f77b4;stroke:#1f77b4;" x="297.032727" xlink:href="#ma287601556" y="291.728656"/>
     <use style="fill:#1f77b4;stroke:#1f77b4;" x="317.323636" xlink:href="#ma287601556" y="289.126381"/>
     <use style="fill:#1f77b4;stroke:#1f77b4;" x="337.614545" xlink:href="#ma287601556" y="285.128313"/>
     <use style="fill:#1f77b4;stroke:#1f77b4;" x="357.905455" xlink:href="#ma287601556" y="279.783448"/>
     <use style="fill:#1f77b4;stroke:#1f77b4;" x="378.196364" xlink:href="#ma287601556" y="272.391"/>
     <use style="fill:#1f77b4;stroke:#1f77b4;" x="398.487273" xlink:href="#ma287601556" y="262.682127"/>
    </g>
   </g>
   <g id="line2d_30">
    <path clip-path="url(#p4b8252b39d)" d="M 73.832727 295.417086 
L 94.123636 294.866472 
L 114.414545 294.812261 
L 134.705455 294.68506 
L 154.996364 294.450757 
L 175.287273 294.055437 
L 195.578182 293.501867 
L 215.869091 292.992701 
L 236.16 291.856484 
L 256.450909 290.492003 
L 276.741818 288.020007 
L 297.032727 283.99467 
L 317.323636 278.02589 
L 337.614545 268.899799 
L 357.905455 256.633451 
L 378.196364 238.198693 
L 398.487273 209.78018 
" style="fill:none;stroke:#ff7f0e;stroke-linecap:square;stroke-width:1.5;"/>
    <defs>
     <path d="M 0 3 
C 0.795609 3 1.55874 2.683901 2.12132 2.12132 
C 2.683901 1.55874 3 0.795609 3 0 
C 3 -0.795609 2.683901 -1.55874 2.12132 -2.12132 
C 1.55874 -2.683901 0.795609 -3 0 -3 
C -0.795609 -3 -1.55874 -2.683901 -2.12132 -2.12132 
C -2.683901 -1.55874 -3 -0.795609 -3 0 
C -3 0.795609 -2.683901 1.55874 -2.12132 2.12132 
C -1.55874 2.683901 -0.795609 3 0 3 
z
" id="m91ac62262f" style="stroke:#ff7f0e;"/>
    </defs>
    <g clip-path="url(#p4b8252b39d)">
     <use style="fill:#ff7f0e;stroke:#ff7f0e;" x="73.832727" xlink:href="#m91ac62262f" y="295.417086"/>
     <use style="fill:#ff7f0e;stroke:#ff7f0e;" x="94.123636" xlink:href="#m91ac62262f" y="294.866472"/>
     <use style="fill:#ff7f0e;stroke:#ff7f0e;" x="114.414545" xlink:href="#m91ac62262f" y="294.812261"/>
     <use style="fill:#ff7f0e;stroke:#ff7f0e;" x="134.705455" xlink:href="#m91ac62262f" y="294.68506"/>
     <use style="fill:#ff7f0e;stroke:#ff7f0e;" x="154.996364" xlink:href="#m91ac62262f" y="294.450757"/>
     <use style="fill:#ff7f0e;stroke:#ff7f0e;" x="175.287273" xlink:href="#m91ac62262f" y="294.055437"/>
     <use style="fill:#ff7f0e;stroke:#ff7f0e;" x="195.578182" xlink:href="#m91ac62262f" y="293.501867"/>
     <use style="fill:#ff7f0e;stroke:#ff7f0e;" x="215.869091" xlink:href="#m91ac62262f" y="292.992701"/>
     <use style="fill:#ff7f0e;stroke:#ff7f0e;" x="236.16" xlink:href="#m91ac62262f" y="291.856484"/>
     <use style="fill:#ff7f0e;stroke:#ff7f0e;" x="256.450909" xlink:href="#m91ac62262f" y="290.492003"/>
     <use style="fill:#ff7f0e;stroke:#ff7f0e;" x="276.741818" xlink:href="#m91ac62262f" y="288.020007"/>
     <use style="fill:#ff7f0e;stroke:#ff7f0e;" x="297.032727" xlink:href="#m91ac62262f" y="283.99467"/>
     <use style="fill:#ff7f0e;stroke:#ff7f0e;" x="317.323636" xlink:href="#m91ac62262f" y="278.02589"/>
     <use style="fill:#ff7f0e;stroke:#ff7f0e;" x="337.614545" xlink:href="#m91ac62262f" y="268.899799"/>
     <use style="fill:#ff7f0e;stroke:#ff7f0e;" x="357.905455" xlink:href="#m91ac62262f" y="256.633451"/>
     <use style="fill:#ff7f0e;stroke:#ff7f0e;" x="378.196364" xlink:href="#m91ac62262f" y="238.198693"/>
     <use style="fill:#ff7f0e;stroke:#ff7f0e;" x="398.487273" xlink:href="#m91ac62262f" y="209.78018"/>
    </g>
   </g>
   <g id="line2d_31">
    <path clip-path="url(#p4b8252b39d)" d="M 73.832727 295.333329 
L 94.123636 294.253459 
L 114.414545 294.154085 
L 134.705455 293.919341 
L 154.996364 293.481145 
L 175.287273 292.742851 
L 195.578182 291.729517 
L 215.869091 290.830458 
L 236.16 288.825884 
L 256.450909 286.54281 
L 276.741818 282.399837 
L 297.032727 275.75556 
L 317.323636 266.087687 
L 337.614545 251.313781 
L 357.905455 231.475891 
L 378.196364 200.852812 
L 398.487273 151.482603 
" style="fill:none;stroke:#2ca02c;stroke-linecap:square;stroke-width:1.5;"/>
    <defs>
     <path d="M 0 3 
C 0.795609 3 1.55874 2.683901 2.12132 2.12132 
C 2.683901 1.55874 3 0.795609 3 0 
C 3 -0.795609 2.683901 -1.55874 2.12132 -2.12132 
C 1.55874 -2.683901 0.795609 -3 0 -3 
C -0.795609 -3 -1.55874 -2.683901 -2.12132 -2.12132 
C -2.683901 -1.55874 -3 -0.795609 -3 0 
C -3 0.795609 -2.683901 1.55874 -2.12132 2.12132 
C -1.55874 2.683901 -0.795609 3 0 3 
z
" id="m808ebbc85d" style="stroke:#2ca02c;"/>
    </defs>
    <g clip-path="url(#p4b8252b39d)">
     <use style="fill:#2ca02c;stroke:#2ca02c;" x="73.832727" xlink:href="#m808ebbc85d" y="295.333329"/>
     <use style="fill:#2ca02c;stroke:#2ca02c;" x="94.123636" xlink:href="#m808ebbc85d" y="294.253459"/>
     <use style="fill:#2ca02c;stroke:#2ca02c;" x="114.414545" xlink:href="#m808ebbc85d" y="294.154085"/>
     <use style="fill:#2ca02c;stroke:#2ca02c;" x="134.705455" xlink:href="#m808ebbc85d" y="293.919341"/>
     <use style="fill:#2ca02c;stroke:#2ca02c;" x="154.996364" xlink:href="#m808ebbc85d" y="293.481145"/>
     <use style="fill:#2ca02c;stroke:#2ca02c;" x="175.287273" xlink:href="#m808ebbc85d" y="292.742851"/>
     <use style="fill:#2ca02c;stroke:#2ca02c;" x="195.578182" xlink:href="#m808ebbc85d" y="291.729517"/>
     <use style="fill:#2ca02c;stroke:#2ca02c;" x="215.869091" xlink:href="#m808ebbc85d" y="290.830458"/>
     <use style="fill:#2ca02c;stroke:#2ca02c;" x="236.16" xlink:href="#m808ebbc85d" y="288.825884"/>
     <use style="fill:#2ca02c;stroke:#2ca02c;" x="256.450909" xlink:href="#m808ebbc85d" y="286.54281"/>
     <use style="fill:#2ca02c;stroke:#2ca02c;" x="276.741818" xlink:href="#m808ebbc85d" y="282.399837"/>
     <use style="fill:#2ca02c;stroke:#2ca02c;" x="297.032727" xlink:href="#m808ebbc85d" y="275.75556"/>
     <use style="fill:#2ca02c;stroke:#2ca02c;" x="317.323636" xlink:href="#m808ebbc85d" y="266.087687"/>
     <use style="fill:#2ca02c;stroke:#2ca02c;" x="337.614545" xlink:href="#m808ebbc85d" y="251.313781"/>
     <use style="fill:#2ca02c;stroke:#2ca02c;" x="357.905455" xlink:href="#m808ebbc85d" y="231.475891"/>
     <use style="fill:#2ca02c;stroke:#2ca02c;" x="378.196364" xlink:href="#m808ebbc85d" y="200.852812"/>
     <use style="fill:#2ca02c;stroke:#2ca02c;" x="398.487273" xlink:href="#m808ebbc85d" y="151.482603"/>
    </g>
   </g>
   <g id="line2d_32">
    <path clip-path="url(#p4b8252b39d)" d="M 73.832727 295.450632 
L 94.123636 295.439285 
L 114.414545 295.413916 
L 134.705455 295.378568 
L 154.996364 295.333045 
L 175.287273 295.297043 
L 195.578182 295.21769 
L 215.869091 295.083436 
L 236.16 294.862587 
L 256.450909 294.46508 
L 276.741818 293.706542 
L 297.032727 292.191769 
L 317.323636 289.418938 
L 337.614545 284.732744 
L 357.905455 277.921932 
L 378.196364 267.42895 
L 398.487273 252.688851 
" style="fill:none;stroke:#d62728;stroke-linecap:square;stroke-width:1.5;"/>
    <defs>
     <path d="M 0 3 
C 0.795609 3 1.55874 2.683901 2.12132 2.12132 
C 2.683901 1.55874 3 0.795609 3 0 
C 3 -0.795609 2.683901 -1.55874 2.12132 -2.12132 
C 1.55874 -2.683901 0.795609 -3 0 -3 
C -0.795609 -3 -1.55874 -2.683901 -2.12132 -2.12132 
C -2.683901 -1.55874 -3 -0.795609 -3 0 
C -3 0.795609 -2.683901 1.55874 -2.12132 2.12132 
C -1.55874 2.683901 -0.795609 3 0 3 
z
" id="m8ece0e3395" style="stroke:#d62728;"/>
    </defs>
    <g clip-path="url(#p4b8252b39d)">
     <use style="fill:#d62728;stroke:#d62728;" x="73.832727" xlink:href="#m8ece0e3395" y="295.450632"/>
     <use style="fill:#d62728;stroke:#d62728;" x="94.123636" xlink:href="#m8ece0e3395" y="295.439285"/>
     <use style="fill:#d62728;stroke:#d62728;" x="114.414545" xlink:href="#m8ece0e3395" y="295.413916"/>
     <use style="fill:#d62728;stroke:#d62728;" x="134.705455" xlink:href="#m8ece0e3395" y="295.378568"/>
     <use style="fill:#d62728;stroke:#d62728;" x="154.996364" xlink:href="#m8ece0e3395" y="295.333045"/>
     <use style="fill:#d62728;stroke:#d62728;" x="175.287273" xlink:href="#m8ece0e3395" y="295.297043"/>
     <use style="fill:#d62728;stroke:#d62728;" x="195.578182" xlink:href="#m8ece0e3395" y="295.21769"/>
     <use style="fill:#d62728;stroke:#d62728;" x="215.869091" xlink:href="#m8ece0e3395" y="295.083436"/>
     <use style="fill:#d62728;stroke:#d62728;" x="236.16" xlink:href="#m8ece0e3395" y="294.862587"/>
     <use style="fill:#d62728;stroke:#d62728;" x="256.450909" xlink:href="#m8ece0e3395" y="294.46508"/>
     <use style="fill:#d62728;stroke:#d62728;" x="276.741818" xlink:href="#m8ece0e3395" y="293.706542"/>
     <use style="fill:#d62728;stroke:#d62728;" x="297.032727" xlink:href="#m8ece0e3395" y="292.191769"/>
     <use style="fill:#d62728;stroke:#d62728;" x="317.323636" xlink:href="#m8ece0e3395" y="289.418938"/>
     <use style="fill:#d62728;stroke:#d62728;" x="337.614545" xlink:href="#m8ece0e3395" y="284.732744"/>
     <use style="fill:#d62728;stroke:#d62728;" x="357.905455" xlink:href="#m8ece0e3395" y="277.921932"/>
     <use style="fill:#d62728;stroke:#d62728;" x="378.196364" xlink:href="#m8ece0e3395" y="267.42895"/>
     <use style="fill:#d62728;stroke:#d62728;" x="398.487273" xlink:href="#m8ece0e3395" y="252.688851"/>
    </g>
   </g>
   <g id="line2d_33">
    <path clip-path="url(#p4b8252b39d)" d="M 73.832727 295.28403 
L 94.123636 294.955372 
L 114.414545 294.672033 
L 134.705455 294.460293 
L 154.996364 294.15457 
L 175.287273 293.800163 
L 195.578182 292.925374 
L 215.869091 291.62228 
L 236.16 290.07631 
L 256.450909 287.906181 
L 276.741818 284.436006 
L 297.032727 278.637187 
L 317.323636 269.510901 
L 337.614545 255.224781 
L 357.905455 235.498896 
L 378.196364 204.676743 
L 398.487273 157.702515 
" style="fill:none;stroke:#9467bd;stroke-linecap:square;stroke-width:1.5;"/>
    <defs>
     <path d="M 0 3 
C 0.795609 3 1.55874 2.683901 2.12132 2.12132 
C 2.683901 1.55874 3 0.795609 3 0 
C 3 -0.795609 2.683901 -1.55874 2.12132 -2.12132 
C 1.55874 -2.683901 0.795609 -3 0 -3 
C -0.795609 -3 -1.55874 -2.683901 -2.12132 -2.12132 
C -2.683901 -1.55874 -3 -0.795609 -3 0 
C -3 0.795609 -2.683901 1.55874 -2.12132 2.12132 
C -1.55874 2.683901 -0.795609 3 0 3 
z
" id="m976c6f0878" style="stroke:#9467bd;"/>
    </defs>
    <g clip-path="url(#p4b8252b39d)">
     <use style="fill:#9467bd;stroke:#9467bd;" x="73.832727" xlink:href="#m976c6f0878" y="295.28403"/>
     <use style="fill:#9467bd;stroke:#9467bd;" x="94.123636" xlink:href="#m976c6f0878" y="294.955372"/>
     <use style="fill:#9467bd;stroke:#9467bd;" x="114.414545" xlink:href="#m976c6f0878" y="294.672033"/>
     <use style="fill:#9467bd;stroke:#9467bd;" x="134.705455" xlink:href="#m976c6f0878" y="294.460293"/>
     <use style="fill:#9467bd;stroke:#9467bd;" x="154.996364" xlink:href="#m976c6f0878" y="294.15457"/>
     <use style="fill:#9467bd;stroke:#9467bd;" x="175.287273" xlink:href="#m976c6f0878" y="293.800163"/>
     <use style="fill:#9467bd;stroke:#9467bd;" x="195.578182" xlink:href="#m976c6f0878" y="292.925374"/>
     <use style="fill:#9467bd;stroke:#9467bd;" x="215.869091" xlink:href="#m976c6f0878" y="291.62228"/>
     <use style="fill:#9467bd;stroke:#9467bd;" x="236.16" xlink:href="#m976c6f0878" y="290.07631"/>
     <use style="fill:#9467bd;stroke:#9467bd;" x="256.450909" xlink:href="#m976c6f0878" y="287.906181"/>
     <use style="fill:#9467bd;stroke:#9467bd;" x="276.741818" xlink:href="#m976c6f0878" y="284.436006"/>
     <use style="fill:#9467bd;stroke:#9467bd;" x="297.032727" xlink:href="#m976c6f0878" y="278.637187"/>
     <use style="fill:#9467bd;stroke:#9467bd;" x="317.323636" xlink:href="#m976c6f0878" y="269.510901"/>
     <use style="fill:#9467bd;stroke:#9467bd;" x="337.614545" xlink:href="#m976c6f0878" y="255.224781"/>
     <use style="fill:#9467bd;stroke:#9467bd;" x="357.905455" xlink:href="#m976c6f0878" y="235.498896"/>
     <use style="fill:#9467bd;stroke:#9467bd;" x="378.196364" xlink:href="#m976c6f0878" y="204.676743"/>
     <use style="fill:#9467bd;stroke:#9467bd;" x="398.487273" xlink:href="#m976c6f0878" y="157.702515"/>
    </g>
   </g>
   <g id="line2d_34">
    <path clip-path="url(#p4b8252b39d)" d="M 73.832727 295.102739 
L 94.123636 294.460033 
L 114.414545 293.9201 
L 134.705455 293.53224 
L 154.996364 292.965741 
L 175.287273 292.292563 
L 195.578182 290.6178 
L 215.869091 288.135527 
L 236.16 285.247062 
L 256.450909 281.269211 
L 276.741818 275.010002 
L 297.032727 264.751104 
L 317.323636 248.934398 
L 337.614545 224.420035 
L 357.905455 190.778565 
L 378.196364 137.486329 
L 398.487273 53.568 
" style="fill:none;stroke:#8c564b;stroke-linecap:square;stroke-width:1.5;"/>
    <defs>
     <path d="M 0 3 
C 0.795609 3 1.55874 2.683901 2.12132 2.12132 
C 2.683901 1.55874 3 0.795609 3 0 
C 3 -0.795609 2.683901 -1.55874 2.12132 -2.12132 
C 1.55874 -2.683901 0.795609 -3 0 -3 
C -0.795609 -3 -1.55874 -2.683901 -2.12132 -2.12132 
C -2.683901 -1.55874 -3 -0.795609 -3 0 
C -3 0.795609 -2.683901 1.55874 -2.12132 2.12132 
C -1.55874 2.683901 -0.795609 3 0 3 
z
" id="m38897db1a3" style="stroke:#8c564b;"/>
    </defs>
    <g clip-path="url(#p4b8252b39d)">
     <use style="fill:#8c564b;stroke:#8c564b;" x="73.832727" xlink:href="#m38897db1a3" y="295.102739"/>
     <use style="fill:#8c564b;stroke:#8c564b;" x="94.123636" xlink:href="#m38897db1a3" y="294.460033"/>
     <use style="fill:#8c564b;stroke:#8c564b;" x="114.414545" xlink:href="#m38897db1a3" y="293.9201"/>
     <use style="fill:#8c564b;stroke:#8c564b;" x="134.705455" xlink:href="#m38897db1a3" y="293.53224"/>
     <use style="fill:#8c564b;stroke:#8c564b;" x="154.996364" xlink:href="#m38897db1a3" y="292.965741"/>
     <use style="fill:#8c564b;stroke:#8c564b;" x="175.287273" xlink:href="#m38897db1a3" y="292.292563"/>
     <use style="fill:#8c564b;stroke:#8c564b;" x="195.578182" xlink:href="#m38897db1a3" y="290.6178"/>
     <use style="fill:#8c564b;stroke:#8c564b;" x="215.869091" xlink:href="#m38897db1a3" y="288.135527"/>
     <use style="fill:#8c564b;stroke:#8c564b;" x="236.16" xlink:href="#m38897db1a3" y="285.247062"/>
     <use style="fill:#8c564b;stroke:#8c564b;" x="256.450909" xlink:href="#m38897db1a3" y="281.269211"/>
     <use style="fill:#8c564b;stroke:#8c564b;" x="276.741818" xlink:href="#m38897db1a3" y="275.010002"/>
     <use style="fill:#8c564b;stroke:#8c564b;" x="297.032727" xlink:href="#m38897db1a3" y="264.751104"/>
     <use style="fill:#8c564b;stroke:#8c564b;" x="317.323636" xlink:href="#m38897db1a3" y="248.934398"/>
     <use style="fill:#8c564b;stroke:#8c564b;" x="337.614545" xlink:href="#m38897db1a3" y="224.420035"/>
     <use style="fill:#8c564b;stroke:#8c564b;" x="357.905455" xlink:href="#m38897db1a3" y="190.778565"/>
     <use style="fill:#8c564b;stroke:#8c564b;" x="378.196364" xlink:href="#m38897db1a3" y="137.486329"/>
     <use style="fill:#8c564b;stroke:#8c564b;" x="398.487273" xlink:href="#m38897db1a3" y="53.568"/>
    </g>
   </g>
   <g id="patch_3">
    <path d="M 57.6 307.584 
L 57.6 41.472 
" style="fill:none;stroke:#000000;stroke-linecap:square;stroke-linejoin:miter;stroke-width:0.8;"/>
   </g>
   <g id="patch_4">
    <path d="M 414.72 307.584 
L 414.72 41.472 
" style="fill:none;stroke:#000000;stroke-linecap:square;stroke-linejoin:miter;stroke-width:0.8;"/>
   </g>
   <g id="patch_5">
    <path d="M 57.6 307.584 
L 414.72 307.584 
" style="fill:none;stroke:#000000;stroke-linecap:square;stroke-linejoin:miter;stroke-width:0.8;"/>
   </g>
   <g id="patch_6">
    <path d="M 57.6 41.472 
L 414.72 41.472 
" style="fill:none;stroke:#000000;stroke-linecap:square;stroke-linejoin:miter;stroke-width:0.8;"/>
   </g>
   <g id="text_17">
    <!-- Relativ risk upp till ålder för cd=0,8, Sverige 2014 -->
    <defs>
     <path d="M 34.28125 27.484375 
Q 23.390625 27.484375 19.1875 25 
Q 14.984375 22.515625 14.984375 16.5 
Q 14.984375 11.71875 18.140625 8.90625 
Q 21.296875 6.109375 26.703125 6.109375 
Q 34.1875 6.109375 38.703125 11.40625 
Q 43.21875 16.703125 43.21875 25.484375 
L 43.21875 27.484375 
z
M 52.203125 31.203125 
L 52.203125 0 
L 43.21875 0 
L 43.21875 8.296875 
Q 40.140625 3.328125 35.546875 0.953125 
Q 30.953125 -1.421875 24.3125 -1.421875 
Q 15.921875 -1.421875 10.953125 3.296875 
Q 6 8.015625 6 15.921875 
Q 6 25.140625 12.171875 29.828125 
Q 18.359375 34.515625 30.609375 34.515625 
L 43.21875 34.515625 
L 43.21875 35.40625 
Q 43.21875 41.609375 39.140625 45 
Q 35.0625 48.390625 27.6875 48.390625 
Q 23 48.390625 18.546875 47.265625 
Q 14.109375 46.140625 10.015625 43.890625 
L 10.015625 52.203125 
Q 14.9375 54.109375 19.578125 55.046875 
Q 24.21875 56 28.609375 56 
Q 40.484375 56 46.34375 49.84375 
Q 52.203125 43.703125 52.203125 31.203125 
" id="DejaVuSans-61"/>
     <path d="M 18.3125 70.21875 
L 18.3125 54.6875 
L 36.8125 54.6875 
L 36.8125 47.703125 
L 18.3125 47.703125 
L 18.3125 18.015625 
Q 18.3125 11.328125 20.140625 9.421875 
Q 21.96875 7.515625 27.59375 7.515625 
L 36.8125 7.515625 
L 36.8125 0 
L 27.59375 0 
Q 17.1875 0 13.234375 3.875 
Q 9.28125 7.765625 9.28125 18.015625 
L 9.28125 47.703125 
L 2.6875 47.703125 
L 2.6875 54.6875 
L 9.28125 54.6875 
L 9.28125 70.21875 
z
" id="DejaVuSans-74"/>
     <path d="M 9.421875 54.6875 
L 18.40625 54.6875 
L 18.40625 0 
L 9.421875 0 
z
M 9.421875 75.984375 
L 18.40625 75.984375 
L 18.40625 64.59375 
L 9.421875 64.59375 
z
" id="DejaVuSans-69"/>
     <path d="M 2.984375 54.6875 
L 12.5 54.6875 
L 29.59375 8.796875 
L 46.6875 54.6875 
L 56.203125 54.6875 
L 35.6875 0 
L 23.484375 0 
z
" id="DejaVuSans-76"/>
     <path id="DejaVuSans-20"/>
     <path d="M 44.28125 53.078125 
L 44.28125 44.578125 
Q 40.484375 46.53125 36.375 47.5 
Q 32.28125 48.484375 27.875 48.484375 
Q 21.1875 48.484375 17.84375 46.4375 
Q 14.5 44.390625 14.5 40.28125 
Q 14.5 37.15625 16.890625 35.375 
Q 19.28125 33.59375 26.515625 31.984375 
L 29.59375 31.296875 
Q 39.15625 29.25 43.1875 25.515625 
Q 47.21875 21.78125 47.21875 15.09375 
Q 47.21875 7.46875 41.1875 3.015625 
Q 35.15625 -1.421875 24.609375 -1.421875 
Q 20.21875 -1.421875 15.453125 -0.5625 
Q 10.6875 0.296875 5.421875 2 
L 5.421875 11.28125 
Q 10.40625 8.6875 15.234375 7.390625 
Q 20.0625 6.109375 24.8125 6.109375 
Q 31.15625 6.109375 34.5625 8.28125 
Q 37.984375 10.453125 37.984375 14.40625 
Q 37.984375 18.0625 35.515625 20.015625 
Q 33.0625 21.96875 24.703125 23.78125 
L 21.578125 24.515625 
Q 13.234375 26.265625 9.515625 29.90625 
Q 5.8125 33.546875 5.8125 39.890625 
Q 5.8125 47.609375 11.28125 51.796875 
Q 16.75 56 26.8125 56 
Q 31.78125 56 36.171875 55.265625 
Q 40.578125 54.546875 44.28125 53.078125 
" id="DejaVuSans-73"/>
     <path d="M 9.078125 75.984375 
L 18.109375 75.984375 
L 18.109375 31.109375 
L 44.921875 54.6875 
L 56.390625 54.6875 
L 27.390625 29.109375 
L 57.625 0 
L 45.90625 0 
L 18.109375 26.703125 
L 18.109375 0 
L 9.078125 0 
z
" id="DejaVuSans-6b"/>
     <path d="M 8.5 21.578125 
L 8.5 54.6875 
L 17.484375 54.6875 
L 17.484375 21.921875 
Q 17.484375 14.15625 20.5 10.265625 
Q 23.53125 6.390625 29.59375 6.390625 
Q 36.859375 6.390625 41.078125 11.03125 
Q 45.3125 15.671875 45.3125 23.6875 
L 45.3125 54.6875 
L 54.296875 54.6875 
L 54.296875 0 
L 45.3125 0 
L 45.3125 8.40625 
Q 42.046875 3.421875 37.71875 1 
Q 33.40625 -1.421875 27.6875 -1.421875 
Q 18.265625 -1.421875 13.375 4.4375 
Q 8.5 10.296875 8.5 21.578125 
M 31.109375 56 
z
" id="DejaVuSans-75"/>
     <path d="M 18.109375 8.203125 
L 18.109375 -20.796875 
L 9.078125 -20.796875 
L 9.078125 54.6875 
L 18.109375 54.6875 
L 18.109375 46.390625 
Q 20.953125 51.265625 25.265625 53.625 
Q 29.59375 56 35.59375 56 
Q 45.5625 56 51.78125 48.09375 
Q 58.015625 40.1875 58.015625 27.296875 
Q 58.015625 14.40625 51.78125 6.484375 
Q 45.5625 -1.421875 35.59375 -1.421875 
Q 29.59375 -1.421875 25.265625 0.953125 
Q 20.953125 3.328125 18.109375 8.203125 
M 48.6875 27.296875 
Q 48.6875 37.203125 44.609375 42.84375 
Q 40.53125 48.484375 33.40625 48.484375 
Q 26.265625 48.484375 22.1875 42.84375 
Q 18.109375 37.203125 18.109375 27.296875 
Q 18.109375 17.390625 22.1875 11.75 
Q 26.265625 6.109375 33.40625 6.109375 
Q 40.53125 6.109375 44.609375 11.75 
Q 48.6875 17.390625 48.6875 27.296875 
" id="DejaVuSans-70"/>
     <path d="M 34.28125 27.484375 
Q 23.390625 27.484375 19.1875 25 
Q 14.984375 22.515625 14.984375 16.5 
Q 14.984375 11.71875 18.140625 8.90625 
Q 21.296875 6.109375 26.703125 6.109375 
Q 34.1875 6.109375 38.703125 11.40625 
Q 43.21875 16.703125 43.21875 25.484375 
L 43.21875 27.484375 
z
M 52.203125 31.203125 
L 52.203125 0 
L 43.21875 0 
L 43.21875 8.296875 
Q 40.140625 3.328125 35.546875 0.953125 
Q 30.953125 -1.421875 24.3125 -1.421875 
Q 15.921875 -1.421875 10.953125 3.296875 
Q 6 8.015625 6 15.921875 
Q 6 25.140625 12.171875 29.828125 
Q 18.359375 34.515625 30.609375 34.515625 
L 43.21875 34.515625 
L 43.21875 35.40625 
Q 43.21875 41.609375 39.140625 45 
Q 35.0625 48.390625 27.6875 48.390625 
Q 23 48.390625 18.546875 47.265625 
Q 14.109375 46.140625 10.015625 43.890625 
L 10.015625 52.203125 
Q 14.9375 54.109375 19.578125 55.046875 
Q 24.21875 56 28.609375 56 
Q 40.484375 56 46.34375 49.84375 
Q 52.203125 43.703125 52.203125 31.203125 
M 36.421875 74.421875 
Q 36.421875 77.484375 34.265625 79.625 
Q 32.125 81.78125 29 81.78125 
Q 25.828125 81.78125 23.703125 79.65625 
Q 21.578125 77.546875 21.578125 74.421875 
Q 21.578125 71.234375 23.703125 69.109375 
Q 25.828125 67 29 67 
Q 32.125 67 34.265625 69.140625 
Q 36.421875 71.296875 36.421875 74.421875 
M 42.375 74.421875 
Q 42.375 68.796875 38.484375 64.890625 
Q 34.609375 60.984375 29 60.984375 
Q 23.390625 60.984375 19.5 64.890625 
Q 15.625 68.796875 15.625 74.421875 
Q 15.625 80.03125 19.5 83.90625 
Q 23.390625 87.796875 29 87.796875 
Q 34.609375 87.796875 38.484375 83.90625 
Q 42.375 80.03125 42.375 74.421875 
" id="DejaVuSans-e5"/>
     <path d="M 37.109375 75.984375 
L 37.109375 68.5 
L 28.515625 68.5 
Q 23.6875 68.5 21.796875 66.546875 
Q 19.921875 64.59375 19.921875 59.515625 
L 19.921875 54.6875 
L 34.71875 54.6875 
L 34.71875 47.703125 
L 19.921875 47.703125 
L 19.921875 0 
L 10.890625 0 
L 10.890625 47.703125 
L 2.296875 47.703125 
L 2.296875 54.6875 
L 10.890625 54.6875 
L 10.890625 58.5 
Q 10.890625 67.625 15.140625 71.796875 
Q 19.390625 75.984375 28.609375 75.984375 
z
" id="DejaVuSans-66"/>
     <path d="M 30.609375 48.390625 
Q 23.390625 48.390625 19.1875 42.75 
Q 14.984375 37.109375 14.984375 27.296875 
Q 14.984375 17.484375 19.15625 11.84375 
Q 23.34375 6.203125 30.609375 6.203125 
Q 37.796875 6.203125 41.984375 11.859375 
Q 46.1875 17.53125 46.1875 27.296875 
Q 46.1875 37.015625 41.984375 42.703125 
Q 37.796875 48.390625 30.609375 48.390625 
M 30.609375 56 
Q 42.328125 56 49.015625 48.375 
Q 55.71875 40.765625 55.71875 27.296875 
Q 55.71875 13.875 49.015625 6.21875 
Q 42.328125 -1.421875 30.609375 -1.421875 
Q 18.84375 -1.421875 12.171875 6.21875 
Q 5.515625 13.875 5.515625 27.296875 
Q 5.515625 40.765625 12.171875 48.375 
Q 18.84375 56 30.609375 56 
M 35.21875 75.78125 
L 45.125 75.78125 
L 45.125 65.921875 
L 35.21875 65.921875 
z
M 16.125 75.78125 
L 26.03125 75.78125 
L 26.03125 65.921875 
L 16.125 65.921875 
z
" id="DejaVuSans-f6"/>
     <path d="M 48.78125 52.59375 
L 48.78125 44.1875 
Q 44.96875 46.296875 41.140625 47.34375 
Q 37.3125 48.390625 33.40625 48.390625 
Q 24.65625 48.390625 19.8125 42.84375 
Q 14.984375 37.3125 14.984375 27.296875 
Q 14.984375 17.28125 19.8125 11.734375 
Q 24.65625 6.203125 33.40625 6.203125 
Q 37.3125 6.203125 41.140625 7.25 
Q 44.96875 8.296875 48.78125 10.40625 
L 48.78125 2.09375 
Q 45.015625 0.34375 40.984375 -0.53125 
Q 36.96875 -1.421875 32.421875 -1.421875 
Q 20.0625 -1.421875 12.78125 6.34375 
Q 5.515625 14.109375 5.515625 27.296875 
Q 5.515625 40.671875 12.859375 48.328125 
Q 20.21875 56 33.015625 56 
Q 37.15625 56 41.109375 55.140625 
Q 45.0625 54.296875 48.78125 52.59375 
" id="DejaVuSans-63"/>
     <path d="M 10.59375 45.40625 
L 73.1875 45.40625 
L 73.1875 37.203125 
L 10.59375 37.203125 
z
M 10.59375 25.484375 
L 73.1875 25.484375 
L 73.1875 17.1875 
L 10.59375 17.1875 
z
" id="DejaVuSans-3d"/>
     <path d="M 53.515625 70.515625 
L 53.515625 60.890625 
Q 47.90625 63.578125 42.921875 64.890625 
Q 37.9375 66.21875 33.296875 66.21875 
Q 25.25 66.21875 20.875 63.09375 
Q 16.5 59.96875 16.5 54.203125 
Q 16.5 49.359375 19.40625 46.890625 
Q 22.3125 44.4375 30.421875 42.921875 
L 36.375 41.703125 
Q 47.40625 39.59375 52.65625 34.296875 
Q 57.90625 29 57.90625 20.125 
Q 57.90625 9.515625 50.796875 4.046875 
Q 43.703125 -1.421875 29.984375 -1.421875 
Q 24.8125 -1.421875 18.96875 -0.25 
Q 13.140625 0.921875 6.890625 3.21875 
L 6.890625 13.375 
Q 12.890625 10.015625 18.65625 8.296875 
Q 24.421875 6.59375 29.984375 6.59375 
Q 38.421875 6.59375 43.015625 9.90625 
Q 47.609375 13.234375 47.609375 19.390625 
Q 47.609375 24.75 44.3125 27.78125 
Q 41.015625 30.8125 33.5 32.328125 
L 27.484375 33.5 
Q 16.453125 35.6875 11.515625 40.375 
Q 6.59375 45.0625 6.59375 53.421875 
Q 6.59375 63.09375 13.40625 68.65625 
Q 20.21875 74.21875 32.171875 74.21875 
Q 37.3125 74.21875 42.625 73.28125 
Q 47.953125 72.359375 53.515625 70.515625 
" id="DejaVuSans-53"/>
     <path d="M 45.40625 27.984375 
Q 45.40625 37.75 41.375 43.109375 
Q 37.359375 48.484375 30.078125 48.484375 
Q 22.859375 48.484375 18.828125 43.109375 
Q 14.796875 37.75 14.796875 27.984375 
Q 14.796875 18.265625 18.828125 12.890625 
Q 22.859375 7.515625 30.078125 7.515625 
Q 37.359375 7.515625 41.375 12.890625 
Q 45.40625 18.265625 45.40625 27.984375 
M 54.390625 6.78125 
Q 54.390625 -7.171875 48.1875 -13.984375 
Q 42 -20.796875 29.203125 -20.796875 
Q 24.46875 -20.796875 20.265625 -20.09375 
Q 16.0625 -19.390625 12.109375 -17.921875 
L 12.109375 -9.1875 
Q 16.0625 -11.328125 19.921875 -12.34375 
Q 23.78125 -13.375 27.78125 -13.375 
Q 36.625 -13.375 41.015625 -8.765625 
Q 45.40625 -4.15625 45.40625 5.171875 
L 45.40625 9.625 
Q 42.625 4.78125 38.28125 2.390625 
Q 33.9375 0 27.875 0 
Q 17.828125 0 11.671875 7.65625 
Q 5.515625 15.328125 5.515625 27.984375 
Q 5.515625 40.671875 11.671875 48.328125 
Q 17.828125 56 27.875 56 
Q 33.9375 56 38.28125 53.609375 
Q 42.625 51.21875 45.40625 46.390625 
L 45.40625 54.6875 
L 54.390625 54.6875 
z
" id="DejaVuSans-67"/>
    </defs>
    <g transform="translate(85.524375 35.472)scale(0.12 -0.12)">
     <use xlink:href="#DejaVuSans-52"/>
     <use x="69.419922" xlink:href="#DejaVuSans-65"/>
     <use x="130.943359" xlink:href="#DejaVuSans-6c"/>
     <use x="158.726562" xlink:href="#DejaVuSans-61"/>
     <use x="220.005859" xlink:href="#DejaVuSans-74"/>
     <use x="259.214844" xlink:href="#DejaVuSans-69"/>
     <use x="286.998047" xlink:href="#DejaVuSans-76"/>
     <use x="346.177734" xlink:href="#DejaVuSans-20"/>
     <use x="377.964844" xlink:href="#DejaVuSans-72"/>
     <use x="419.078125" xlink:href="#DejaVuSans-69"/>
     <use x="446.861328" xlink:href="#DejaVuSans-73"/>
     <use x="498.960938" xlink:href="#DejaVuSans-6b"/>
     <use x="556.871094" xlink:href="#DejaVuSans-20"/>
     <use x="588.658203" xlink:href="#DejaVuSans-75"/>
     <use x="652.037109" xlink:href="#DejaVuSans-70"/>
     <use x="715.513672" xlink:href="#DejaVuSans-70"/>
     <use x="778.990234" xlink:href="#DejaVuSans-20"/>
     <use x="810.777344" xlink:href="#DejaVuSans-74"/>
     <use x="849.986328" xlink:href="#DejaVuSans-69"/>
     <use x="877.769531" xlink:href="#DejaVuSans-6c"/>
     <use x="905.552734" xlink:href="#DejaVuSans-6c"/>
     <use x="933.335938" xlink:href="#DejaVuSans-20"/>
     <use x="965.123047" xlink:href="#DejaVuSans-e5"/>
     <use x="1026.402344" xlink:href="#DejaVuSans-6c"/>
     <use x="1054.185547" xlink:href="#DejaVuSans-64"/>
     <use x="1117.662109" xlink:href="#DejaVuSans-65"/>
     <use x="1179.185547" xlink:href="#DejaVuSans-72"/>
     <use x="1220.298828" xlink:href="#DejaVuSans-20"/>
     <use x="1252.085938" xlink:href="#DejaVuSans-66"/>
     <use x="1287.291016" xlink:href="#DejaVuSans-f6"/>
     <use x="1348.472656" xlink:href="#DejaVuSans-72"/>
     <use x="1389.585938" xlink:href="#DejaVuSans-20"/>
     <use x="1421.373047" xlink:href="#DejaVuSans-63"/>
     <use x="1476.353516" xlink:href="#DejaVuSans-64"/>
     <use x="1539.830078" xlink:href="#DejaVuSans-3d"/>
     <use x="1623.619141" xlink:href="#DejaVuSans-30"/>
     <use x="1687.242188" xlink:href="#DejaVuSans-2c"/>
     <use x="1719.029297" xlink:href="#DejaVuSans-38"/>
     <use x="1782.652344" xlink:href="#DejaVuSans-2c"/>
     <use x="1814.439453" xlink:href="#DejaVuSans-20"/>
     <use x="1846.226562" xlink:href="#DejaVuSans-53"/>
     <use x="1909.703125" xlink:href="#DejaVuSans-76"/>
     <use x="1968.882812" xlink:href="#DejaVuSans-65"/>
     <use x="2030.40625" xlink:href="#DejaVuSans-72"/>
     <use x="2071.519531" xlink:href="#DejaVuSans-69"/>
     <use x="2099.302734" xlink:href="#DejaVuSans-67"/>
     <use x="2162.779297" xlink:href="#DejaVuSans-65"/>
     <use x="2224.302734" xlink:href="#DejaVuSans-20"/>
     <use x="2256.089844" xlink:href="#DejaVuSans-32"/>
     <use x="2319.712891" xlink:href="#DejaVuSans-30"/>
     <use x="2383.335938" xlink:href="#DejaVuSans-31"/>
     <use x="2446.958984" xlink:href="#DejaVuSans-34"/>
    </g>
   </g>
   <g id="legend_1">
    <g id="patch_7">
     <path d="M 64.6 137.54075 
L 182.815625 137.54075 
Q 184.815625 137.54075 184.815625 135.54075 
L 184.815625 48.472 
Q 184.815625 46.472 182.815625 46.472 
L 64.6 46.472 
Q 62.6 46.472 62.6 48.472 
L 62.6 135.54075 
Q 62.6 137.54075 64.6 137.54075 
z
" style="fill:#ffffff;opacity:0.8;stroke:#cccccc;stroke-linejoin:miter;"/>
    </g>
    <g id="line2d_35">
     <path d="M 66.6 54.570438 
L 86.6 54.570438 
" style="fill:none;stroke:#1f77b4;stroke-linecap:square;stroke-width:1.5;"/>
    </g>
    <g id="line2d_36">
     <g>
      <use style="fill:#1f77b4;stroke:#1f77b4;" x="76.6" xlink:href="#ma287601556" y="54.570438"/>
     </g>
    </g>
    <g id="text_18">
     <!-- kvinnor, ncd=1.0 -->
     <defs>
      <path d="M 54.890625 33.015625 
L 54.890625 0 
L 45.90625 0 
L 45.90625 32.71875 
Q 45.90625 40.484375 42.875 44.328125 
Q 39.84375 48.1875 33.796875 48.1875 
Q 26.515625 48.1875 22.3125 43.546875 
Q 18.109375 38.921875 18.109375 30.90625 
L 18.109375 0 
L 9.078125 0 
L 9.078125 54.6875 
L 18.109375 54.6875 
L 18.109375 46.1875 
Q 21.34375 51.125 25.703125 53.5625 
Q 30.078125 56 35.796875 56 
Q 45.21875 56 50.046875 50.171875 
Q 54.890625 44.34375 54.890625 33.015625 
" id="DejaVuSans-6e"/>
      <path d="M 30.609375 48.390625 
Q 23.390625 48.390625 19.1875 42.75 
Q 14.984375 37.109375 14.984375 27.296875 
Q 14.984375 17.484375 19.15625 11.84375 
Q 23.34375 6.203125 30.609375 6.203125 
Q 37.796875 6.203125 41.984375 11.859375 
Q 46.1875 17.53125 46.1875 27.296875 
Q 46.1875 37.015625 41.984375 42.703125 
Q 37.796875 48.390625 30.609375 48.390625 
M 30.609375 56 
Q 42.328125 56 49.015625 48.375 
Q 55.71875 40.765625 55.71875 27.296875 
Q 55.71875 13.875 49.015625 6.21875 
Q 42.328125 -1.421875 30.609375 -1.421875 
Q 18.84375 -1.421875 12.171875 6.21875 
Q 5.515625 13.875 5.515625 27.296875 
Q 5.515625 40.765625 12.171875 48.375 
Q 18.84375 56 30.609375 56 
" id="DejaVuSans-6f"/>
      <path d="M 10.6875 12.40625 
L 21 12.40625 
L 21 0 
L 10.6875 0 
z
" id="DejaVuSans-2e"/>
     </defs>
     <g transform="translate(94.6 58.070438)scale(0.1 -0.1)">
      <use xlink:href="#DejaVuSans-6b"/>
      <use x="57.910156" xlink:href="#DejaVuSans-76"/>
      <use x="117.089844" xlink:href="#DejaVuSans-69"/>
      <use x="144.873047" xlink:href="#DejaVuSans-6e"/>
      <use x="208.251953" xlink:href="#DejaVuSans-6e"/>
      <use x="271.630859" xlink:href="#DejaVuSans-6f"/>
      <use x="332.8125" xlink:href="#DejaVuSans-72"/>
      <use x="373.925781" xlink:href="#DejaVuSans-2c"/>
      <use x="405.712891" xlink:href="#DejaVuSans-20"/>
      <use x="437.5" xlink:href="#DejaVuSans-6e"/>
      <use x="500.878906" xlink:href="#DejaVuSans-63"/>
      <use x="555.859375" xlink:href="#DejaVuSans-64"/>
      <use x="619.335938" xlink:href="#DejaVuSans-3d"/>
      <use x="703.125" xlink:href="#DejaVuSans-31"/>
      <use x="766.748047" xlink:href="#DejaVuSans-2e"/>
      <use x="798.535156" xlink:href="#DejaVuSans-30"/>
     </g>
    </g>
    <g id="line2d_37">
     <path d="M 66.6 69.248563 
L 86.6 69.248563 
" style="fill:none;stroke:#ff7f0e;stroke-linecap:square;stroke-width:1.5;"/>
    </g>
    <g id="line2d_38">
     <g>
      <use style="fill:#ff7f0e;stroke:#ff7f0e;" x="76.6" xlink:href="#m91ac62262f" y="69.248563"/>
     </g>
    </g>
    <g id="text_19">
     <!-- kvinnor, ncd=0.8 -->
     <g transform="translate(94.6 72.748563)scale(0.1 -0.1)">
      <use xlink:href="#DejaVuSans-6b"/>
      <use x="57.910156" xlink:href="#DejaVuSans-76"/>
      <use x="117.089844" xlink:href="#DejaVuSans-69"/>
      <use x="144.873047" xlink:href="#DejaVuSans-6e"/>
      <use x="208.251953" xlink:href="#DejaVuSans-6e"/>
      <use x="271.630859" xlink:href="#DejaVuSans-6f"/>
      <use x="332.8125" xlink:href="#DejaVuSans-72"/>
      <use x="373.925781" xlink:href="#DejaVuSans-2c"/>
      <use x="405.712891" xlink:href="#DejaVuSans-20"/>
      <use x="437.5" xlink:href="#DejaVuSans-6e"/>
      <use x="500.878906" xlink:href="#DejaVuSans-63"/>
      <use x="555.859375" xlink:href="#DejaVuSans-64"/>
      <use x="619.335938" xlink:href="#DejaVuSans-3d"/>
      <use x="703.125" xlink:href="#DejaVuSans-30"/>
      <use x="766.748047" xlink:href="#DejaVuSans-2e"/>
      <use x="798.535156" xlink:href="#DejaVuSans-38"/>
     </g>
    </g>
    <g id="line2d_39">
     <path d="M 66.6 83.926688 
L 86.6 83.926688 
" style="fill:none;stroke:#2ca02c;stroke-linecap:square;stroke-width:1.5;"/>
    </g>
    <g id="line2d_40">
     <g>
      <use style="fill:#2ca02c;stroke:#2ca02c;" x="76.6" xlink:href="#m808ebbc85d" y="83.926688"/>
     </g>
    </g>
    <g id="text_20">
     <!-- kvinnor, ncd=0.6 -->
     <g transform="translate(94.6 87.426688)scale(0.1 -0.1)">
      <use xlink:href="#DejaVuSans-6b"/>
      <use x="57.910156" xlink:href="#DejaVuSans-76"/>
      <use x="117.089844" xlink:href="#DejaVuSans-69"/>
      <use x="144.873047" xlink:href="#DejaVuSans-6e"/>
      <use x="208.251953" xlink:href="#DejaVuSans-6e"/>
      <use x="271.630859" xlink:href="#DejaVuSans-6f"/>
      <use x="332.8125" xlink:href="#DejaVuSans-72"/>
      <use x="373.925781" xlink:href="#DejaVuSans-2c"/>
      <use x="405.712891" xlink:href="#DejaVuSans-20"/>
      <use x="437.5" xlink:href="#DejaVuSans-6e"/>
      <use x="500.878906" xlink:href="#DejaVuSans-63"/>
      <use x="555.859375" xlink:href="#DejaVuSans-64"/>
      <use x="619.335938" xlink:href="#DejaVuSans-3d"/>
      <use x="703.125" xlink:href="#DejaVuSans-30"/>
      <use x="766.748047" xlink:href="#DejaVuSans-2e"/>
      <use x="798.535156" xlink:href="#DejaVuSans-36"/>
     </g>
    </g>
    <g id="line2d_41">
     <path d="M 66.6 98.604813 
L 86.6 98.604813 
" style="fill:none;stroke:#d62728;stroke-linecap:square;stroke-width:1.5;"/>
    </g>
    <g id="line2d_42">
     <g>
      <use style="fill:#d62728;stroke:#d62728;" x="76.6" xlink:href="#m8ece0e3395" y="98.604813"/>
     </g>
    </g>
    <g id="text_21">
     <!-- män, ncd=1.0 -->
     <defs>
      <path d="M 52 44.1875 
Q 55.375 50.25 60.0625 53.125 
Q 64.75 56 71.09375 56 
Q 79.640625 56 84.28125 50.015625 
Q 88.921875 44.046875 88.921875 33.015625 
L 88.921875 0 
L 79.890625 0 
L 79.890625 32.71875 
Q 79.890625 40.578125 77.09375 44.375 
Q 74.3125 48.1875 68.609375 48.1875 
Q 61.625 48.1875 57.5625 43.546875 
Q 53.515625 38.921875 53.515625 30.90625 
L 53.515625 0 
L 44.484375 0 
L 44.484375 32.71875 
Q 44.484375 40.625 41.703125 44.40625 
Q 38.921875 48.1875 33.109375 48.1875 
Q 26.21875 48.1875 22.15625 43.53125 
Q 18.109375 38.875 18.109375 30.90625 
L 18.109375 0 
L 9.078125 0 
L 9.078125 54.6875 
L 18.109375 54.6875 
L 18.109375 46.1875 
Q 21.1875 51.21875 25.484375 53.609375 
Q 29.78125 56 35.6875 56 
Q 41.65625 56 45.828125 52.96875 
Q 50 49.953125 52 44.1875 
" id="DejaVuSans-6d"/>
      <path d="M 34.28125 27.484375 
Q 23.390625 27.484375 19.1875 25 
Q 14.984375 22.515625 14.984375 16.5 
Q 14.984375 11.71875 18.140625 8.90625 
Q 21.296875 6.109375 26.703125 6.109375 
Q 34.1875 6.109375 38.703125 11.40625 
Q 43.21875 16.703125 43.21875 25.484375 
L 43.21875 27.484375 
z
M 52.203125 31.203125 
L 52.203125 0 
L 43.21875 0 
L 43.21875 8.296875 
Q 40.140625 3.328125 35.546875 0.953125 
Q 30.953125 -1.421875 24.3125 -1.421875 
Q 15.921875 -1.421875 10.953125 3.296875 
Q 6 8.015625 6 15.921875 
Q 6 25.140625 12.171875 29.828125 
Q 18.359375 34.515625 30.609375 34.515625 
L 43.21875 34.515625 
L 43.21875 35.40625 
Q 43.21875 41.609375 39.140625 45 
Q 35.0625 48.390625 27.6875 48.390625 
Q 23 48.390625 18.546875 47.265625 
Q 14.109375 46.140625 10.015625 43.890625 
L 10.015625 52.203125 
Q 14.9375 54.109375 19.578125 55.046875 
Q 24.21875 56 28.609375 56 
Q 40.484375 56 46.34375 49.84375 
Q 52.203125 43.703125 52.203125 31.203125 
M 33.59375 75.78125 
L 43.5 75.78125 
L 43.5 65.921875 
L 33.59375 65.921875 
z
M 14.5 75.78125 
L 24.40625 75.78125 
L 24.40625 65.921875 
L 14.5 65.921875 
z
" id="DejaVuSans-e4"/>
     </defs>
     <g transform="translate(94.6 102.104813)scale(0.1 -0.1)">
      <use xlink:href="#DejaVuSans-6d"/>
      <use x="97.412109" xlink:href="#DejaVuSans-e4"/>
      <use x="158.691406" xlink:href="#DejaVuSans-6e"/>
      <use x="222.070312" xlink:href="#DejaVuSans-2c"/>
      <use x="253.857422" xlink:href="#DejaVuSans-20"/>
      <use x="285.644531" xlink:href="#DejaVuSans-6e"/>
      <use x="349.023438" xlink:href="#DejaVuSans-63"/>
      <use x="404.003906" xlink:href="#DejaVuSans-64"/>
      <use x="467.480469" xlink:href="#DejaVuSans-3d"/>
      <use x="551.269531" xlink:href="#DejaVuSans-31"/>
      <use x="614.892578" xlink:href="#DejaVuSans-2e"/>
      <use x="646.679688" xlink:href="#DejaVuSans-30"/>
     </g>
    </g>
    <g id="line2d_43">
     <path d="M 66.6 113.282938 
L 86.6 113.282938 
" style="fill:none;stroke:#9467bd;stroke-linecap:square;stroke-width:1.5;"/>
    </g>
    <g id="line2d_44">
     <g>
      <use style="fill:#9467bd;stroke:#9467bd;" x="76.6" xlink:href="#m976c6f0878" y="113.282938"/>
     </g>
    </g>
    <g id="text_22">
     <!-- män, ncd=0.8 -->
     <g transform="translate(94.6 116.782938)scale(0.1 -0.1)">
      <use xlink:href="#DejaVuSans-6d"/>
      <use x="97.412109" xlink:href="#DejaVuSans-e4"/>
      <use x="158.691406" xlink:href="#DejaVuSans-6e"/>
      <use x="222.070312" xlink:href="#DejaVuSans-2c"/>
      <use x="253.857422" xlink:href="#DejaVuSans-20"/>
      <use x="285.644531" xlink:href="#DejaVuSans-6e"/>
      <use x="349.023438" xlink:href="#DejaVuSans-63"/>
      <use x="404.003906" xlink:href="#DejaVuSans-64"/>
      <use x="467.480469" xlink:href="#DejaVuSans-3d"/>
      <use x="551.269531" xlink:href="#DejaVuSans-30"/>
      <use x="614.892578" xlink:href="#DejaVuSans-2e"/>
      <use x="646.679688" xlink:href="#DejaVuSans-38"/>
     </g>
    </g>
    <g id="line2d_45">
     <path d="M 66.6 127.961063 
L 86.6 127.961063 
" style="fill:none;stroke:#8c564b;stroke-linecap:square;stroke-width:1.5;"/>
    </g>
    <g id="line2d_46">
     <g>
      <use style="fill:#8c564b;stroke:#8c564b;" x="76.6" xlink:href="#m38897db1a3" y="127.961063"/>
     </g>
    </g>
    <g id="text_23">
     <!-- män, ncd=0.6 -->
     <g transform="translate(94.6 131.461063)scale(0.1 -0.1)">
      <use xlink:href="#DejaVuSans-6d"/>
      <use x="97.412109" xlink:href="#DejaVuSans-e4"/>
      <use x="158.691406" xlink:href="#DejaVuSans-6e"/>
      <use x="222.070312" xlink:href="#DejaVuSans-2c"/>
      <use x="253.857422" xlink:href="#DejaVuSans-20"/>
      <use x="285.644531" xlink:href="#DejaVuSans-6e"/>
      <use x="349.023438" xlink:href="#DejaVuSans-63"/>
      <use x="404.003906" xlink:href="#DejaVuSans-64"/>
      <use x="467.480469" xlink:href="#DejaVuSans-3d"/>
      <use x="551.269531" xlink:href="#DejaVuSans-30"/>
      <use x="614.892578" xlink:href="#DejaVuSans-2e"/>
      <use x="646.679688" xlink:href="#DejaVuSans-36"/>
     </g>
    </g>
   </g>
  </g>
 </g>
 <defs>
  <clipPath id="p4b8252b39d">
   <rect height="266.112" width="357.12" x="57.6" y="41.472"/>
  </clipPath>
 </defs>
</svg>
