<?xml version="1.0" encoding="utf-8" standalone="no"?>
<!DOCTYPE svg PUBLIC "-//W3C//DTD SVG 1.1//EN"
  "http://www.w3.org/Graphics/SVG/1.1/DTD/svg11.dtd">
<!-- Created with matplotlib (https://matplotlib.org/) -->
<svg height="345.6pt" version="1.1" viewBox="0 0 460.8 345.6" width="460.8pt" xmlns="http://www.w3.org/2000/svg" xmlns:xlink="http://www.w3.org/1999/xlink">
 <defs>
  <style type="text/css">
*{stroke-linecap:butt;stroke-linejoin:round;}
  </style>
 </defs>
 <g id="figure_1">
  <g id="patch_1">
   <path d="M 0 345.6 
L 460.8 345.6 
L 460.8 0 
L 0 0 
z
" style="fill:#ffffff;"/>
  </g>
  <g id="axes_1">
   <g id="patch_2">
    <path d="M 57.6 307.584 
L 414.72 307.584 
L 414.72 41.472 
L 57.6 41.472 
z
" style="fill:#ffffff;"/>
   </g>
   <g id="matplotlib.axis_1">
    <g id="xtick_1">
     <g id="line2d_1">
      <path clip-path="url(#p4d9f85b083)" d="M 59.295957 307.584 
L 59.295957 41.472 
" style="fill:none;stroke:#b0b0b0;stroke-linecap:square;stroke-width:0.8;"/>
     </g>
     <g id="line2d_2">
      <defs>
       <path d="M 0 0 
L 0 3.5 
" id="mcc7b81e818" style="stroke:#000000;stroke-width:0.8;"/>
      </defs>
      <g>
       <use style="stroke:#000000;stroke-width:0.8;" x="59.295957" xlink:href="#mcc7b81e818" y="307.584"/>
      </g>
     </g>
     <g id="text_1">
      <!-- 1900 -->
      <defs>
       <path d="M 12.40625 8.296875 
L 28.515625 8.296875 
L 28.515625 63.921875 
L 10.984375 60.40625 
L 10.984375 69.390625 
L 28.421875 72.90625 
L 38.28125 72.90625 
L 38.28125 8.296875 
L 54.390625 8.296875 
L 54.390625 0 
L 12.40625 0 
z
" id="DejaVuSans-49"/>
       <path d="M 10.984375 1.515625 
L 10.984375 10.5 
Q 14.703125 8.734375 18.5 7.8125 
Q 22.3125 6.890625 25.984375 6.890625 
Q 35.75 6.890625 40.890625 13.453125 
Q 46.046875 20.015625 46.78125 33.40625 
Q 43.953125 29.203125 39.59375 26.953125 
Q 35.25 24.703125 29.984375 24.703125 
Q 19.046875 24.703125 12.671875 31.3125 
Q 6.296875 37.9375 6.296875 49.421875 
Q 6.296875 60.640625 12.9375 67.421875 
Q 19.578125 74.21875 30.609375 74.21875 
Q 43.265625 74.21875 49.921875 64.515625 
Q 56.59375 54.828125 56.59375 36.375 
Q 56.59375 19.140625 48.40625 8.859375 
Q 40.234375 -1.421875 26.421875 -1.421875 
Q 22.703125 -1.421875 18.890625 -0.6875 
Q 15.09375 0.046875 10.984375 1.515625 
z
M 30.609375 32.421875 
Q 37.25 32.421875 41.125 36.953125 
Q 45.015625 41.5 45.015625 49.421875 
Q 45.015625 57.28125 41.125 61.84375 
Q 37.25 66.40625 30.609375 66.40625 
Q 23.96875 66.40625 20.09375 61.84375 
Q 16.21875 57.28125 16.21875 49.421875 
Q 16.21875 41.5 20.09375 36.953125 
Q 23.96875 32.421875 30.609375 32.421875 
z
" id="DejaVuSans-57"/>
       <path d="M 31.78125 66.40625 
Q 24.171875 66.40625 20.328125 58.90625 
Q 16.5 51.421875 16.5 36.375 
Q 16.5 21.390625 20.328125 13.890625 
Q 24.171875 6.390625 31.78125 6.390625 
Q 39.453125 6.390625 43.28125 13.890625 
Q 47.125 21.390625 47.125 36.375 
Q 47.125 51.421875 43.28125 58.90625 
Q 39.453125 66.40625 31.78125 66.40625 
z
M 31.78125 74.21875 
Q 44.046875 74.21875 50.515625 64.515625 
Q 56.984375 54.828125 56.984375 36.375 
Q 56.984375 17.96875 50.515625 8.265625 
Q 44.046875 -1.421875 31.78125 -1.421875 
Q 19.53125 -1.421875 13.0625 8.265625 
Q 6.59375 17.96875 6.59375 36.375 
Q 6.59375 54.828125 13.0625 64.515625 
Q 19.53125 74.21875 31.78125 74.21875 
z
" id="DejaVuSans-48"/>
      </defs>
      <g transform="translate(46.570957 322.182437)scale(0.1 -0.1)">
       <use xlink:href="#DejaVuSans-49"/>
       <use x="63.623047" xlink:href="#DejaVuSans-57"/>
       <use x="127.246094" xlink:href="#DejaVuSans-48"/>
       <use x="190.869141" xlink:href="#DejaVuSans-48"/>
      </g>
     </g>
    </g>
    <g id="xtick_2">
     <g id="line2d_3">
      <path clip-path="url(#p4d9f85b083)" d="M 107.751859 307.584 
L 107.751859 41.472 
" style="fill:none;stroke:#b0b0b0;stroke-linecap:square;stroke-width:0.8;"/>
     </g>
     <g id="line2d_4">
      <g>
       <use style="stroke:#000000;stroke-width:0.8;" x="107.751859" xlink:href="#mcc7b81e818" y="307.584"/>
      </g>
     </g>
     <g id="text_2">
      <!-- 1910 -->
      <g transform="translate(95.026859 322.182437)scale(0.1 -0.1)">
       <use xlink:href="#DejaVuSans-49"/>
       <use x="63.623047" xlink:href="#DejaVuSans-57"/>
       <use x="127.246094" xlink:href="#DejaVuSans-49"/>
       <use x="190.869141" xlink:href="#DejaVuSans-48"/>
      </g>
     </g>
    </g>
    <g id="xtick_3">
     <g id="line2d_5">
      <path clip-path="url(#p4d9f85b083)" d="M 156.207761 307.584 
L 156.207761 41.472 
" style="fill:none;stroke:#b0b0b0;stroke-linecap:square;stroke-width:0.8;"/>
     </g>
     <g id="line2d_6">
      <g>
       <use style="stroke:#000000;stroke-width:0.8;" x="156.207761" xlink:href="#mcc7b81e818" y="307.584"/>
      </g>
     </g>
     <g id="text_3">
      <!-- 1920 -->
      <defs>
       <path d="M 19.1875 8.296875 
L 53.609375 8.296875 
L 53.609375 0 
L 7.328125 0 
L 7.328125 8.296875 
Q 12.9375 14.109375 22.625 23.890625 
Q 32.328125 33.6875 34.8125 36.53125 
Q 39.546875 41.84375 41.421875 45.53125 
Q 43.3125 49.21875 43.3125 52.78125 
Q 43.3125 58.59375 39.234375 62.25 
Q 35.15625 65.921875 28.609375 65.921875 
Q 23.96875 65.921875 18.8125 64.3125 
Q 13.671875 62.703125 7.8125 59.421875 
L 7.8125 69.390625 
Q 13.765625 71.78125 18.9375 73 
Q 24.125 74.21875 28.421875 74.21875 
Q 39.75 74.21875 46.484375 68.546875 
Q 53.21875 62.890625 53.21875 53.421875 
Q 53.21875 48.921875 51.53125 44.890625 
Q 49.859375 40.875 45.40625 35.40625 
Q 44.1875 33.984375 37.640625 27.21875 
Q 31.109375 20.453125 19.1875 8.296875 
z
" id="DejaVuSans-50"/>
      </defs>
      <g transform="translate(143.482761 322.182437)scale(0.1 -0.1)">
       <use xlink:href="#DejaVuSans-49"/>
       <use x="63.623047" xlink:href="#DejaVuSans-57"/>
       <use x="127.246094" xlink:href="#DejaVuSans-50"/>
       <use x="190.869141" xlink:href="#DejaVuSans-48"/>
      </g>
     </g>
    </g>
    <g id="xtick_4">
     <g id="line2d_7">
      <path clip-path="url(#p4d9f85b083)" d="M 204.663664 307.584 
L 204.663664 41.472 
" style="fill:none;stroke:#b0b0b0;stroke-linecap:square;stroke-width:0.8;"/>
     </g>
     <g id="line2d_8">
      <g>
       <use style="stroke:#000000;stroke-width:0.8;" x="204.663664" xlink:href="#mcc7b81e818" y="307.584"/>
      </g>
     </g>
     <g id="text_4">
      <!-- 1930 -->
      <defs>
       <path d="M 40.578125 39.3125 
Q 47.65625 37.796875 51.625 33 
Q 55.609375 28.21875 55.609375 21.1875 
Q 55.609375 10.40625 48.1875 4.484375 
Q 40.765625 -1.421875 27.09375 -1.421875 
Q 22.515625 -1.421875 17.65625 -0.515625 
Q 12.796875 0.390625 7.625 2.203125 
L 7.625 11.71875 
Q 11.71875 9.328125 16.59375 8.109375 
Q 21.484375 6.890625 26.8125 6.890625 
Q 36.078125 6.890625 40.9375 10.546875 
Q 45.796875 14.203125 45.796875 21.1875 
Q 45.796875 27.640625 41.28125 31.265625 
Q 36.765625 34.90625 28.71875 34.90625 
L 20.21875 34.90625 
L 20.21875 43.015625 
L 29.109375 43.015625 
Q 36.375 43.015625 40.234375 45.921875 
Q 44.09375 48.828125 44.09375 54.296875 
Q 44.09375 59.90625 40.109375 62.90625 
Q 36.140625 65.921875 28.71875 65.921875 
Q 24.65625 65.921875 20.015625 65.03125 
Q 15.375 64.15625 9.8125 62.3125 
L 9.8125 71.09375 
Q 15.4375 72.65625 20.34375 73.4375 
Q 25.25 74.21875 29.59375 74.21875 
Q 40.828125 74.21875 47.359375 69.109375 
Q 53.90625 64.015625 53.90625 55.328125 
Q 53.90625 49.265625 50.4375 45.09375 
Q 46.96875 40.921875 40.578125 39.3125 
z
" id="DejaVuSans-51"/>
      </defs>
      <g transform="translate(191.938664 322.182437)scale(0.1 -0.1)">
       <use xlink:href="#DejaVuSans-49"/>
       <use x="63.623047" xlink:href="#DejaVuSans-57"/>
       <use x="127.246094" xlink:href="#DejaVuSans-51"/>
       <use x="190.869141" xlink:href="#DejaVuSans-48"/>
      </g>
     </g>
    </g>
    <g id="xtick_5">
     <g id="line2d_9">
      <path clip-path="url(#p4d9f85b083)" d="M 253.119566 307.584 
L 253.119566 41.472 
" style="fill:none;stroke:#b0b0b0;stroke-linecap:square;stroke-width:0.8;"/>
     </g>
     <g id="line2d_10">
      <g>
       <use style="stroke:#000000;stroke-width:0.8;" x="253.119566" xlink:href="#mcc7b81e818" y="307.584"/>
      </g>
     </g>
     <g id="text_5">
      <!-- 1940 -->
      <defs>
       <path d="M 37.796875 64.3125 
L 12.890625 25.390625 
L 37.796875 25.390625 
z
M 35.203125 72.90625 
L 47.609375 72.90625 
L 47.609375 25.390625 
L 58.015625 25.390625 
L 58.015625 17.1875 
L 47.609375 17.1875 
L 47.609375 0 
L 37.796875 0 
L 37.796875 17.1875 
L 4.890625 17.1875 
L 4.890625 26.703125 
z
" id="DejaVuSans-52"/>
      </defs>
      <g transform="translate(240.394566 322.182437)scale(0.1 -0.1)">
       <use xlink:href="#DejaVuSans-49"/>
       <use x="63.623047" xlink:href="#DejaVuSans-57"/>
       <use x="127.246094" xlink:href="#DejaVuSans-52"/>
       <use x="190.869141" xlink:href="#DejaVuSans-48"/>
      </g>
     </g>
    </g>
    <g id="xtick_6">
     <g id="line2d_11">
      <path clip-path="url(#p4d9f85b083)" d="M 301.575468 307.584 
L 301.575468 41.472 
" style="fill:none;stroke:#b0b0b0;stroke-linecap:square;stroke-width:0.8;"/>
     </g>
     <g id="line2d_12">
      <g>
       <use style="stroke:#000000;stroke-width:0.8;" x="301.575468" xlink:href="#mcc7b81e818" y="307.584"/>
      </g>
     </g>
     <g id="text_6">
      <!-- 1950 -->
      <defs>
       <path d="M 10.796875 72.90625 
L 49.515625 72.90625 
L 49.515625 64.59375 
L 19.828125 64.59375 
L 19.828125 46.734375 
Q 21.96875 47.46875 24.109375 47.828125 
Q 26.265625 48.1875 28.421875 48.1875 
Q 40.625 48.1875 47.75 41.5 
Q 54.890625 34.8125 54.890625 23.390625 
Q 54.890625 11.625 47.5625 5.09375 
Q 40.234375 -1.421875 26.90625 -1.421875 
Q 22.3125 -1.421875 17.546875 -0.640625 
Q 12.796875 0.140625 7.71875 1.703125 
L 7.71875 11.625 
Q 12.109375 9.234375 16.796875 8.0625 
Q 21.484375 6.890625 26.703125 6.890625 
Q 35.15625 6.890625 40.078125 11.328125 
Q 45.015625 15.765625 45.015625 23.390625 
Q 45.015625 31 40.078125 35.4375 
Q 35.15625 39.890625 26.703125 39.890625 
Q 22.75 39.890625 18.8125 39.015625 
Q 14.890625 38.140625 10.796875 36.28125 
z
" id="DejaVuSans-53"/>
      </defs>
      <g transform="translate(288.850468 322.182437)scale(0.1 -0.1)">
       <use xlink:href="#DejaVuSans-49"/>
       <use x="63.623047" xlink:href="#DejaVuSans-57"/>
       <use x="127.246094" xlink:href="#DejaVuSans-53"/>
       <use x="190.869141" xlink:href="#DejaVuSans-48"/>
      </g>
     </g>
    </g>
    <g id="xtick_7">
     <g id="line2d_13">
      <path clip-path="url(#p4d9f85b083)" d="M 350.03137 307.584 
L 350.03137 41.472 
" style="fill:none;stroke:#b0b0b0;stroke-linecap:square;stroke-width:0.8;"/>
     </g>
     <g id="line2d_14">
      <g>
       <use style="stroke:#000000;stroke-width:0.8;" x="350.03137" xlink:href="#mcc7b81e818" y="307.584"/>
      </g>
     </g>
     <g id="text_7">
      <!-- 1960 -->
      <defs>
       <path d="M 33.015625 40.375 
Q 26.375 40.375 22.484375 35.828125 
Q 18.609375 31.296875 18.609375 23.390625 
Q 18.609375 15.53125 22.484375 10.953125 
Q 26.375 6.390625 33.015625 6.390625 
Q 39.65625 6.390625 43.53125 10.953125 
Q 47.40625 15.53125 47.40625 23.390625 
Q 47.40625 31.296875 43.53125 35.828125 
Q 39.65625 40.375 33.015625 40.375 
z
M 52.59375 71.296875 
L 52.59375 62.3125 
Q 48.875 64.0625 45.09375 64.984375 
Q 41.3125 65.921875 37.59375 65.921875 
Q 27.828125 65.921875 22.671875 59.328125 
Q 17.53125 52.734375 16.796875 39.40625 
Q 19.671875 43.65625 24.015625 45.921875 
Q 28.375 48.1875 33.59375 48.1875 
Q 44.578125 48.1875 50.953125 41.515625 
Q 57.328125 34.859375 57.328125 23.390625 
Q 57.328125 12.15625 50.6875 5.359375 
Q 44.046875 -1.421875 33.015625 -1.421875 
Q 20.359375 -1.421875 13.671875 8.265625 
Q 6.984375 17.96875 6.984375 36.375 
Q 6.984375 53.65625 15.1875 63.9375 
Q 23.390625 74.21875 37.203125 74.21875 
Q 40.921875 74.21875 44.703125 73.484375 
Q 48.484375 72.75 52.59375 71.296875 
z
" id="DejaVuSans-54"/>
      </defs>
      <g transform="translate(337.30637 322.182437)scale(0.1 -0.1)">
       <use xlink:href="#DejaVuSans-49"/>
       <use x="63.623047" xlink:href="#DejaVuSans-57"/>
       <use x="127.246094" xlink:href="#DejaVuSans-54"/>
       <use x="190.869141" xlink:href="#DejaVuSans-48"/>
      </g>
     </g>
    </g>
    <g id="xtick_8">
     <g id="line2d_15">
      <path clip-path="url(#p4d9f85b083)" d="M 398.487273 307.584 
L 398.487273 41.472 
" style="fill:none;stroke:#b0b0b0;stroke-linecap:square;stroke-width:0.8;"/>
     </g>
     <g id="line2d_16">
      <g>
       <use style="stroke:#000000;stroke-width:0.8;" x="398.487273" xlink:href="#mcc7b81e818" y="307.584"/>
      </g>
     </g>
     <g id="text_8">
      <!-- 1970 -->
      <defs>
       <path d="M 8.203125 72.90625 
L 55.078125 72.90625 
L 55.078125 68.703125 
L 28.609375 0 
L 18.3125 0 
L 43.21875 64.59375 
L 8.203125 64.59375 
z
" id="DejaVuSans-55"/>
      </defs>
      <g transform="translate(385.762273 322.182437)scale(0.1 -0.1)">
       <use xlink:href="#DejaVuSans-49"/>
       <use x="63.623047" xlink:href="#DejaVuSans-57"/>
       <use x="127.246094" xlink:href="#DejaVuSans-55"/>
       <use x="190.869141" xlink:href="#DejaVuSans-48"/>
      </g>
     </g>
    </g>
    <g id="text_9">
     <!-- Kohort -->
     <defs>
      <path d="M 9.8125 72.90625 
L 19.671875 72.90625 
L 19.671875 42.09375 
L 52.390625 72.90625 
L 65.09375 72.90625 
L 28.90625 38.921875 
L 67.671875 0 
L 54.6875 0 
L 19.671875 35.109375 
L 19.671875 0 
L 9.8125 0 
z
" id="DejaVuSans-75"/>
      <path d="M 30.609375 48.390625 
Q 23.390625 48.390625 19.1875 42.75 
Q 14.984375 37.109375 14.984375 27.296875 
Q 14.984375 17.484375 19.15625 11.84375 
Q 23.34375 6.203125 30.609375 6.203125 
Q 37.796875 6.203125 41.984375 11.859375 
Q 46.1875 17.53125 46.1875 27.296875 
Q 46.1875 37.015625 41.984375 42.703125 
Q 37.796875 48.390625 30.609375 48.390625 
z
M 30.609375 56 
Q 42.328125 56 49.015625 48.375 
Q 55.71875 40.765625 55.71875 27.296875 
Q 55.71875 13.875 49.015625 6.21875 
Q 42.328125 -1.421875 30.609375 -1.421875 
Q 18.84375 -1.421875 12.171875 6.21875 
Q 5.515625 13.875 5.515625 27.296875 
Q 5.515625 40.765625 12.171875 48.375 
Q 18.84375 56 30.609375 56 
z
" id="DejaVuSans-111"/>
      <path d="M 54.890625 33.015625 
L 54.890625 0 
L 45.90625 0 
L 45.90625 32.71875 
Q 45.90625 40.484375 42.875 44.328125 
Q 39.84375 48.1875 33.796875 48.1875 
Q 26.515625 48.1875 22.3125 43.546875 
Q 18.109375 38.921875 18.109375 30.90625 
L 18.109375 0 
L 9.078125 0 
L 9.078125 75.984375 
L 18.109375 75.984375 
L 18.109375 46.1875 
Q 21.34375 51.125 25.703125 53.5625 
Q 30.078125 56 35.796875 56 
Q 45.21875 56 50.046875 50.171875 
Q 54.890625 44.34375 54.890625 33.015625 
z
" id="DejaVuSans-104"/>
      <path d="M 41.109375 46.296875 
Q 39.59375 47.171875 37.8125 47.578125 
Q 36.03125 48 33.890625 48 
Q 26.265625 48 22.1875 43.046875 
Q 18.109375 38.09375 18.109375 28.8125 
L 18.109375 0 
L 9.078125 0 
L 9.078125 54.6875 
L 18.109375 54.6875 
L 18.109375 46.1875 
Q 20.953125 51.171875 25.484375 53.578125 
Q 30.03125 56 36.53125 56 
Q 37.453125 56 38.578125 55.875 
Q 39.703125 55.765625 41.0625 55.515625 
z
" id="DejaVuSans-114"/>
      <path d="M 18.3125 70.21875 
L 18.3125 54.6875 
L 36.8125 54.6875 
L 36.8125 47.703125 
L 18.3125 47.703125 
L 18.3125 18.015625 
Q 18.3125 11.328125 20.140625 9.421875 
Q 21.96875 7.515625 27.59375 7.515625 
L 36.8125 7.515625 
L 36.8125 0 
L 27.59375 0 
Q 17.1875 0 13.234375 3.875 
Q 9.28125 7.765625 9.28125 18.015625 
L 9.28125 47.703125 
L 2.6875 47.703125 
L 2.6875 54.6875 
L 9.28125 54.6875 
L 9.28125 70.21875 
z
" id="DejaVuSans-116"/>
     </defs>
     <g transform="translate(219.581875 335.860562)scale(0.1 -0.1)">
      <use xlink:href="#DejaVuSans-75"/>
      <use x="65.498047" xlink:href="#DejaVuSans-111"/>
      <use x="126.679688" xlink:href="#DejaVuSans-104"/>
      <use x="190.058594" xlink:href="#DejaVuSans-111"/>
      <use x="251.240234" xlink:href="#DejaVuSans-114"/>
      <use x="292.353516" xlink:href="#DejaVuSans-116"/>
     </g>
    </g>
   </g>
   <g id="matplotlib.axis_2">
    <g id="ytick_1">
     <g id="line2d_17">
      <path clip-path="url(#p4d9f85b083)" d="M 57.6 307.253206 
L 414.72 307.253206 
" style="fill:none;stroke:#b0b0b0;stroke-linecap:square;stroke-width:0.8;"/>
     </g>
     <g id="line2d_18">
      <defs>
       <path d="M 0 0 
L -3.5 0 
" id="m66631f02ad" style="stroke:#000000;stroke-width:0.8;"/>
      </defs>
      <g>
       <use style="stroke:#000000;stroke-width:0.8;" x="57.6" xlink:href="#m66631f02ad" y="307.253206"/>
      </g>
     </g>
     <g id="text_10">
      <!-- −10,5 -->
      <defs>
       <path d="M 10.59375 35.5 
L 73.1875 35.5 
L 73.1875 27.203125 
L 10.59375 27.203125 
z
" id="DejaVuSans-8722"/>
       <path d="M 11.71875 12.40625 
L 22.015625 12.40625 
L 22.015625 4 
L 14.015625 -11.625 
L 7.71875 -11.625 
L 11.71875 4 
z
" id="DejaVuSans-44"/>
      </defs>
      <g transform="translate(19.954687 311.052425)scale(0.1 -0.1)">
       <use xlink:href="#DejaVuSans-8722"/>
       <use x="83.789062" xlink:href="#DejaVuSans-49"/>
       <use x="147.412109" xlink:href="#DejaVuSans-48"/>
       <use x="211.035156" xlink:href="#DejaVuSans-44"/>
       <use x="242.822266" xlink:href="#DejaVuSans-53"/>
      </g>
     </g>
    </g>
    <g id="ytick_2">
     <g id="line2d_19">
      <path clip-path="url(#p4d9f85b083)" d="M 57.6 277.245266 
L 414.72 277.245266 
" style="fill:none;stroke:#b0b0b0;stroke-linecap:square;stroke-width:0.8;"/>
     </g>
     <g id="line2d_20">
      <g>
       <use style="stroke:#000000;stroke-width:0.8;" x="57.6" xlink:href="#m66631f02ad" y="277.245266"/>
      </g>
     </g>
     <g id="text_11">
      <!-- −10,0 -->
      <g transform="translate(19.954687 281.044484)scale(0.1 -0.1)">
       <use xlink:href="#DejaVuSans-8722"/>
       <use x="83.789062" xlink:href="#DejaVuSans-49"/>
       <use x="147.412109" xlink:href="#DejaVuSans-48"/>
       <use x="211.035156" xlink:href="#DejaVuSans-44"/>
       <use x="242.822266" xlink:href="#DejaVuSans-48"/>
      </g>
     </g>
    </g>
    <g id="ytick_3">
     <g id="line2d_21">
      <path clip-path="url(#p4d9f85b083)" d="M 57.6 247.237325 
L 414.72 247.237325 
" style="fill:none;stroke:#b0b0b0;stroke-linecap:square;stroke-width:0.8;"/>
     </g>
     <g id="line2d_22">
      <g>
       <use style="stroke:#000000;stroke-width:0.8;" x="57.6" xlink:href="#m66631f02ad" y="247.237325"/>
      </g>
     </g>
     <g id="text_12">
      <!-- −9,5 -->
      <g transform="translate(26.317187 251.036544)scale(0.1 -0.1)">
       <use xlink:href="#DejaVuSans-8722"/>
       <use x="83.789062" xlink:href="#DejaVuSans-57"/>
       <use x="147.412109" xlink:href="#DejaVuSans-44"/>
       <use x="179.199219" xlink:href="#DejaVuSans-53"/>
      </g>
     </g>
    </g>
    <g id="ytick_4">
     <g id="line2d_23">
      <path clip-path="url(#p4d9f85b083)" d="M 57.6 217.229385 
L 414.72 217.229385 
" style="fill:none;stroke:#b0b0b0;stroke-linecap:square;stroke-width:0.8;"/>
     </g>
     <g id="line2d_24">
      <g>
       <use style="stroke:#000000;stroke-width:0.8;" x="57.6" xlink:href="#m66631f02ad" y="217.229385"/>
      </g>
     </g>
     <g id="text_13">
      <!-- −9,0 -->
      <g transform="translate(26.317187 221.028604)scale(0.1 -0.1)">
       <use xlink:href="#DejaVuSans-8722"/>
       <use x="83.789062" xlink:href="#DejaVuSans-57"/>
       <use x="147.412109" xlink:href="#DejaVuSans-44"/>
       <use x="179.199219" xlink:href="#DejaVuSans-48"/>
      </g>
     </g>
    </g>
    <g id="ytick_5">
     <g id="line2d_25">
      <path clip-path="url(#p4d9f85b083)" d="M 57.6 187.221445 
L 414.72 187.221445 
" style="fill:none;stroke:#b0b0b0;stroke-linecap:square;stroke-width:0.8;"/>
     </g>
     <g id="line2d_26">
      <g>
       <use style="stroke:#000000;stroke-width:0.8;" x="57.6" xlink:href="#m66631f02ad" y="187.221445"/>
      </g>
     </g>
     <g id="text_14">
      <!-- −8,5 -->
      <defs>
       <path d="M 31.78125 34.625 
Q 24.75 34.625 20.71875 30.859375 
Q 16.703125 27.09375 16.703125 20.515625 
Q 16.703125 13.921875 20.71875 10.15625 
Q 24.75 6.390625 31.78125 6.390625 
Q 38.8125 6.390625 42.859375 10.171875 
Q 46.921875 13.96875 46.921875 20.515625 
Q 46.921875 27.09375 42.890625 30.859375 
Q 38.875 34.625 31.78125 34.625 
z
M 21.921875 38.8125 
Q 15.578125 40.375 12.03125 44.71875 
Q 8.5 49.078125 8.5 55.328125 
Q 8.5 64.0625 14.71875 69.140625 
Q 20.953125 74.21875 31.78125 74.21875 
Q 42.671875 74.21875 48.875 69.140625 
Q 55.078125 64.0625 55.078125 55.328125 
Q 55.078125 49.078125 51.53125 44.71875 
Q 48 40.375 41.703125 38.8125 
Q 48.828125 37.15625 52.796875 32.3125 
Q 56.78125 27.484375 56.78125 20.515625 
Q 56.78125 9.90625 50.3125 4.234375 
Q 43.84375 -1.421875 31.78125 -1.421875 
Q 19.734375 -1.421875 13.25 4.234375 
Q 6.78125 9.90625 6.78125 20.515625 
Q 6.78125 27.484375 10.78125 32.3125 
Q 14.796875 37.15625 21.921875 38.8125 
z
M 18.3125 54.390625 
Q 18.3125 48.734375 21.84375 45.5625 
Q 25.390625 42.390625 31.78125 42.390625 
Q 38.140625 42.390625 41.71875 45.5625 
Q 45.3125 48.734375 45.3125 54.390625 
Q 45.3125 60.0625 41.71875 63.234375 
Q 38.140625 66.40625 31.78125 66.40625 
Q 25.390625 66.40625 21.84375 63.234375 
Q 18.3125 60.0625 18.3125 54.390625 
z
" id="DejaVuSans-56"/>
      </defs>
      <g transform="translate(26.317187 191.020663)scale(0.1 -0.1)">
       <use xlink:href="#DejaVuSans-8722"/>
       <use x="83.789062" xlink:href="#DejaVuSans-56"/>
       <use x="147.412109" xlink:href="#DejaVuSans-44"/>
       <use x="179.199219" xlink:href="#DejaVuSans-53"/>
      </g>
     </g>
    </g>
    <g id="ytick_6">
     <g id="line2d_27">
      <path clip-path="url(#p4d9f85b083)" d="M 57.6 157.213504 
L 414.72 157.213504 
" style="fill:none;stroke:#b0b0b0;stroke-linecap:square;stroke-width:0.8;"/>
     </g>
     <g id="line2d_28">
      <g>
       <use style="stroke:#000000;stroke-width:0.8;" x="57.6" xlink:href="#m66631f02ad" y="157.213504"/>
      </g>
     </g>
     <g id="text_15">
      <!-- −8,0 -->
      <g transform="translate(26.317187 161.012723)scale(0.1 -0.1)">
       <use xlink:href="#DejaVuSans-8722"/>
       <use x="83.789062" xlink:href="#DejaVuSans-56"/>
       <use x="147.412109" xlink:href="#DejaVuSans-44"/>
       <use x="179.199219" xlink:href="#DejaVuSans-48"/>
      </g>
     </g>
    </g>
    <g id="ytick_7">
     <g id="line2d_29">
      <path clip-path="url(#p4d9f85b083)" d="M 57.6 127.205564 
L 414.72 127.205564 
" style="fill:none;stroke:#b0b0b0;stroke-linecap:square;stroke-width:0.8;"/>
     </g>
     <g id="line2d_30">
      <g>
       <use style="stroke:#000000;stroke-width:0.8;" x="57.6" xlink:href="#m66631f02ad" y="127.205564"/>
      </g>
     </g>
     <g id="text_16">
      <!-- −7,5 -->
      <g transform="translate(26.317187 131.004783)scale(0.1 -0.1)">
       <use xlink:href="#DejaVuSans-8722"/>
       <use x="83.789062" xlink:href="#DejaVuSans-55"/>
       <use x="147.412109" xlink:href="#DejaVuSans-44"/>
       <use x="179.199219" xlink:href="#DejaVuSans-53"/>
      </g>
     </g>
    </g>
    <g id="ytick_8">
     <g id="line2d_31">
      <path clip-path="url(#p4d9f85b083)" d="M 57.6 97.197624 
L 414.72 97.197624 
" style="fill:none;stroke:#b0b0b0;stroke-linecap:square;stroke-width:0.8;"/>
     </g>
     <g id="line2d_32">
      <g>
       <use style="stroke:#000000;stroke-width:0.8;" x="57.6" xlink:href="#m66631f02ad" y="97.197624"/>
      </g>
     </g>
     <g id="text_17">
      <!-- −7,0 -->
      <g transform="translate(26.317187 100.996842)scale(0.1 -0.1)">
       <use xlink:href="#DejaVuSans-8722"/>
       <use x="83.789062" xlink:href="#DejaVuSans-55"/>
       <use x="147.412109" xlink:href="#DejaVuSans-44"/>
       <use x="179.199219" xlink:href="#DejaVuSans-48"/>
      </g>
     </g>
    </g>
    <g id="ytick_9">
     <g id="line2d_33">
      <path clip-path="url(#p4d9f85b083)" d="M 57.6 67.189683 
L 414.72 67.189683 
" style="fill:none;stroke:#b0b0b0;stroke-linecap:square;stroke-width:0.8;"/>
     </g>
     <g id="line2d_34">
      <g>
       <use style="stroke:#000000;stroke-width:0.8;" x="57.6" xlink:href="#m66631f02ad" y="67.189683"/>
      </g>
     </g>
     <g id="text_18">
      <!-- −6,5 -->
      <g transform="translate(26.317187 70.988902)scale(0.1 -0.1)">
       <use xlink:href="#DejaVuSans-8722"/>
       <use x="83.789062" xlink:href="#DejaVuSans-54"/>
       <use x="147.412109" xlink:href="#DejaVuSans-44"/>
       <use x="179.199219" xlink:href="#DejaVuSans-53"/>
      </g>
     </g>
    </g>
    <g id="text_19">
     <!-- log(incidens) -->
     <defs>
      <path d="M 9.421875 75.984375 
L 18.40625 75.984375 
L 18.40625 0 
L 9.421875 0 
z
" id="DejaVuSans-108"/>
      <path d="M 45.40625 27.984375 
Q 45.40625 37.75 41.375 43.109375 
Q 37.359375 48.484375 30.078125 48.484375 
Q 22.859375 48.484375 18.828125 43.109375 
Q 14.796875 37.75 14.796875 27.984375 
Q 14.796875 18.265625 18.828125 12.890625 
Q 22.859375 7.515625 30.078125 7.515625 
Q 37.359375 7.515625 41.375 12.890625 
Q 45.40625 18.265625 45.40625 27.984375 
z
M 54.390625 6.78125 
Q 54.390625 -7.171875 48.1875 -13.984375 
Q 42 -20.796875 29.203125 -20.796875 
Q 24.46875 -20.796875 20.265625 -20.09375 
Q 16.0625 -19.390625 12.109375 -17.921875 
L 12.109375 -9.1875 
Q 16.0625 -11.328125 19.921875 -12.34375 
Q 23.78125 -13.375 27.78125 -13.375 
Q 36.625 -13.375 41.015625 -8.765625 
Q 45.40625 -4.15625 45.40625 5.171875 
L 45.40625 9.625 
Q 42.625 4.78125 38.28125 2.390625 
Q 33.9375 0 27.875 0 
Q 17.828125 0 11.671875 7.65625 
Q 5.515625 15.328125 5.515625 27.984375 
Q 5.515625 40.671875 11.671875 48.328125 
Q 17.828125 56 27.875 56 
Q 33.9375 56 38.28125 53.609375 
Q 42.625 51.21875 45.40625 46.390625 
L 45.40625 54.6875 
L 54.390625 54.6875 
z
" id="DejaVuSans-103"/>
      <path d="M 31 75.875 
Q 24.46875 64.65625 21.28125 53.65625 
Q 18.109375 42.671875 18.109375 31.390625 
Q 18.109375 20.125 21.3125 9.0625 
Q 24.515625 -2 31 -13.1875 
L 23.1875 -13.1875 
Q 15.875 -1.703125 12.234375 9.375 
Q 8.59375 20.453125 8.59375 31.390625 
Q 8.59375 42.28125 12.203125 53.3125 
Q 15.828125 64.359375 23.1875 75.875 
z
" id="DejaVuSans-40"/>
      <path d="M 9.421875 54.6875 
L 18.40625 54.6875 
L 18.40625 0 
L 9.421875 0 
z
M 9.421875 75.984375 
L 18.40625 75.984375 
L 18.40625 64.59375 
L 9.421875 64.59375 
z
" id="DejaVuSans-105"/>
      <path d="M 54.890625 33.015625 
L 54.890625 0 
L 45.90625 0 
L 45.90625 32.71875 
Q 45.90625 40.484375 42.875 44.328125 
Q 39.84375 48.1875 33.796875 48.1875 
Q 26.515625 48.1875 22.3125 43.546875 
Q 18.109375 38.921875 18.109375 30.90625 
L 18.109375 0 
L 9.078125 0 
L 9.078125 54.6875 
L 18.109375 54.6875 
L 18.109375 46.1875 
Q 21.34375 51.125 25.703125 53.5625 
Q 30.078125 56 35.796875 56 
Q 45.21875 56 50.046875 50.171875 
Q 54.890625 44.34375 54.890625 33.015625 
z
" id="DejaVuSans-110"/>
      <path d="M 48.78125 52.59375 
L 48.78125 44.1875 
Q 44.96875 46.296875 41.140625 47.34375 
Q 37.3125 48.390625 33.40625 48.390625 
Q 24.65625 48.390625 19.8125 42.84375 
Q 14.984375 37.3125 14.984375 27.296875 
Q 14.984375 17.28125 19.8125 11.734375 
Q 24.65625 6.203125 33.40625 6.203125 
Q 37.3125 6.203125 41.140625 7.25 
Q 44.96875 8.296875 48.78125 10.40625 
L 48.78125 2.09375 
Q 45.015625 0.34375 40.984375 -0.53125 
Q 36.96875 -1.421875 32.421875 -1.421875 
Q 20.0625 -1.421875 12.78125 6.34375 
Q 5.515625 14.109375 5.515625 27.296875 
Q 5.515625 40.671875 12.859375 48.328125 
Q 20.21875 56 33.015625 56 
Q 37.15625 56 41.109375 55.140625 
Q 45.0625 54.296875 48.78125 52.59375 
z
" id="DejaVuSans-99"/>
      <path d="M 45.40625 46.390625 
L 45.40625 75.984375 
L 54.390625 75.984375 
L 54.390625 0 
L 45.40625 0 
L 45.40625 8.203125 
Q 42.578125 3.328125 38.25 0.953125 
Q 33.9375 -1.421875 27.875 -1.421875 
Q 17.96875 -1.421875 11.734375 6.484375 
Q 5.515625 14.40625 5.515625 27.296875 
Q 5.515625 40.1875 11.734375 48.09375 
Q 17.96875 56 27.875 56 
Q 33.9375 56 38.25 53.625 
Q 42.578125 51.265625 45.40625 46.390625 
z
M 14.796875 27.296875 
Q 14.796875 17.390625 18.875 11.75 
Q 22.953125 6.109375 30.078125 6.109375 
Q 37.203125 6.109375 41.296875 11.75 
Q 45.40625 17.390625 45.40625 27.296875 
Q 45.40625 37.203125 41.296875 42.84375 
Q 37.203125 48.484375 30.078125 48.484375 
Q 22.953125 48.484375 18.875 42.84375 
Q 14.796875 37.203125 14.796875 27.296875 
z
" id="DejaVuSans-100"/>
      <path d="M 56.203125 29.59375 
L 56.203125 25.203125 
L 14.890625 25.203125 
Q 15.484375 15.921875 20.484375 11.0625 
Q 25.484375 6.203125 34.421875 6.203125 
Q 39.59375 6.203125 44.453125 7.46875 
Q 49.3125 8.734375 54.109375 11.28125 
L 54.109375 2.78125 
Q 49.265625 0.734375 44.1875 -0.34375 
Q 39.109375 -1.421875 33.890625 -1.421875 
Q 20.796875 -1.421875 13.15625 6.1875 
Q 5.515625 13.8125 5.515625 26.8125 
Q 5.515625 40.234375 12.765625 48.109375 
Q 20.015625 56 32.328125 56 
Q 43.359375 56 49.78125 48.890625 
Q 56.203125 41.796875 56.203125 29.59375 
z
M 47.21875 32.234375 
Q 47.125 39.59375 43.09375 43.984375 
Q 39.0625 48.390625 32.421875 48.390625 
Q 24.90625 48.390625 20.390625 44.140625 
Q 15.875 39.890625 15.1875 32.171875 
z
" id="DejaVuSans-101"/>
      <path d="M 44.28125 53.078125 
L 44.28125 44.578125 
Q 40.484375 46.53125 36.375 47.5 
Q 32.28125 48.484375 27.875 48.484375 
Q 21.1875 48.484375 17.84375 46.4375 
Q 14.5 44.390625 14.5 40.28125 
Q 14.5 37.15625 16.890625 35.375 
Q 19.28125 33.59375 26.515625 31.984375 
L 29.59375 31.296875 
Q 39.15625 29.25 43.1875 25.515625 
Q 47.21875 21.78125 47.21875 15.09375 
Q 47.21875 7.46875 41.1875 3.015625 
Q 35.15625 -1.421875 24.609375 -1.421875 
Q 20.21875 -1.421875 15.453125 -0.5625 
Q 10.6875 0.296875 5.421875 2 
L 5.421875 11.28125 
Q 10.40625 8.6875 15.234375 7.390625 
Q 20.0625 6.109375 24.8125 6.109375 
Q 31.15625 6.109375 34.5625 8.28125 
Q 37.984375 10.453125 37.984375 14.40625 
Q 37.984375 18.0625 35.515625 20.015625 
Q 33.0625 21.96875 24.703125 23.78125 
L 21.578125 24.515625 
Q 13.234375 26.265625 9.515625 29.90625 
Q 5.8125 33.546875 5.8125 39.890625 
Q 5.8125 47.609375 11.28125 51.796875 
Q 16.75 56 26.8125 56 
Q 31.78125 56 36.171875 55.265625 
Q 40.578125 54.546875 44.28125 53.078125 
z
" id="DejaVuSans-115"/>
      <path d="M 8.015625 75.875 
L 15.828125 75.875 
Q 23.140625 64.359375 26.78125 53.3125 
Q 30.421875 42.28125 30.421875 31.390625 
Q 30.421875 20.453125 26.78125 9.375 
Q 23.140625 -1.703125 15.828125 -13.1875 
L 8.015625 -13.1875 
Q 14.5 -2 17.703125 9.0625 
Q 20.90625 20.125 20.90625 31.390625 
Q 20.90625 42.671875 17.703125 53.65625 
Q 14.5 64.65625 8.015625 75.875 
z
" id="DejaVuSans-41"/>
     </defs>
     <g transform="translate(13.875 206.772531)rotate(-90)scale(0.1 -0.1)">
      <use xlink:href="#DejaVuSans-108"/>
      <use x="27.783203" xlink:href="#DejaVuSans-111"/>
      <use x="88.964844" xlink:href="#DejaVuSans-103"/>
      <use x="152.441406" xlink:href="#DejaVuSans-40"/>
      <use x="191.455078" xlink:href="#DejaVuSans-105"/>
      <use x="219.238281" xlink:href="#DejaVuSans-110"/>
      <use x="282.617188" xlink:href="#DejaVuSans-99"/>
      <use x="337.597656" xlink:href="#DejaVuSans-105"/>
      <use x="365.380859" xlink:href="#DejaVuSans-100"/>
      <use x="428.857422" xlink:href="#DejaVuSans-101"/>
      <use x="490.380859" xlink:href="#DejaVuSans-110"/>
      <use x="553.759766" xlink:href="#DejaVuSans-115"/>
      <use x="605.859375" xlink:href="#DejaVuSans-41"/>
     </g>
    </g>
   </g>
   <g id="line2d_35">
    <path clip-path="url(#p4d9f85b083)" d="M 398.487273 230.63847 
L 393.641682 232.742335 
L 388.796092 239.325099 
L 383.950502 217.234153 
L 379.104912 222.04204 
L 374.259322 231.495854 
L 369.413731 222.837666 
L 364.568141 228.020911 
L 359.722551 218.960993 
L 354.876961 195.280915 
L 350.03137 227.557017 
L 345.18578 194.410134 
L 340.34019 195.65316 
L 335.4946 199.327678 
L 330.649009 207.3881 
L 325.803419 213.418599 
L 320.957829 196.818554 
L 316.112239 196.99186 
L 311.266649 202.857949 
L 306.421058 205.518802 
L 301.575468 211.178941 
L 296.729878 192.479775 
L 291.884288 190.922485 
L 287.038697 192.640979 
L 282.193107 197.549827 
L 277.347517 193.159758 
L 272.501927 201.833309 
L 267.656336 202.097281 
L 262.810746 205.239379 
L 257.965156 200.310076 
L 253.119566 191.775581 
L 248.273976 206.121982 
L 243.428385 212.020195 
L 238.582795 225.84867 
L 233.737205 205.239379 
L 228.891615 218.711239 
L 224.046024 240.675425 
L 219.200434 201.308823 
L 214.354844 222.359026 
L 209.509254 236.779632 
L 204.663664 234.857368 
L 199.818073 227.499282 
L 194.972483 236.443784 
L 190.126893 295.488 
L 185.281303 244.99605 
L 180.435712 284.99537 
L 175.590122 248.249525 
L 170.744532 234.079614 
" style="fill:none;stroke:#1f77b4;stroke-linecap:square;stroke-width:1.5;"/>
    <defs>
     <path d="M 0 -3 
L -0.673542 -0.927051 
L -2.85317 -0.927051 
L -1.089814 0.354102 
L -1.763356 2.427051 
L -0 1.145898 
L 1.763356 2.427051 
L 1.089814 0.354102 
L 2.85317 -0.927051 
L 0.673542 -0.927051 
z
" id="mcf8afe1913" style="stroke:#1f77b4;stroke-linejoin:bevel;"/>
    </defs>
    <g clip-path="url(#p4d9f85b083)">
     <use style="fill:#1f77b4;stroke:#1f77b4;stroke-linejoin:bevel;" x="398.487273" xlink:href="#mcf8afe1913" y="230.63847"/>
     <use style="fill:#1f77b4;stroke:#1f77b4;stroke-linejoin:bevel;" x="393.641682" xlink:href="#mcf8afe1913" y="232.742335"/>
     <use style="fill:#1f77b4;stroke:#1f77b4;stroke-linejoin:bevel;" x="388.796092" xlink:href="#mcf8afe1913" y="239.325099"/>
     <use style="fill:#1f77b4;stroke:#1f77b4;stroke-linejoin:bevel;" x="383.950502" xlink:href="#mcf8afe1913" y="217.234153"/>
     <use style="fill:#1f77b4;stroke:#1f77b4;stroke-linejoin:bevel;" x="379.104912" xlink:href="#mcf8afe1913" y="222.04204"/>
     <use style="fill:#1f77b4;stroke:#1f77b4;stroke-linejoin:bevel;" x="374.259322" xlink:href="#mcf8afe1913" y="231.495854"/>
     <use style="fill:#1f77b4;stroke:#1f77b4;stroke-linejoin:bevel;" x="369.413731" xlink:href="#mcf8afe1913" y="222.837666"/>
     <use style="fill:#1f77b4;stroke:#1f77b4;stroke-linejoin:bevel;" x="364.568141" xlink:href="#mcf8afe1913" y="228.020911"/>
     <use style="fill:#1f77b4;stroke:#1f77b4;stroke-linejoin:bevel;" x="359.722551" xlink:href="#mcf8afe1913" y="218.960993"/>
     <use style="fill:#1f77b4;stroke:#1f77b4;stroke-linejoin:bevel;" x="354.876961" xlink:href="#mcf8afe1913" y="195.280915"/>
     <use style="fill:#1f77b4;stroke:#1f77b4;stroke-linejoin:bevel;" x="350.03137" xlink:href="#mcf8afe1913" y="227.557017"/>
     <use style="fill:#1f77b4;stroke:#1f77b4;stroke-linejoin:bevel;" x="345.18578" xlink:href="#mcf8afe1913" y="194.410134"/>
     <use style="fill:#1f77b4;stroke:#1f77b4;stroke-linejoin:bevel;" x="340.34019" xlink:href="#mcf8afe1913" y="195.65316"/>
     <use style="fill:#1f77b4;stroke:#1f77b4;stroke-linejoin:bevel;" x="335.4946" xlink:href="#mcf8afe1913" y="199.327678"/>
     <use style="fill:#1f77b4;stroke:#1f77b4;stroke-linejoin:bevel;" x="330.649009" xlink:href="#mcf8afe1913" y="207.3881"/>
     <use style="fill:#1f77b4;stroke:#1f77b4;stroke-linejoin:bevel;" x="325.803419" xlink:href="#mcf8afe1913" y="213.418599"/>
     <use style="fill:#1f77b4;stroke:#1f77b4;stroke-linejoin:bevel;" x="320.957829" xlink:href="#mcf8afe1913" y="196.818554"/>
     <use style="fill:#1f77b4;stroke:#1f77b4;stroke-linejoin:bevel;" x="316.112239" xlink:href="#mcf8afe1913" y="196.99186"/>
     <use style="fill:#1f77b4;stroke:#1f77b4;stroke-linejoin:bevel;" x="311.266649" xlink:href="#mcf8afe1913" y="202.857949"/>
     <use style="fill:#1f77b4;stroke:#1f77b4;stroke-linejoin:bevel;" x="306.421058" xlink:href="#mcf8afe1913" y="205.518802"/>
     <use style="fill:#1f77b4;stroke:#1f77b4;stroke-linejoin:bevel;" x="301.575468" xlink:href="#mcf8afe1913" y="211.178941"/>
     <use style="fill:#1f77b4;stroke:#1f77b4;stroke-linejoin:bevel;" x="296.729878" xlink:href="#mcf8afe1913" y="192.479775"/>
     <use style="fill:#1f77b4;stroke:#1f77b4;stroke-linejoin:bevel;" x="291.884288" xlink:href="#mcf8afe1913" y="190.922485"/>
     <use style="fill:#1f77b4;stroke:#1f77b4;stroke-linejoin:bevel;" x="287.038697" xlink:href="#mcf8afe1913" y="192.640979"/>
     <use style="fill:#1f77b4;stroke:#1f77b4;stroke-linejoin:bevel;" x="282.193107" xlink:href="#mcf8afe1913" y="197.549827"/>
     <use style="fill:#1f77b4;stroke:#1f77b4;stroke-linejoin:bevel;" x="277.347517" xlink:href="#mcf8afe1913" y="193.159758"/>
     <use style="fill:#1f77b4;stroke:#1f77b4;stroke-linejoin:bevel;" x="272.501927" xlink:href="#mcf8afe1913" y="201.833309"/>
     <use style="fill:#1f77b4;stroke:#1f77b4;stroke-linejoin:bevel;" x="267.656336" xlink:href="#mcf8afe1913" y="202.097281"/>
     <use style="fill:#1f77b4;stroke:#1f77b4;stroke-linejoin:bevel;" x="262.810746" xlink:href="#mcf8afe1913" y="205.239379"/>
     <use style="fill:#1f77b4;stroke:#1f77b4;stroke-linejoin:bevel;" x="257.965156" xlink:href="#mcf8afe1913" y="200.310076"/>
     <use style="fill:#1f77b4;stroke:#1f77b4;stroke-linejoin:bevel;" x="253.119566" xlink:href="#mcf8afe1913" y="191.775581"/>
     <use style="fill:#1f77b4;stroke:#1f77b4;stroke-linejoin:bevel;" x="248.273976" xlink:href="#mcf8afe1913" y="206.121982"/>
     <use style="fill:#1f77b4;stroke:#1f77b4;stroke-linejoin:bevel;" x="243.428385" xlink:href="#mcf8afe1913" y="212.020195"/>
     <use style="fill:#1f77b4;stroke:#1f77b4;stroke-linejoin:bevel;" x="238.582795" xlink:href="#mcf8afe1913" y="225.84867"/>
     <use style="fill:#1f77b4;stroke:#1f77b4;stroke-linejoin:bevel;" x="233.737205" xlink:href="#mcf8afe1913" y="205.239379"/>
     <use style="fill:#1f77b4;stroke:#1f77b4;stroke-linejoin:bevel;" x="228.891615" xlink:href="#mcf8afe1913" y="218.711239"/>
     <use style="fill:#1f77b4;stroke:#1f77b4;stroke-linejoin:bevel;" x="224.046024" xlink:href="#mcf8afe1913" y="240.675425"/>
     <use style="fill:#1f77b4;stroke:#1f77b4;stroke-linejoin:bevel;" x="219.200434" xlink:href="#mcf8afe1913" y="201.308823"/>
     <use style="fill:#1f77b4;stroke:#1f77b4;stroke-linejoin:bevel;" x="214.354844" xlink:href="#mcf8afe1913" y="222.359026"/>
     <use style="fill:#1f77b4;stroke:#1f77b4;stroke-linejoin:bevel;" x="209.509254" xlink:href="#mcf8afe1913" y="236.779632"/>
     <use style="fill:#1f77b4;stroke:#1f77b4;stroke-linejoin:bevel;" x="204.663664" xlink:href="#mcf8afe1913" y="234.857368"/>
     <use style="fill:#1f77b4;stroke:#1f77b4;stroke-linejoin:bevel;" x="199.818073" xlink:href="#mcf8afe1913" y="227.499282"/>
     <use style="fill:#1f77b4;stroke:#1f77b4;stroke-linejoin:bevel;" x="194.972483" xlink:href="#mcf8afe1913" y="236.443784"/>
     <use style="fill:#1f77b4;stroke:#1f77b4;stroke-linejoin:bevel;" x="190.126893" xlink:href="#mcf8afe1913" y="295.488"/>
     <use style="fill:#1f77b4;stroke:#1f77b4;stroke-linejoin:bevel;" x="185.281303" xlink:href="#mcf8afe1913" y="244.99605"/>
     <use style="fill:#1f77b4;stroke:#1f77b4;stroke-linejoin:bevel;" x="180.435712" xlink:href="#mcf8afe1913" y="284.99537"/>
     <use style="fill:#1f77b4;stroke:#1f77b4;stroke-linejoin:bevel;" x="175.590122" xlink:href="#mcf8afe1913" y="248.249525"/>
     <use style="fill:#1f77b4;stroke:#1f77b4;stroke-linejoin:bevel;" x="170.744532" xlink:href="#mcf8afe1913" y="234.079614"/>
    </g>
   </g>
   <g id="line2d_36">
    <path clip-path="url(#p4d9f85b083)" d="M 398.487273 254.790673 
L 393.641682 255.155512 
L 388.796092 261.519491 
L 383.950502 259.420471 
L 379.104912 256.919447 
L 374.259322 241.69021 
L 369.413731 228.429779 
L 364.568141 268.069271 
L 359.722551 245.30581 
L 354.876961 254.609082 
L 350.03137 240.31712 
L 345.18578 235.513286 
L 340.34019 235.579274 
L 335.4946 223.535845 
L 330.649009 221.726719 
L 325.803419 213.509947 
L 320.957829 218.16541 
L 316.112239 211.931085 
L 311.266649 201.908611 
L 306.421058 205.759347 
L 301.575468 215.650275 
L 296.729878 225.401206 
L 291.884288 209.274889 
L 287.038697 188.977856 
L 282.193107 199.871468 
L 277.347517 188.193323 
L 272.501927 195.65316 
L 267.656336 194.376893 
L 262.810746 191.648429 
L 257.965156 198.824548 
L 253.119566 195.517531 
L 248.273976 183.301926 
L 243.428385 182.834017 
L 238.582795 191.079553 
L 233.737205 174.789177 
L 228.891615 185.496844 
L 224.046024 186.421072 
L 219.200434 180.258063 
L 214.354844 195.687115 
L 209.509254 190.703277 
L 204.663664 188.856489 
L 199.818073 185.697806 
L 194.972483 200.714969 
L 190.126893 190.51602 
L 185.281303 200.38349 
L 180.435712 182.86144 
L 175.590122 203.939346 
L 170.744532 215.982774 
" style="fill:none;stroke:#ff7f0e;stroke-linecap:square;stroke-width:1.5;"/>
    <defs>
     <path d="M 0 -3 
L -0.673542 -0.927051 
L -2.85317 -0.927051 
L -1.089814 0.354102 
L -1.763356 2.427051 
L -0 1.145898 
L 1.763356 2.427051 
L 1.089814 0.354102 
L 2.85317 -0.927051 
L 0.673542 -0.927051 
z
" id="m2971c1d89b" style="stroke:#ff7f0e;stroke-linejoin:bevel;"/>
    </defs>
    <g clip-path="url(#p4d9f85b083)">
     <use style="fill:#ff7f0e;stroke:#ff7f0e;stroke-linejoin:bevel;" x="398.487273" xlink:href="#m2971c1d89b" y="254.790673"/>
     <use style="fill:#ff7f0e;stroke:#ff7f0e;stroke-linejoin:bevel;" x="393.641682" xlink:href="#m2971c1d89b" y="255.155512"/>
     <use style="fill:#ff7f0e;stroke:#ff7f0e;stroke-linejoin:bevel;" x="388.796092" xlink:href="#m2971c1d89b" y="261.519491"/>
     <use style="fill:#ff7f0e;stroke:#ff7f0e;stroke-linejoin:bevel;" x="383.950502" xlink:href="#m2971c1d89b" y="259.420471"/>
     <use style="fill:#ff7f0e;stroke:#ff7f0e;stroke-linejoin:bevel;" x="379.104912" xlink:href="#m2971c1d89b" y="256.919447"/>
     <use style="fill:#ff7f0e;stroke:#ff7f0e;stroke-linejoin:bevel;" x="374.259322" xlink:href="#m2971c1d89b" y="241.69021"/>
     <use style="fill:#ff7f0e;stroke:#ff7f0e;stroke-linejoin:bevel;" x="369.413731" xlink:href="#m2971c1d89b" y="228.429779"/>
     <use style="fill:#ff7f0e;stroke:#ff7f0e;stroke-linejoin:bevel;" x="364.568141" xlink:href="#m2971c1d89b" y="268.069271"/>
     <use style="fill:#ff7f0e;stroke:#ff7f0e;stroke-linejoin:bevel;" x="359.722551" xlink:href="#m2971c1d89b" y="245.30581"/>
     <use style="fill:#ff7f0e;stroke:#ff7f0e;stroke-linejoin:bevel;" x="354.876961" xlink:href="#m2971c1d89b" y="254.609082"/>
     <use style="fill:#ff7f0e;stroke:#ff7f0e;stroke-linejoin:bevel;" x="350.03137" xlink:href="#m2971c1d89b" y="240.31712"/>
     <use style="fill:#ff7f0e;stroke:#ff7f0e;stroke-linejoin:bevel;" x="345.18578" xlink:href="#m2971c1d89b" y="235.513286"/>
     <use style="fill:#ff7f0e;stroke:#ff7f0e;stroke-linejoin:bevel;" x="340.34019" xlink:href="#m2971c1d89b" y="235.579274"/>
     <use style="fill:#ff7f0e;stroke:#ff7f0e;stroke-linejoin:bevel;" x="335.4946" xlink:href="#m2971c1d89b" y="223.535845"/>
     <use style="fill:#ff7f0e;stroke:#ff7f0e;stroke-linejoin:bevel;" x="330.649009" xlink:href="#m2971c1d89b" y="221.726719"/>
     <use style="fill:#ff7f0e;stroke:#ff7f0e;stroke-linejoin:bevel;" x="325.803419" xlink:href="#m2971c1d89b" y="213.509947"/>
     <use style="fill:#ff7f0e;stroke:#ff7f0e;stroke-linejoin:bevel;" x="320.957829" xlink:href="#m2971c1d89b" y="218.16541"/>
     <use style="fill:#ff7f0e;stroke:#ff7f0e;stroke-linejoin:bevel;" x="316.112239" xlink:href="#m2971c1d89b" y="211.931085"/>
     <use style="fill:#ff7f0e;stroke:#ff7f0e;stroke-linejoin:bevel;" x="311.266649" xlink:href="#m2971c1d89b" y="201.908611"/>
     <use style="fill:#ff7f0e;stroke:#ff7f0e;stroke-linejoin:bevel;" x="306.421058" xlink:href="#m2971c1d89b" y="205.759347"/>
     <use style="fill:#ff7f0e;stroke:#ff7f0e;stroke-linejoin:bevel;" x="301.575468" xlink:href="#m2971c1d89b" y="215.650275"/>
     <use style="fill:#ff7f0e;stroke:#ff7f0e;stroke-linejoin:bevel;" x="296.729878" xlink:href="#m2971c1d89b" y="225.401206"/>
     <use style="fill:#ff7f0e;stroke:#ff7f0e;stroke-linejoin:bevel;" x="291.884288" xlink:href="#m2971c1d89b" y="209.274889"/>
     <use style="fill:#ff7f0e;stroke:#ff7f0e;stroke-linejoin:bevel;" x="287.038697" xlink:href="#m2971c1d89b" y="188.977856"/>
     <use style="fill:#ff7f0e;stroke:#ff7f0e;stroke-linejoin:bevel;" x="282.193107" xlink:href="#m2971c1d89b" y="199.871468"/>
     <use style="fill:#ff7f0e;stroke:#ff7f0e;stroke-linejoin:bevel;" x="277.347517" xlink:href="#m2971c1d89b" y="188.193323"/>
     <use style="fill:#ff7f0e;stroke:#ff7f0e;stroke-linejoin:bevel;" x="272.501927" xlink:href="#m2971c1d89b" y="195.65316"/>
     <use style="fill:#ff7f0e;stroke:#ff7f0e;stroke-linejoin:bevel;" x="267.656336" xlink:href="#m2971c1d89b" y="194.376893"/>
     <use style="fill:#ff7f0e;stroke:#ff7f0e;stroke-linejoin:bevel;" x="262.810746" xlink:href="#m2971c1d89b" y="191.648429"/>
     <use style="fill:#ff7f0e;stroke:#ff7f0e;stroke-linejoin:bevel;" x="257.965156" xlink:href="#m2971c1d89b" y="198.824548"/>
     <use style="fill:#ff7f0e;stroke:#ff7f0e;stroke-linejoin:bevel;" x="253.119566" xlink:href="#m2971c1d89b" y="195.517531"/>
     <use style="fill:#ff7f0e;stroke:#ff7f0e;stroke-linejoin:bevel;" x="248.273976" xlink:href="#m2971c1d89b" y="183.301926"/>
     <use style="fill:#ff7f0e;stroke:#ff7f0e;stroke-linejoin:bevel;" x="243.428385" xlink:href="#m2971c1d89b" y="182.834017"/>
     <use style="fill:#ff7f0e;stroke:#ff7f0e;stroke-linejoin:bevel;" x="238.582795" xlink:href="#m2971c1d89b" y="191.079553"/>
     <use style="fill:#ff7f0e;stroke:#ff7f0e;stroke-linejoin:bevel;" x="233.737205" xlink:href="#m2971c1d89b" y="174.789177"/>
     <use style="fill:#ff7f0e;stroke:#ff7f0e;stroke-linejoin:bevel;" x="228.891615" xlink:href="#m2971c1d89b" y="185.496844"/>
     <use style="fill:#ff7f0e;stroke:#ff7f0e;stroke-linejoin:bevel;" x="224.046024" xlink:href="#m2971c1d89b" y="186.421072"/>
     <use style="fill:#ff7f0e;stroke:#ff7f0e;stroke-linejoin:bevel;" x="219.200434" xlink:href="#m2971c1d89b" y="180.258063"/>
     <use style="fill:#ff7f0e;stroke:#ff7f0e;stroke-linejoin:bevel;" x="214.354844" xlink:href="#m2971c1d89b" y="195.687115"/>
     <use style="fill:#ff7f0e;stroke:#ff7f0e;stroke-linejoin:bevel;" x="209.509254" xlink:href="#m2971c1d89b" y="190.703277"/>
     <use style="fill:#ff7f0e;stroke:#ff7f0e;stroke-linejoin:bevel;" x="204.663664" xlink:href="#m2971c1d89b" y="188.856489"/>
     <use style="fill:#ff7f0e;stroke:#ff7f0e;stroke-linejoin:bevel;" x="199.818073" xlink:href="#m2971c1d89b" y="185.697806"/>
     <use style="fill:#ff7f0e;stroke:#ff7f0e;stroke-linejoin:bevel;" x="194.972483" xlink:href="#m2971c1d89b" y="200.714969"/>
     <use style="fill:#ff7f0e;stroke:#ff7f0e;stroke-linejoin:bevel;" x="190.126893" xlink:href="#m2971c1d89b" y="190.51602"/>
     <use style="fill:#ff7f0e;stroke:#ff7f0e;stroke-linejoin:bevel;" x="185.281303" xlink:href="#m2971c1d89b" y="200.38349"/>
     <use style="fill:#ff7f0e;stroke:#ff7f0e;stroke-linejoin:bevel;" x="180.435712" xlink:href="#m2971c1d89b" y="182.86144"/>
     <use style="fill:#ff7f0e;stroke:#ff7f0e;stroke-linejoin:bevel;" x="175.590122" xlink:href="#m2971c1d89b" y="203.939346"/>
     <use style="fill:#ff7f0e;stroke:#ff7f0e;stroke-linejoin:bevel;" x="170.744532" xlink:href="#m2971c1d89b" y="215.982774"/>
    </g>
   </g>
   <g id="line2d_37">
    <path clip-path="url(#p4d9f85b083)" d="M 301.575468 73.752771 
L 296.729878 74.451523 
L 291.884288 63.679276 
L 287.038697 69.96076 
L 282.193107 65.700926 
L 277.347517 66.563802 
L 272.501927 63.818747 
L 267.656336 71.386403 
L 262.810746 62.597208 
L 257.965156 73.340045 
L 253.119566 74.604901 
L 248.273976 83.039153 
L 243.428385 87.393709 
L 238.582795 80.799361 
L 233.737205 88.893547 
L 228.891615 85.193108 
L 224.046024 93.743725 
L 219.200434 92.910714 
L 214.354844 105.915011 
L 209.509254 99.14965 
L 204.663664 103.850452 
L 199.818073 100.379203 
L 194.972483 107.683605 
L 190.126893 103.316063 
L 185.281303 110.771506 
L 180.435712 119.143766 
L 175.590122 115.589094 
L 170.744532 113.948588 
L 165.898942 118.295937 
L 161.053351 119.524458 
L 156.207761 116.037847 
L 151.362171 123.541816 
L 146.516581 126.631512 
L 141.670991 127.694152 
L 136.8254 131.80279 
L 131.97981 133.405525 
L 127.13422 140.498447 
L 122.28863 144.501922 
L 117.443039 147.271808 
L 112.597449 155.583238 
L 107.751859 146.969384 
L 102.906269 149.763479 
L 98.060678 159.559969 
L 93.215088 157.781998 
L 88.369498 171.932968 
L 83.523908 166.808151 
L 78.678318 172.001597 
L 73.832727 168.923184 
" style="fill:none;stroke:#2ca02c;stroke-linecap:square;stroke-width:1.5;"/>
    <defs>
     <path d="M 0 -3 
L -0.673542 -0.927051 
L -2.85317 -0.927051 
L -1.089814 0.354102 
L -1.763356 2.427051 
L -0 1.145898 
L 1.763356 2.427051 
L 1.089814 0.354102 
L 2.85317 -0.927051 
L 0.673542 -0.927051 
z
" id="m08a758017a" style="stroke:#2ca02c;stroke-linejoin:bevel;"/>
    </defs>
    <g clip-path="url(#p4d9f85b083)">
     <use style="fill:#2ca02c;stroke:#2ca02c;stroke-linejoin:bevel;" x="301.575468" xlink:href="#m08a758017a" y="73.752771"/>
     <use style="fill:#2ca02c;stroke:#2ca02c;stroke-linejoin:bevel;" x="296.729878" xlink:href="#m08a758017a" y="74.451523"/>
     <use style="fill:#2ca02c;stroke:#2ca02c;stroke-linejoin:bevel;" x="291.884288" xlink:href="#m08a758017a" y="63.679276"/>
     <use style="fill:#2ca02c;stroke:#2ca02c;stroke-linejoin:bevel;" x="287.038697" xlink:href="#m08a758017a" y="69.96076"/>
     <use style="fill:#2ca02c;stroke:#2ca02c;stroke-linejoin:bevel;" x="282.193107" xlink:href="#m08a758017a" y="65.700926"/>
     <use style="fill:#2ca02c;stroke:#2ca02c;stroke-linejoin:bevel;" x="277.347517" xlink:href="#m08a758017a" y="66.563802"/>
     <use style="fill:#2ca02c;stroke:#2ca02c;stroke-linejoin:bevel;" x="272.501927" xlink:href="#m08a758017a" y="63.818747"/>
     <use style="fill:#2ca02c;stroke:#2ca02c;stroke-linejoin:bevel;" x="267.656336" xlink:href="#m08a758017a" y="71.386403"/>
     <use style="fill:#2ca02c;stroke:#2ca02c;stroke-linejoin:bevel;" x="262.810746" xlink:href="#m08a758017a" y="62.597208"/>
     <use style="fill:#2ca02c;stroke:#2ca02c;stroke-linejoin:bevel;" x="257.965156" xlink:href="#m08a758017a" y="73.340045"/>
     <use style="fill:#2ca02c;stroke:#2ca02c;stroke-linejoin:bevel;" x="253.119566" xlink:href="#m08a758017a" y="74.604901"/>
     <use style="fill:#2ca02c;stroke:#2ca02c;stroke-linejoin:bevel;" x="248.273976" xlink:href="#m08a758017a" y="83.039153"/>
     <use style="fill:#2ca02c;stroke:#2ca02c;stroke-linejoin:bevel;" x="243.428385" xlink:href="#m08a758017a" y="87.393709"/>
     <use style="fill:#2ca02c;stroke:#2ca02c;stroke-linejoin:bevel;" x="238.582795" xlink:href="#m08a758017a" y="80.799361"/>
     <use style="fill:#2ca02c;stroke:#2ca02c;stroke-linejoin:bevel;" x="233.737205" xlink:href="#m08a758017a" y="88.893547"/>
     <use style="fill:#2ca02c;stroke:#2ca02c;stroke-linejoin:bevel;" x="228.891615" xlink:href="#m08a758017a" y="85.193108"/>
     <use style="fill:#2ca02c;stroke:#2ca02c;stroke-linejoin:bevel;" x="224.046024" xlink:href="#m08a758017a" y="93.743725"/>
     <use style="fill:#2ca02c;stroke:#2ca02c;stroke-linejoin:bevel;" x="219.200434" xlink:href="#m08a758017a" y="92.910714"/>
     <use style="fill:#2ca02c;stroke:#2ca02c;stroke-linejoin:bevel;" x="214.354844" xlink:href="#m08a758017a" y="105.915011"/>
     <use style="fill:#2ca02c;stroke:#2ca02c;stroke-linejoin:bevel;" x="209.509254" xlink:href="#m08a758017a" y="99.14965"/>
     <use style="fill:#2ca02c;stroke:#2ca02c;stroke-linejoin:bevel;" x="204.663664" xlink:href="#m08a758017a" y="103.850452"/>
     <use style="fill:#2ca02c;stroke:#2ca02c;stroke-linejoin:bevel;" x="199.818073" xlink:href="#m08a758017a" y="100.379203"/>
     <use style="fill:#2ca02c;stroke:#2ca02c;stroke-linejoin:bevel;" x="194.972483" xlink:href="#m08a758017a" y="107.683605"/>
     <use style="fill:#2ca02c;stroke:#2ca02c;stroke-linejoin:bevel;" x="190.126893" xlink:href="#m08a758017a" y="103.316063"/>
     <use style="fill:#2ca02c;stroke:#2ca02c;stroke-linejoin:bevel;" x="185.281303" xlink:href="#m08a758017a" y="110.771506"/>
     <use style="fill:#2ca02c;stroke:#2ca02c;stroke-linejoin:bevel;" x="180.435712" xlink:href="#m08a758017a" y="119.143766"/>
     <use style="fill:#2ca02c;stroke:#2ca02c;stroke-linejoin:bevel;" x="175.590122" xlink:href="#m08a758017a" y="115.589094"/>
     <use style="fill:#2ca02c;stroke:#2ca02c;stroke-linejoin:bevel;" x="170.744532" xlink:href="#m08a758017a" y="113.948588"/>
     <use style="fill:#2ca02c;stroke:#2ca02c;stroke-linejoin:bevel;" x="165.898942" xlink:href="#m08a758017a" y="118.295937"/>
     <use style="fill:#2ca02c;stroke:#2ca02c;stroke-linejoin:bevel;" x="161.053351" xlink:href="#m08a758017a" y="119.524458"/>
     <use style="fill:#2ca02c;stroke:#2ca02c;stroke-linejoin:bevel;" x="156.207761" xlink:href="#m08a758017a" y="116.037847"/>
     <use style="fill:#2ca02c;stroke:#2ca02c;stroke-linejoin:bevel;" x="151.362171" xlink:href="#m08a758017a" y="123.541816"/>
     <use style="fill:#2ca02c;stroke:#2ca02c;stroke-linejoin:bevel;" x="146.516581" xlink:href="#m08a758017a" y="126.631512"/>
     <use style="fill:#2ca02c;stroke:#2ca02c;stroke-linejoin:bevel;" x="141.670991" xlink:href="#m08a758017a" y="127.694152"/>
     <use style="fill:#2ca02c;stroke:#2ca02c;stroke-linejoin:bevel;" x="136.8254" xlink:href="#m08a758017a" y="131.80279"/>
     <use style="fill:#2ca02c;stroke:#2ca02c;stroke-linejoin:bevel;" x="131.97981" xlink:href="#m08a758017a" y="133.405525"/>
     <use style="fill:#2ca02c;stroke:#2ca02c;stroke-linejoin:bevel;" x="127.13422" xlink:href="#m08a758017a" y="140.498447"/>
     <use style="fill:#2ca02c;stroke:#2ca02c;stroke-linejoin:bevel;" x="122.28863" xlink:href="#m08a758017a" y="144.501922"/>
     <use style="fill:#2ca02c;stroke:#2ca02c;stroke-linejoin:bevel;" x="117.443039" xlink:href="#m08a758017a" y="147.271808"/>
     <use style="fill:#2ca02c;stroke:#2ca02c;stroke-linejoin:bevel;" x="112.597449" xlink:href="#m08a758017a" y="155.583238"/>
     <use style="fill:#2ca02c;stroke:#2ca02c;stroke-linejoin:bevel;" x="107.751859" xlink:href="#m08a758017a" y="146.969384"/>
     <use style="fill:#2ca02c;stroke:#2ca02c;stroke-linejoin:bevel;" x="102.906269" xlink:href="#m08a758017a" y="149.763479"/>
     <use style="fill:#2ca02c;stroke:#2ca02c;stroke-linejoin:bevel;" x="98.060678" xlink:href="#m08a758017a" y="159.559969"/>
     <use style="fill:#2ca02c;stroke:#2ca02c;stroke-linejoin:bevel;" x="93.215088" xlink:href="#m08a758017a" y="157.781998"/>
     <use style="fill:#2ca02c;stroke:#2ca02c;stroke-linejoin:bevel;" x="88.369498" xlink:href="#m08a758017a" y="171.932968"/>
     <use style="fill:#2ca02c;stroke:#2ca02c;stroke-linejoin:bevel;" x="83.523908" xlink:href="#m08a758017a" y="166.808151"/>
     <use style="fill:#2ca02c;stroke:#2ca02c;stroke-linejoin:bevel;" x="78.678318" xlink:href="#m08a758017a" y="172.001597"/>
     <use style="fill:#2ca02c;stroke:#2ca02c;stroke-linejoin:bevel;" x="73.832727" xlink:href="#m08a758017a" y="168.923184"/>
    </g>
   </g>
   <g id="line2d_38">
    <path clip-path="url(#p4d9f85b083)" d="M 301.575468 81.36795 
L 296.729878 77.524956 
L 291.884288 71.751399 
L 287.038697 73.304674 
L 282.193107 69.37004 
L 277.347517 63.536372 
L 272.501927 65.518182 
L 267.656336 63.214209 
L 262.810746 66.449347 
L 257.965156 69.151041 
L 253.119566 69.515101 
L 248.273976 59.526561 
L 243.428385 63.0575 
L 238.582795 61.161274 
L 233.737205 62.224883 
L 228.891615 61.320342 
L 224.046024 58.202666 
L 219.200434 63.046322 
L 214.354844 59.242649 
L 209.509254 61.244371 
L 204.663664 60.697328 
L 199.818073 58.340294 
L 194.972483 57.390244 
L 190.126893 57.07575 
L 185.281303 62.416287 
L 180.435712 55.741564 
L 175.590122 53.568 
L 170.744532 58.041356 
L 165.898942 55.797668 
L 161.053351 62.338916 
L 156.207761 58.020795 
L 151.362171 58.689214 
L 146.516581 54.773017 
L 141.670991 56.281669 
L 136.8254 59.992131 
L 131.97981 56.816604 
L 127.13422 58.398881 
L 122.28863 60.365067 
L 117.443039 65.239308 
L 112.597449 60.439933 
L 107.751859 60.593523 
L 102.906269 57.180399 
L 98.060678 59.565221 
L 93.215088 63.566429 
L 88.369498 64.185934 
L 83.523908 62.32419 
L 78.678318 59.554675 
L 73.832727 62.793514 
" style="fill:none;stroke:#d62728;stroke-linecap:square;stroke-width:1.5;"/>
    <defs>
     <path d="M 0 -3 
L -0.673542 -0.927051 
L -2.85317 -0.927051 
L -1.089814 0.354102 
L -1.763356 2.427051 
L -0 1.145898 
L 1.763356 2.427051 
L 1.089814 0.354102 
L 2.85317 -0.927051 
L 0.673542 -0.927051 
z
" id="mda842c1670" style="stroke:#d62728;stroke-linejoin:bevel;"/>
    </defs>
    <g clip-path="url(#p4d9f85b083)">
     <use style="fill:#d62728;stroke:#d62728;stroke-linejoin:bevel;" x="301.575468" xlink:href="#mda842c1670" y="81.36795"/>
     <use style="fill:#d62728;stroke:#d62728;stroke-linejoin:bevel;" x="296.729878" xlink:href="#mda842c1670" y="77.524956"/>
     <use style="fill:#d62728;stroke:#d62728;stroke-linejoin:bevel;" x="291.884288" xlink:href="#mda842c1670" y="71.751399"/>
     <use style="fill:#d62728;stroke:#d62728;stroke-linejoin:bevel;" x="287.038697" xlink:href="#mda842c1670" y="73.304674"/>
     <use style="fill:#d62728;stroke:#d62728;stroke-linejoin:bevel;" x="282.193107" xlink:href="#mda842c1670" y="69.37004"/>
     <use style="fill:#d62728;stroke:#d62728;stroke-linejoin:bevel;" x="277.347517" xlink:href="#mda842c1670" y="63.536372"/>
     <use style="fill:#d62728;stroke:#d62728;stroke-linejoin:bevel;" x="272.501927" xlink:href="#mda842c1670" y="65.518182"/>
     <use style="fill:#d62728;stroke:#d62728;stroke-linejoin:bevel;" x="267.656336" xlink:href="#mda842c1670" y="63.214209"/>
     <use style="fill:#d62728;stroke:#d62728;stroke-linejoin:bevel;" x="262.810746" xlink:href="#mda842c1670" y="66.449347"/>
     <use style="fill:#d62728;stroke:#d62728;stroke-linejoin:bevel;" x="257.965156" xlink:href="#mda842c1670" y="69.151041"/>
     <use style="fill:#d62728;stroke:#d62728;stroke-linejoin:bevel;" x="253.119566" xlink:href="#mda842c1670" y="69.515101"/>
     <use style="fill:#d62728;stroke:#d62728;stroke-linejoin:bevel;" x="248.273976" xlink:href="#mda842c1670" y="59.526561"/>
     <use style="fill:#d62728;stroke:#d62728;stroke-linejoin:bevel;" x="243.428385" xlink:href="#mda842c1670" y="63.0575"/>
     <use style="fill:#d62728;stroke:#d62728;stroke-linejoin:bevel;" x="238.582795" xlink:href="#mda842c1670" y="61.161274"/>
     <use style="fill:#d62728;stroke:#d62728;stroke-linejoin:bevel;" x="233.737205" xlink:href="#mda842c1670" y="62.224883"/>
     <use style="fill:#d62728;stroke:#d62728;stroke-linejoin:bevel;" x="228.891615" xlink:href="#mda842c1670" y="61.320342"/>
     <use style="fill:#d62728;stroke:#d62728;stroke-linejoin:bevel;" x="224.046024" xlink:href="#mda842c1670" y="58.202666"/>
     <use style="fill:#d62728;stroke:#d62728;stroke-linejoin:bevel;" x="219.200434" xlink:href="#mda842c1670" y="63.046322"/>
     <use style="fill:#d62728;stroke:#d62728;stroke-linejoin:bevel;" x="214.354844" xlink:href="#mda842c1670" y="59.242649"/>
     <use style="fill:#d62728;stroke:#d62728;stroke-linejoin:bevel;" x="209.509254" xlink:href="#mda842c1670" y="61.244371"/>
     <use style="fill:#d62728;stroke:#d62728;stroke-linejoin:bevel;" x="204.663664" xlink:href="#mda842c1670" y="60.697328"/>
     <use style="fill:#d62728;stroke:#d62728;stroke-linejoin:bevel;" x="199.818073" xlink:href="#mda842c1670" y="58.340294"/>
     <use style="fill:#d62728;stroke:#d62728;stroke-linejoin:bevel;" x="194.972483" xlink:href="#mda842c1670" y="57.390244"/>
     <use style="fill:#d62728;stroke:#d62728;stroke-linejoin:bevel;" x="190.126893" xlink:href="#mda842c1670" y="57.07575"/>
     <use style="fill:#d62728;stroke:#d62728;stroke-linejoin:bevel;" x="185.281303" xlink:href="#mda842c1670" y="62.416287"/>
     <use style="fill:#d62728;stroke:#d62728;stroke-linejoin:bevel;" x="180.435712" xlink:href="#mda842c1670" y="55.741564"/>
     <use style="fill:#d62728;stroke:#d62728;stroke-linejoin:bevel;" x="175.590122" xlink:href="#mda842c1670" y="53.568"/>
     <use style="fill:#d62728;stroke:#d62728;stroke-linejoin:bevel;" x="170.744532" xlink:href="#mda842c1670" y="58.041356"/>
     <use style="fill:#d62728;stroke:#d62728;stroke-linejoin:bevel;" x="165.898942" xlink:href="#mda842c1670" y="55.797668"/>
     <use style="fill:#d62728;stroke:#d62728;stroke-linejoin:bevel;" x="161.053351" xlink:href="#mda842c1670" y="62.338916"/>
     <use style="fill:#d62728;stroke:#d62728;stroke-linejoin:bevel;" x="156.207761" xlink:href="#mda842c1670" y="58.020795"/>
     <use style="fill:#d62728;stroke:#d62728;stroke-linejoin:bevel;" x="151.362171" xlink:href="#mda842c1670" y="58.689214"/>
     <use style="fill:#d62728;stroke:#d62728;stroke-linejoin:bevel;" x="146.516581" xlink:href="#mda842c1670" y="54.773017"/>
     <use style="fill:#d62728;stroke:#d62728;stroke-linejoin:bevel;" x="141.670991" xlink:href="#mda842c1670" y="56.281669"/>
     <use style="fill:#d62728;stroke:#d62728;stroke-linejoin:bevel;" x="136.8254" xlink:href="#mda842c1670" y="59.992131"/>
     <use style="fill:#d62728;stroke:#d62728;stroke-linejoin:bevel;" x="131.97981" xlink:href="#mda842c1670" y="56.816604"/>
     <use style="fill:#d62728;stroke:#d62728;stroke-linejoin:bevel;" x="127.13422" xlink:href="#mda842c1670" y="58.398881"/>
     <use style="fill:#d62728;stroke:#d62728;stroke-linejoin:bevel;" x="122.28863" xlink:href="#mda842c1670" y="60.365067"/>
     <use style="fill:#d62728;stroke:#d62728;stroke-linejoin:bevel;" x="117.443039" xlink:href="#mda842c1670" y="65.239308"/>
     <use style="fill:#d62728;stroke:#d62728;stroke-linejoin:bevel;" x="112.597449" xlink:href="#mda842c1670" y="60.439933"/>
     <use style="fill:#d62728;stroke:#d62728;stroke-linejoin:bevel;" x="107.751859" xlink:href="#mda842c1670" y="60.593523"/>
     <use style="fill:#d62728;stroke:#d62728;stroke-linejoin:bevel;" x="102.906269" xlink:href="#mda842c1670" y="57.180399"/>
     <use style="fill:#d62728;stroke:#d62728;stroke-linejoin:bevel;" x="98.060678" xlink:href="#mda842c1670" y="59.565221"/>
     <use style="fill:#d62728;stroke:#d62728;stroke-linejoin:bevel;" x="93.215088" xlink:href="#mda842c1670" y="63.566429"/>
     <use style="fill:#d62728;stroke:#d62728;stroke-linejoin:bevel;" x="88.369498" xlink:href="#mda842c1670" y="64.185934"/>
     <use style="fill:#d62728;stroke:#d62728;stroke-linejoin:bevel;" x="83.523908" xlink:href="#mda842c1670" y="62.32419"/>
     <use style="fill:#d62728;stroke:#d62728;stroke-linejoin:bevel;" x="78.678318" xlink:href="#mda842c1670" y="59.554675"/>
     <use style="fill:#d62728;stroke:#d62728;stroke-linejoin:bevel;" x="73.832727" xlink:href="#mda842c1670" y="62.793514"/>
    </g>
   </g>
   <g id="patch_3">
    <path d="M 57.6 307.584 
L 57.6 41.472 
" style="fill:none;stroke:#000000;stroke-linecap:square;stroke-linejoin:miter;stroke-width:0.8;"/>
   </g>
   <g id="patch_4">
    <path d="M 414.72 307.584 
L 414.72 41.472 
" style="fill:none;stroke:#000000;stroke-linecap:square;stroke-linejoin:miter;stroke-width:0.8;"/>
   </g>
   <g id="patch_5">
    <path d="M 57.6 307.584 
L 414.72 307.584 
" style="fill:none;stroke:#000000;stroke-linecap:square;stroke-linejoin:miter;stroke-width:0.8;"/>
   </g>
   <g id="patch_6">
    <path d="M 57.6 41.472 
L 414.72 41.472 
" style="fill:none;stroke:#000000;stroke-linecap:square;stroke-linejoin:miter;stroke-width:0.8;"/>
   </g>
   <g id="text_20">
    <!-- Incidens lungcancer Sverige -->
    <defs>
     <path d="M 9.8125 72.90625 
L 19.671875 72.90625 
L 19.671875 0 
L 9.8125 0 
z
" id="DejaVuSans-73"/>
     <path id="DejaVuSans-32"/>
     <path d="M 8.5 21.578125 
L 8.5 54.6875 
L 17.484375 54.6875 
L 17.484375 21.921875 
Q 17.484375 14.15625 20.5 10.265625 
Q 23.53125 6.390625 29.59375 6.390625 
Q 36.859375 6.390625 41.078125 11.03125 
Q 45.3125 15.671875 45.3125 23.6875 
L 45.3125 54.6875 
L 54.296875 54.6875 
L 54.296875 0 
L 45.3125 0 
L 45.3125 8.40625 
Q 42.046875 3.421875 37.71875 1 
Q 33.40625 -1.421875 27.6875 -1.421875 
Q 18.265625 -1.421875 13.375 4.4375 
Q 8.5 10.296875 8.5 21.578125 
z
M 31.109375 56 
z
" id="DejaVuSans-117"/>
     <path d="M 34.28125 27.484375 
Q 23.390625 27.484375 19.1875 25 
Q 14.984375 22.515625 14.984375 16.5 
Q 14.984375 11.71875 18.140625 8.90625 
Q 21.296875 6.109375 26.703125 6.109375 
Q 34.1875 6.109375 38.703125 11.40625 
Q 43.21875 16.703125 43.21875 25.484375 
L 43.21875 27.484375 
z
M 52.203125 31.203125 
L 52.203125 0 
L 43.21875 0 
L 43.21875 8.296875 
Q 40.140625 3.328125 35.546875 0.953125 
Q 30.953125 -1.421875 24.3125 -1.421875 
Q 15.921875 -1.421875 10.953125 3.296875 
Q 6 8.015625 6 15.921875 
Q 6 25.140625 12.171875 29.828125 
Q 18.359375 34.515625 30.609375 34.515625 
L 43.21875 34.515625 
L 43.21875 35.40625 
Q 43.21875 41.609375 39.140625 45 
Q 35.0625 48.390625 27.6875 48.390625 
Q 23 48.390625 18.546875 47.265625 
Q 14.109375 46.140625 10.015625 43.890625 
L 10.015625 52.203125 
Q 14.9375 54.109375 19.578125 55.046875 
Q 24.21875 56 28.609375 56 
Q 40.484375 56 46.34375 49.84375 
Q 52.203125 43.703125 52.203125 31.203125 
z
" id="DejaVuSans-97"/>
     <path d="M 53.515625 70.515625 
L 53.515625 60.890625 
Q 47.90625 63.578125 42.921875 64.890625 
Q 37.9375 66.21875 33.296875 66.21875 
Q 25.25 66.21875 20.875 63.09375 
Q 16.5 59.96875 16.5 54.203125 
Q 16.5 49.359375 19.40625 46.890625 
Q 22.3125 44.4375 30.421875 42.921875 
L 36.375 41.703125 
Q 47.40625 39.59375 52.65625 34.296875 
Q 57.90625 29 57.90625 20.125 
Q 57.90625 9.515625 50.796875 4.046875 
Q 43.703125 -1.421875 29.984375 -1.421875 
Q 24.8125 -1.421875 18.96875 -0.25 
Q 13.140625 0.921875 6.890625 3.21875 
L 6.890625 13.375 
Q 12.890625 10.015625 18.65625 8.296875 
Q 24.421875 6.59375 29.984375 6.59375 
Q 38.421875 6.59375 43.015625 9.90625 
Q 47.609375 13.234375 47.609375 19.390625 
Q 47.609375 24.75 44.3125 27.78125 
Q 41.015625 30.8125 33.5 32.328125 
L 27.484375 33.5 
Q 16.453125 35.6875 11.515625 40.375 
Q 6.59375 45.0625 6.59375 53.421875 
Q 6.59375 63.09375 13.40625 68.65625 
Q 20.21875 74.21875 32.171875 74.21875 
Q 37.3125 74.21875 42.625 73.28125 
Q 47.953125 72.359375 53.515625 70.515625 
z
" id="DejaVuSans-83"/>
     <path d="M 2.984375 54.6875 
L 12.5 54.6875 
L 29.59375 8.796875 
L 46.6875 54.6875 
L 56.203125 54.6875 
L 35.6875 0 
L 23.484375 0 
z
" id="DejaVuSans-118"/>
    </defs>
    <g transform="translate(151.375313 35.472)scale(0.12 -0.12)">
     <use xlink:href="#DejaVuSans-73"/>
     <use x="29.492188" xlink:href="#DejaVuSans-110"/>
     <use x="92.871094" xlink:href="#DejaVuSans-99"/>
     <use x="147.851562" xlink:href="#DejaVuSans-105"/>
     <use x="175.634766" xlink:href="#DejaVuSans-100"/>
     <use x="239.111328" xlink:href="#DejaVuSans-101"/>
     <use x="300.634766" xlink:href="#DejaVuSans-110"/>
     <use x="364.013672" xlink:href="#DejaVuSans-115"/>
     <use x="416.113281" xlink:href="#DejaVuSans-32"/>
     <use x="447.900391" xlink:href="#DejaVuSans-108"/>
     <use x="475.683594" xlink:href="#DejaVuSans-117"/>
     <use x="539.0625" xlink:href="#DejaVuSans-110"/>
     <use x="602.441406" xlink:href="#DejaVuSans-103"/>
     <use x="665.917969" xlink:href="#DejaVuSans-99"/>
     <use x="720.898438" xlink:href="#DejaVuSans-97"/>
     <use x="782.177734" xlink:href="#DejaVuSans-110"/>
     <use x="845.556641" xlink:href="#DejaVuSans-99"/>
     <use x="900.537109" xlink:href="#DejaVuSans-101"/>
     <use x="962.060547" xlink:href="#DejaVuSans-114"/>
     <use x="1003.173828" xlink:href="#DejaVuSans-32"/>
     <use x="1034.960938" xlink:href="#DejaVuSans-83"/>
     <use x="1098.4375" xlink:href="#DejaVuSans-118"/>
     <use x="1157.617188" xlink:href="#DejaVuSans-101"/>
     <use x="1219.140625" xlink:href="#DejaVuSans-114"/>
     <use x="1260.253906" xlink:href="#DejaVuSans-105"/>
     <use x="1288.037109" xlink:href="#DejaVuSans-103"/>
     <use x="1351.513672" xlink:href="#DejaVuSans-101"/>
    </g>
   </g>
   <g id="legend_1">
    <g id="patch_7">
     <path d="M 64.6 302.584 
L 168.3875 302.584 
Q 170.3875 302.584 170.3875 300.584 
L 170.3875 242.8715 
Q 170.3875 240.8715 168.3875 240.8715 
L 64.6 240.8715 
Q 62.6 240.8715 62.6 242.8715 
L 62.6 300.584 
Q 62.6 302.584 64.6 302.584 
z
" style="fill:#ffffff;opacity:0.8;stroke:#cccccc;stroke-linejoin:miter;"/>
    </g>
    <g id="line2d_39">
     <path d="M 66.6 248.969937 
L 86.6 248.969937 
" style="fill:none;stroke:#1f77b4;stroke-linecap:square;stroke-width:1.5;"/>
    </g>
    <g id="line2d_40">
     <g>
      <use style="fill:#1f77b4;stroke:#1f77b4;stroke-linejoin:bevel;" x="76.6" xlink:href="#mcf8afe1913" y="248.969937"/>
     </g>
    </g>
    <g id="text_21">
     <!-- Kvinnor 45–49 -->
     <defs>
      <path d="M 4.890625 30.90625 
L 45.125 30.90625 
L 45.125 23.875 
L 4.890625 23.875 
z
" id="DejaVuSans-8211"/>
     </defs>
     <g transform="translate(94.6 252.469937)scale(0.1 -0.1)">
      <use xlink:href="#DejaVuSans-75"/>
      <use x="65.576172" xlink:href="#DejaVuSans-118"/>
      <use x="124.755859" xlink:href="#DejaVuSans-105"/>
      <use x="152.539062" xlink:href="#DejaVuSans-110"/>
      <use x="215.917969" xlink:href="#DejaVuSans-110"/>
      <use x="279.296875" xlink:href="#DejaVuSans-111"/>
      <use x="340.478516" xlink:href="#DejaVuSans-114"/>
      <use x="381.591797" xlink:href="#DejaVuSans-32"/>
      <use x="413.378906" xlink:href="#DejaVuSans-52"/>
      <use x="477.001953" xlink:href="#DejaVuSans-53"/>
      <use x="540.625" xlink:href="#DejaVuSans-8211"/>
      <use x="590.625" xlink:href="#DejaVuSans-52"/>
      <use x="654.248047" xlink:href="#DejaVuSans-57"/>
     </g>
    </g>
    <g id="line2d_41">
     <path d="M 66.6 263.648062 
L 86.6 263.648062 
" style="fill:none;stroke:#ff7f0e;stroke-linecap:square;stroke-width:1.5;"/>
    </g>
    <g id="line2d_42">
     <g>
      <use style="fill:#ff7f0e;stroke:#ff7f0e;stroke-linejoin:bevel;" x="76.6" xlink:href="#m2971c1d89b" y="263.648062"/>
     </g>
    </g>
    <g id="text_22">
     <!-- Män 45–49 -->
     <defs>
      <path d="M 9.8125 72.90625 
L 24.515625 72.90625 
L 43.109375 23.296875 
L 61.8125 72.90625 
L 76.515625 72.90625 
L 76.515625 0 
L 66.890625 0 
L 66.890625 64.015625 
L 48.09375 14.015625 
L 38.1875 14.015625 
L 19.390625 64.015625 
L 19.390625 0 
L 9.8125 0 
z
" id="DejaVuSans-77"/>
      <path d="M 34.28125 27.484375 
Q 23.390625 27.484375 19.1875 25 
Q 14.984375 22.515625 14.984375 16.5 
Q 14.984375 11.71875 18.140625 8.90625 
Q 21.296875 6.109375 26.703125 6.109375 
Q 34.1875 6.109375 38.703125 11.40625 
Q 43.21875 16.703125 43.21875 25.484375 
L 43.21875 27.484375 
z
M 52.203125 31.203125 
L 52.203125 0 
L 43.21875 0 
L 43.21875 8.296875 
Q 40.140625 3.328125 35.546875 0.953125 
Q 30.953125 -1.421875 24.3125 -1.421875 
Q 15.921875 -1.421875 10.953125 3.296875 
Q 6 8.015625 6 15.921875 
Q 6 25.140625 12.171875 29.828125 
Q 18.359375 34.515625 30.609375 34.515625 
L 43.21875 34.515625 
L 43.21875 35.40625 
Q 43.21875 41.609375 39.140625 45 
Q 35.0625 48.390625 27.6875 48.390625 
Q 23 48.390625 18.546875 47.265625 
Q 14.109375 46.140625 10.015625 43.890625 
L 10.015625 52.203125 
Q 14.9375 54.109375 19.578125 55.046875 
Q 24.21875 56 28.609375 56 
Q 40.484375 56 46.34375 49.84375 
Q 52.203125 43.703125 52.203125 31.203125 
z
M 33.59375 75.78125 
L 43.5 75.78125 
L 43.5 65.921875 
L 33.59375 65.921875 
z
M 14.5 75.78125 
L 24.421875 75.78125 
L 24.421875 65.921875 
L 14.5 65.921875 
z
" id="DejaVuSans-228"/>
     </defs>
     <g transform="translate(94.6 267.148062)scale(0.1 -0.1)">
      <use xlink:href="#DejaVuSans-77"/>
      <use x="86.279297" xlink:href="#DejaVuSans-228"/>
      <use x="147.558594" xlink:href="#DejaVuSans-110"/>
      <use x="210.9375" xlink:href="#DejaVuSans-32"/>
      <use x="242.724609" xlink:href="#DejaVuSans-52"/>
      <use x="306.347656" xlink:href="#DejaVuSans-53"/>
      <use x="369.970703" xlink:href="#DejaVuSans-8211"/>
      <use x="419.970703" xlink:href="#DejaVuSans-52"/>
      <use x="483.59375" xlink:href="#DejaVuSans-57"/>
     </g>
    </g>
    <g id="line2d_43">
     <path d="M 66.6 278.326187 
L 86.6 278.326187 
" style="fill:none;stroke:#2ca02c;stroke-linecap:square;stroke-width:1.5;"/>
    </g>
    <g id="line2d_44">
     <g>
      <use style="fill:#2ca02c;stroke:#2ca02c;stroke-linejoin:bevel;" x="76.6" xlink:href="#m08a758017a" y="278.326187"/>
     </g>
    </g>
    <g id="text_23">
     <!-- Kvinnor 65–69 -->
     <g transform="translate(94.6 281.826187)scale(0.1 -0.1)">
      <use xlink:href="#DejaVuSans-75"/>
      <use x="65.576172" xlink:href="#DejaVuSans-118"/>
      <use x="124.755859" xlink:href="#DejaVuSans-105"/>
      <use x="152.539062" xlink:href="#DejaVuSans-110"/>
      <use x="215.917969" xlink:href="#DejaVuSans-110"/>
      <use x="279.296875" xlink:href="#DejaVuSans-111"/>
      <use x="340.478516" xlink:href="#DejaVuSans-114"/>
      <use x="381.591797" xlink:href="#DejaVuSans-32"/>
      <use x="413.378906" xlink:href="#DejaVuSans-54"/>
      <use x="477.001953" xlink:href="#DejaVuSans-53"/>
      <use x="540.625" xlink:href="#DejaVuSans-8211"/>
      <use x="590.625" xlink:href="#DejaVuSans-54"/>
      <use x="654.248047" xlink:href="#DejaVuSans-57"/>
     </g>
    </g>
    <g id="line2d_45">
     <path d="M 66.6 293.004312 
L 86.6 293.004312 
" style="fill:none;stroke:#d62728;stroke-linecap:square;stroke-width:1.5;"/>
    </g>
    <g id="line2d_46">
     <g>
      <use style="fill:#d62728;stroke:#d62728;stroke-linejoin:bevel;" x="76.6" xlink:href="#mda842c1670" y="293.004312"/>
     </g>
    </g>
    <g id="text_24">
     <!-- Män 65–69 -->
     <g transform="translate(94.6 296.504312)scale(0.1 -0.1)">
      <use xlink:href="#DejaVuSans-77"/>
      <use x="86.279297" xlink:href="#DejaVuSans-228"/>
      <use x="147.558594" xlink:href="#DejaVuSans-110"/>
      <use x="210.9375" xlink:href="#DejaVuSans-32"/>
      <use x="242.724609" xlink:href="#DejaVuSans-54"/>
      <use x="306.347656" xlink:href="#DejaVuSans-53"/>
      <use x="369.970703" xlink:href="#DejaVuSans-8211"/>
      <use x="419.970703" xlink:href="#DejaVuSans-54"/>
      <use x="483.59375" xlink:href="#DejaVuSans-57"/>
     </g>
    </g>
   </g>
  </g>
 </g>
 <defs>
  <clipPath id="p4d9f85b083">
   <rect height="266.112" width="357.12" x="57.6" y="41.472"/>
  </clipPath>
 </defs>
</svg>
