<?xml version="1.0" standalone="no"?><!DOCTYPE svg PUBLIC "-//W3C//DTD SVG 1.1//EN" "http://www.w3.org/Graphics/SVG/1.1/DTD/svg11.dtd"><svg version="1.1" xmlns:xlink="http://www.w3.org/1999/xlink" width="800" height="570" style="width: 800px; height: 570px;" xmlns="http://www.w3.org/2000/svg"><defs xmlns="http://www.w3.org/1999/xhtml"><style type="text/css"><![CDATA[
html { width: 100%; height: 100%; }
body { width: 90%; height: 100%; margin: auto; }]]></style></defs><defs/><g><g/><g/><g/><g/><g transform="scale(1,1) translate(0.5,0.5)"><rect fill="#FFFFFF" stroke="none" x="0" y="0" width="800" height="570"/><rect fill="#ffffff" stroke="none" x="0" y="0" width="800" height="570"/><rect fill="#FFFFFF" stroke="none" x="48.282511291503916" y="27.961352539062432" width="509.6784109497071" height="517.256142578125"/><rect fill="#ffffff" stroke="none" x="48.282511291503916" y="27.961352539062432" width="509.6784109497071" height="517.256142578125"/><g><rect fill="none" stroke="#e5e5e5" x="48.282511291503916" y="27.961352539062432" width="509.6784109497071" height="517.256142578125" stroke-miterlimit="10"/></g><g><g><path fill="none" stroke="#e5e5e5" paint-order="fill stroke markers" d=" M 71 545 L 71 28" stroke-miterlimit="10"/><path fill="none" stroke="#e5e5e5" paint-order="fill stroke markers" d=" M 144 545 L 144 28" stroke-miterlimit="10"/><path fill="none" stroke="#e5e5e5" paint-order="fill stroke markers" d=" M 216 545 L 216 28" stroke-miterlimit="10"/><path fill="none" stroke="#e5e5e5" paint-order="fill stroke markers" d=" M 289 545 L 289 28" stroke-miterlimit="10"/><path fill="none" stroke="#e5e5e5" paint-order="fill stroke markers" d=" M 361 545 L 361 28" stroke-miterlimit="10"/><path fill="none" stroke="#e5e5e5" paint-order="fill stroke markers" d=" M 433 545 L 433 28" stroke-miterlimit="10"/><path fill="none" stroke="#e5e5e5" paint-order="fill stroke markers" d=" M 506 545 L 506 28" stroke-miterlimit="10"/></g><g><path fill="none" stroke="#e5e5e5" paint-order="fill stroke markers" d=" M 48 514 L 558 514" stroke-miterlimit="10"/><path fill="none" stroke="#e5e5e5" paint-order="fill stroke markers" d=" M 48 447 L 558 447" stroke-miterlimit="10"/><path fill="none" stroke="#e5e5e5" paint-order="fill stroke markers" d=" M 48 381 L 558 381" stroke-miterlimit="10"/><path fill="none" stroke="#e5e5e5" paint-order="fill stroke markers" d=" M 48 314 L 558 314" stroke-miterlimit="10"/><path fill="none" stroke="#e5e5e5" paint-order="fill stroke markers" d=" M 48 248 L 558 248" stroke-miterlimit="10"/><path fill="none" stroke="#e5e5e5" paint-order="fill stroke markers" d=" M 48 181 L 558 181" stroke-miterlimit="10"/><path fill="none" stroke="#e5e5e5" paint-order="fill stroke markers" d=" M 48 115 L 558 115" stroke-miterlimit="10"/><path fill="none" stroke="#e5e5e5" paint-order="fill stroke markers" d=" M 48 48 L 558 48" stroke-miterlimit="10"/></g><g><path fill="none" stroke="none"/><path fill="#1f77b4" stroke="#1f77b4" paint-order="fill stroke markers" d=" M 254.4434656776084 314.961059721202 A 2 2 0 1 1 254.4434646776085 314.9590597215353" stroke-miterlimit="10"/><path fill="#1f77b4" stroke="#1f77b4" paint-order="fill stroke markers" d=" M 261.68321583314355 314.16020985344744 A 2 2 0 1 1 261.6832148331436 314.15820985378076" stroke-miterlimit="10"/><path fill="#1f77b4" stroke="#1f77b4" paint-order="fill stroke markers" d=" M 247.20371552207143 314.0474314090279 A 2 2 0 1 1 247.20371452207152 314.04543140936124" stroke-miterlimit="10"/><path fill="#1f77b4" stroke="#1f77b4" paint-order="fill stroke markers" d=" M 239.96396536653629 311.6505944522178 A 2 2 0 1 1 239.96396436653637 311.6485944525511" stroke-miterlimit="10"/><path fill="#1f77b4" stroke="#1f77b4" paint-order="fill stroke markers" d=" M 232.72421521100114 308.763639791222 A 2 2 0 1 1 232.72421421100123 308.7616397915553" stroke-miterlimit="10"/><path fill="#1f77b4" stroke="#1f77b4" paint-order="fill stroke markers" d=" M 225.484465055466 304.28789402530697 A 2 2 0 1 1 225.48446405546608 304.2858940256403" stroke-miterlimit="10"/><path fill="#1f77b4" stroke="#1f77b4" paint-order="fill stroke markers" d=" M 218.24471489992902 302.5869625713551 A 2 2 0 1 1 218.2447138999291 302.58496257168844" stroke-miterlimit="10"/><path fill="#1f77b4" stroke="#1f77b4" paint-order="fill stroke markers" d=" M 211.00496474439387 299.40956608663066 A 2 2 0 1 1 211.00496374439396 299.407566086964" stroke-miterlimit="10"/><path fill="#1f77b4" stroke="#1f77b4" paint-order="fill stroke markers" d=" M 203.76521458885873 298.08577524681505 A 2 2 0 1 1 203.7652135888588 298.08377524714837" stroke-miterlimit="10"/><path fill="#1f77b4" stroke="#1f77b4" paint-order="fill stroke markers" d=" M 196.52546443332358 293.0402432946646 A 2 2 0 1 1 196.52546343332367 293.0382432949979" stroke-miterlimit="10"/><path fill="#1f77b4" stroke="#1f77b4" paint-order="fill stroke markers" d=" M 189.2857142777866 290.47797564552036 A 2 2 0 1 1 189.2857132777867 290.4759756458537" stroke-miterlimit="10"/><path fill="#1f77b4" stroke="#1f77b4" paint-order="fill stroke markers" d=" M 153.08696350010905 277.90038578051235 A 2 2 0 1 1 153.08696250010914 277.8983857808457" stroke-miterlimit="10"/><path fill="#1f77b4" stroke="#1f77b4" paint-order="fill stroke markers" d=" M 160.3267136556442 280.79963057345697 A 2 2 0 1 1 160.3267126556443 280.7976305737903" stroke-miterlimit="10"/><path fill="#1f77b4" stroke="#1f77b4" paint-order="fill stroke markers" d=" M 167.56646381118117 282.1703270708738 A 2 2 0 1 1 167.56646281118125 282.1683270712071" stroke-miterlimit="10"/><path fill="#1f77b4" stroke="#1f77b4" paint-order="fill stroke markers" d=" M 174.8062139667163 285.5257689890516 A 2 2 0 1 1 174.8062129667164 285.5237689893849" stroke-miterlimit="10"/><path fill="#1f77b4" stroke="#1f77b4" paint-order="fill stroke markers" d=" M 182.04596412225146 287.1561598923289 A 2 2 0 1 1 182.04596312225155 287.1541598926622" stroke-miterlimit="10"/><path fill="#1f77b4" stroke="#1f77b4" paint-order="fill stroke markers" d=" M 138.60746318903875 277.63326330220787 A 2 2 0 1 1 138.60746218903884 277.6312633025412" stroke-miterlimit="10"/><path fill="#1f77b4" stroke="#1f77b4" paint-order="fill stroke markers" d=" M 145.8472133445739 277.41796296631594 A 2 2 0 1 1 145.847212344574 277.41596296664926" stroke-miterlimit="10"/><path fill="#1f77b4" stroke="#1f77b4" paint-order="fill stroke markers" d=" M 131.3677130335018 276.6117557113814 A 2 2 0 1 1 131.36771203350187 276.60975571171474" stroke-miterlimit="10"/><path fill="#1f77b4" stroke="#1f77b4" paint-order="fill stroke markers" d=" M 124.12796287796664 275.87355334953986 A 2 2 0 1 1 124.12796187796673 275.8715533498732" stroke-miterlimit="10"/><path fill="#1f77b4" stroke="#1f77b4" paint-order="fill stroke markers" d=" M 116.88821272243149 273.9612118138232 A 2 2 0 1 1 116.88821172243158 273.9592118141565" stroke-miterlimit="10"/><path fill="#1f77b4" stroke="#1f77b4" paint-order="fill stroke markers" d=" M 109.64846256689634 270.19354486582347 A 2 2 0 1 1 109.64846156689643 270.1915448661568" stroke-miterlimit="10"/><path fill="#1f77b4" stroke="#1f77b4" paint-order="fill stroke markers" d=" M 102.40871241135937 269.2407116374137 A 2 2 0 1 1 102.40871141135946 269.23871163774703" stroke-miterlimit="10"/><path fill="#1f77b4" stroke="#1f77b4" paint-order="fill stroke markers" d=" M 95.16896225582423 269.03887236861874 A 2 2 0 1 1 95.16896125582431 269.03687236895206" stroke-miterlimit="10"/><path fill="#1f77b4" stroke="#1f77b4" paint-order="fill stroke markers" d=" M 87.92921210028908 267.1939270555729 A 2 2 0 1 1 87.92921110028917 267.1919270559062" stroke-miterlimit="10"/><path fill="#1f77b4" stroke="#1f77b4" paint-order="fill stroke markers" d=" M 80.68946194475393 265.06362434025846 A 2 2 0 1 1 80.68946094475402 265.0616243405918" stroke-miterlimit="10"/><path fill="#1f77b4" stroke="#1f77b4" paint-order="fill stroke markers" d=" M 73.44971178921696 261.0603485210647 A 2 2 0 1 1 73.44971078921705 261.05834852139805" stroke-miterlimit="10"/><path fill="#1f77b4" stroke="#1f77b4" paint-order="fill stroke markers" d=" M 341.32046754403564 332.27488272658184 A 2 2 0 1 1 341.3204665440357 332.27288272691516" stroke-miterlimit="10"/><path fill="#1f77b4" stroke="#1f77b4" paint-order="fill stroke markers" d=" M 391.9987186327835 334.3524813068482 A 2 2 0 1 1 391.99871763278355 334.3504813071815" stroke-miterlimit="10"/><path fill="#1f77b4" stroke="#1f77b4" paint-order="fill stroke markers" d=" M 384.75896847724835 334.6354959319458 A 2 2 0 1 1 384.7589674772484 334.6334959322791" stroke-miterlimit="10"/><path fill="#1f77b4" stroke="#1f77b4" paint-order="fill stroke markers" d=" M 377.5192183217132 335.0923211666952 A 2 2 0 1 1 377.51921732171326 335.09032116702855" stroke-miterlimit="10"/><path fill="#1f77b4" stroke="#1f77b4" paint-order="fill stroke markers" d=" M 370.27946816617805 334.70583886216036 A 2 2 0 1 1 370.2794671661781 334.7038388624937" stroke-miterlimit="10"/><path fill="#1f77b4" stroke="#1f77b4" paint-order="fill stroke markers" d=" M 363.0397180106411 334.5186131293349 A 2 2 0 1 1 363.03971701064114 334.5166131296682" stroke-miterlimit="10"/><path fill="#1f77b4" stroke="#1f77b4" paint-order="fill stroke markers" d=" M 355.79996785510593 332.7373693054602 A 2 2 0 1 1 355.799966855106 332.73536930579354" stroke-miterlimit="10"/><path fill="#1f77b4" stroke="#1f77b4" paint-order="fill stroke markers" d=" M 399.23846878832046 331.9897108595211 A 2 2 0 1 1 399.2384677883205 331.9877108598544" stroke-miterlimit="10"/><path fill="#1f77b4" stroke="#1f77b4" paint-order="fill stroke markers" d=" M 348.5602176995708 330.95981451803755 A 2 2 0 1 1 348.56021669957084 330.95781451837087" stroke-miterlimit="10"/><path fill="#1f77b4" stroke="#1f77b4" paint-order="fill stroke markers" d=" M 334.08071738849867 330.29613974943936 A 2 2 0 1 1 334.08071638849873 330.2941397497727" stroke-miterlimit="10"/><path fill="#1f77b4" stroke="#1f77b4" paint-order="fill stroke markers" d=" M 283.4024662997508 323.8808574362464 A 2 2 0 1 1 283.4024652997509 323.8788574365797" stroke-miterlimit="10"/><path fill="#1f77b4" stroke="#1f77b4" paint-order="fill stroke markers" d=" M 406.4782189438556 323.96590577394943 A 2 2 0 1 1 406.47821794385567 323.96390577428275" stroke-miterlimit="10"/><path fill="#1f77b4" stroke="#1f77b4" paint-order="fill stroke markers" d=" M 290.64221645528596 324.9148399195002 A 2 2 0 1 1 290.642215455286 324.9128399198335" stroke-miterlimit="10"/><path fill="#1f77b4" stroke="#1f77b4" paint-order="fill stroke markers" d=" M 326.8409672329635 323.3188788592628 A 2 2 0 1 1 326.8409662329636 323.3168788595961" stroke-miterlimit="10"/><path fill="#1f77b4" stroke="#1f77b4" paint-order="fill stroke markers" d=" M 297.8819666108211 322.8718204388199 A 2 2 0 1 1 297.88196561082117 322.8698204391532" stroke-miterlimit="10"/><path fill="#1f77b4" stroke="#1f77b4" paint-order="fill stroke markers" d=" M 305.12171676635626 321.9792198699206 A 2 2 0 1 1 305.1217157663563 321.9772198702539" stroke-miterlimit="10"/><path fill="#1f77b4" stroke="#1f77b4" paint-order="fill stroke markers" d=" M 319.6012170774284 321.9198428132129 A 2 2 0 1 1 319.60121607742843 321.9178428135462" stroke-miterlimit="10"/><path fill="#1f77b4" stroke="#1f77b4" paint-order="fill stroke markers" d=" M 312.3614669218932 320.8514066742987 A 2 2 0 1 1 312.3614659218933 320.849406674632" stroke-miterlimit="10"/><path fill="#1f77b4" stroke="#1f77b4" paint-order="fill stroke markers" d=" M 276.16271614421385 319.9679145078528 A 2 2 0 1 1 276.1627151442139 319.96591450818613" stroke-miterlimit="10"/><path fill="#1f77b4" stroke="#1f77b4" paint-order="fill stroke markers" d=" M 268.9229659886787 317.13529100266 A 2 2 0 1 1 268.92296498867876 317.1332910029933" stroke-miterlimit="10"/><path fill="#1f77b4" stroke="#1f77b4" paint-order="fill stroke markers" d=" M 413.71796909939076 315.03116695863594 A 2 2 0 1 1 413.7179680993908 315.02916695896926" stroke-miterlimit="10"/><path fill="#1f77b4" stroke="#1f77b4" paint-order="fill stroke markers" d=" M 420.9577192549259 313.7903678471855 A 2 2 0 1 1 420.95771825492596 313.7883678475188" stroke-miterlimit="10"/><path fill="#1f77b4" stroke="#1f77b4" paint-order="fill stroke markers" d=" M 428.1974694104629 315.5821129718214 A 2 2 0 1 1 428.19746841046293 315.5801129721547" stroke-miterlimit="10"/><path fill="#1f77b4" stroke="#1f77b4" paint-order="fill stroke markers" d=" M 435.437219565998 310.97393466077256 A 2 2 0 1 1 435.4372185659981 310.9719346611059" stroke-miterlimit="10"/><path fill="#1f77b4" stroke="#1f77b4" paint-order="fill stroke markers" d=" M 442.67696972153317 313.268567826227 A 2 2 0 1 1 442.6769687215332 313.26656782656033" stroke-miterlimit="10"/><path fill="#1f77b4" stroke="#1f77b4" paint-order="fill stroke markers" d=" M 449.9167198770683 307.20488845972557 A 2 2 0 1 1 449.9167188770684 307.2028884600589" stroke-miterlimit="10"/><path fill="#1f77b4" stroke="#1f77b4" paint-order="fill stroke markers" d=" M 457.1564700326053 302.9067981978952 A 2 2 0 1 1 457.15646903260534 302.90479819822855" stroke-miterlimit="10"/><path fill="#1f77b4" stroke="#1f77b4" paint-order="fill stroke markers" d=" M 464.39622018814043 301.4829329308668 A 2 2 0 1 1 464.3962191881405 301.48093293120013" stroke-miterlimit="10"/><path fill="#1f77b4" stroke="#1f77b4" paint-order="fill stroke markers" d=" M 471.6359703436756 299.02379246129544 A 2 2 0 1 1 471.63596934367564 299.02179246162876" stroke-miterlimit="10"/><path fill="#1f77b4" stroke="#1f77b4" paint-order="fill stroke markers" d=" M 478.87572049921073 294.0962784774233 A 2 2 0 1 1 478.8757194992108 294.09427847775663" stroke-miterlimit="10"/><path fill="#1f77b4" stroke="#1f77b4" paint-order="fill stroke markers" d=" M 486.1154706547477 289.77288144490274 A 2 2 0 1 1 486.11546965474776 289.77088144523606" stroke-miterlimit="10"/><path fill="#1f77b4" stroke="#1f77b4" paint-order="fill stroke markers" d=" M 493.35522081028284 285.90590433962007 A 2 2 0 1 1 493.3552198102829 285.9039043399534" stroke-miterlimit="10"/><path fill="#1f77b4" stroke="#1f77b4" paint-order="fill stroke markers" d=" M 500.594970965818 276.3072720571648 A 2 2 0 1 1 500.59496996581805 276.30527205749814" stroke-miterlimit="10"/><path fill="#1f77b4" stroke="#1f77b4" paint-order="fill stroke markers" d=" M 507.83472112135314 272.8994282171309 A 2 2 0 1 1 507.8347201213532 272.8974282174642" stroke-miterlimit="10"/><path fill="#1f77b4" stroke="#1f77b4" paint-order="fill stroke markers" d=" M 515.0744712768901 266.4464031954342 A 2 2 0 1 1 515.0744702768902 266.4444031957675" stroke-miterlimit="10"/><path fill="#1f77b4" stroke="#1f77b4" paint-order="fill stroke markers" d=" M 522.3142214324253 262.50387372292334 A 2 2 0 1 1 522.3142204324254 262.50187372325667" stroke-miterlimit="10"/><path fill="#1f77b4" stroke="#1f77b4" paint-order="fill stroke markers" d=" M 536.7937217434956 254.24169821090288 A 2 2 0 1 1 536.7937207434957 254.2396982112362" stroke-miterlimit="10"/><path fill="#1f77b4" stroke="#1f77b4" paint-order="fill stroke markers" d=" M 529.5539715879604 253.80125824612549 A 2 2 0 1 1 529.5539705879605 253.7992582464588" stroke-miterlimit="10"/></g><g><path fill="none" stroke="none"/><path fill="none" stroke="#1f77b4" paint-order="fill stroke markers" d=" M 71.44971178921696 262.11189674847424 L 78.68946194475393 263.7151089145003 L 85.92921210028908 265.37417307617125 L 93.16896225582423 267.0872658612701 L 100.40871241135937 268.8520956677273 L 107.64846256689634 270.66657592291483 L 114.88821272243149 272.5276228111659 L 122.12796287796664 274.4327785992908 L 129.3677130335018 276.37785771956544 L 136.60746318903875 278.3602392491696 L 143.8472133445739 280.3745958291713 L 151.08696350010905 282.418502319783 L 158.3267136556442 284.486423340845 L 165.56646381118117 286.57671733681104 L 172.8062139667163 288.6855311877813 L 180.04596412225146 290.81291985547307 L 187.2857142777866 292.9593842776869 L 194.52546443332358 295.12814272472735 L 201.76521458885873 297.32747336193665 L 209.00496474439387 299.56630474985013 L 216.24471489992902 301.8547919201617 L 223.484465055466 304.2095171897115 L 230.72421521100114 306.5863530031611 L 237.96396536653629 308.9970774530559 L 245.20371552207143 311.25052482735293 L 252.4434656776084 313.31826978686115 L 259.68321583314355 315.2872130778957 L 266.9229659886787 317.1463467793262 L 274.16271614421385 318.94162882198896 L 281.4024662997508 320.6534843085975 L 288.64221645528596 322.27083245660174 L 295.8819666108211 323.78042260174266 L 303.12171676635626 325.3703064564745 L 310.3614669218932 326.79028617542224 L 317.6012170774284 328.0335966996198 L 324.8409672329635 329.1214017524627 L 332.08071738849867 329.9911879963622 L 339.32046754403564 330.6618129474017 L 346.5602176995708 331.0817254467688 L 353.79996785510593 331.271209661301 L 361.0397180106411 331.16394449383256 L 368.27946816617805 330.75670435674044 L 375.5192183217132 330.0594769198301 L 382.75896847724835 329.06566933248155 L 389.9987186327835 327.823846021236 L 397.23846878832046 326.3322557143217 L 404.4782189438556 324.5872583929372 L 411.71796909939076 322.58676499831654 L 418.9577192549259 320.3184418435952 L 426.1974694104629 317.7992508928314 L 433.437219565998 315.0215675640203 L 440.67696972153317 311.9851271510038 L 447.9167198770683 308.69454631730105 L 455.1564700326053 305.15057202566095 L 462.39622018814043 301.3566984532928 L 469.6359703436756 297.3141584383618 L 476.87572049921073 293.024281652705 L 484.1154706547477 288.49096334069463 L 491.35522081028284 283.71513548379005 L 498.594970965818 278.6981853048263 L 505.83472112135314 273.44124281197196 L 513.0744712768901 267.94661697981235 L 520.3142214324253 262.2143926725944 L 527.5539715879604 256.24703721734807 L 534.7937217434956 250.046090515817" stroke-miterlimit="10"/></g><g><path fill="none" stroke="none"/><path fill="#aec7e8" stroke="#aec7e8" paint-order="fill stroke markers" d=" M 261.68321583314355 242.69094082321556 A 2 2 0 1 1 261.6832148331436 242.68894082354888" stroke-miterlimit="10"/><path fill="#aec7e8" stroke="#aec7e8" paint-order="fill stroke markers" d=" M 254.4434656776084 242.30224360856562 A 2 2 0 1 1 254.4434646776085 242.30024360889894" stroke-miterlimit="10"/><path fill="#aec7e8" stroke="#aec7e8" paint-order="fill stroke markers" d=" M 247.20371552207143 239.6708725855193 A 2 2 0 1 1 247.20371452207152 239.66887258585263" stroke-miterlimit="10"/><path fill="#aec7e8" stroke="#aec7e8" paint-order="fill stroke markers" d=" M 232.72421521100114 239.4502769646732 A 2 2 0 1 1 232.72421421100123 239.44827696500653" stroke-miterlimit="10"/><path fill="#aec7e8" stroke="#aec7e8" paint-order="fill stroke markers" d=" M 239.96396536653629 236.4065904897792 A 2 2 0 1 1 239.96396436653637 236.40459049011253" stroke-miterlimit="10"/><path fill="#aec7e8" stroke="#aec7e8" paint-order="fill stroke markers" d=" M 225.484465055466 233.82202809252294 A 2 2 0 1 1 225.48446405546608 233.82002809285626" stroke-miterlimit="10"/><path fill="#aec7e8" stroke="#aec7e8" paint-order="fill stroke markers" d=" M 218.24471489992902 230.69821099629291 A 2 2 0 1 1 218.2447138999291 230.69621099662623" stroke-miterlimit="10"/><path fill="#aec7e8" stroke="#aec7e8" paint-order="fill stroke markers" d=" M 211.00496474439387 226.86846804063032 A 2 2 0 1 1 211.00496374439396 226.86646804096364" stroke-miterlimit="10"/><path fill="#aec7e8" stroke="#aec7e8" paint-order="fill stroke markers" d=" M 203.76521458885873 225.93515822476627 A 2 2 0 1 1 203.7652135888588 225.9331582250996" stroke-miterlimit="10"/><path fill="#aec7e8" stroke="#aec7e8" paint-order="fill stroke markers" d=" M 196.52546443332358 218.85198318226333 A 2 2 0 1 1 196.52546343332367 218.84998318259665" stroke-miterlimit="10"/><path fill="#aec7e8" stroke="#aec7e8" paint-order="fill stroke markers" d=" M 189.2857142777866 215.58134079886702 A 2 2 0 1 1 189.2857132777867 215.57934079920034" stroke-miterlimit="10"/><path fill="#aec7e8" stroke="#aec7e8" paint-order="fill stroke markers" d=" M 182.04596412225146 213.33533732280807 A 2 2 0 1 1 182.04596312225155 213.3333373231414" stroke-miterlimit="10"/><path fill="#aec7e8" stroke="#aec7e8" paint-order="fill stroke markers" d=" M 174.8062139667163 212.52225171468262 A 2 2 0 1 1 174.8062129667164 212.52025171501595" stroke-miterlimit="10"/><path fill="#aec7e8" stroke="#aec7e8" paint-order="fill stroke markers" d=" M 167.56646381118117 208.64274584510133 A 2 2 0 1 1 167.56646281118125 208.64074584543465" stroke-miterlimit="10"/><path fill="#aec7e8" stroke="#aec7e8" paint-order="fill stroke markers" d=" M 124.12796287796664 206.89976771165982 A 2 2 0 1 1 124.12796187796673 206.89776771199314" stroke-miterlimit="10"/><path fill="#aec7e8" stroke="#aec7e8" paint-order="fill stroke markers" d=" M 160.3267136556442 206.60154667245013 A 2 2 0 1 1 160.3267126556443 206.59954667278345" stroke-miterlimit="10"/><path fill="#aec7e8" stroke="#aec7e8" paint-order="fill stroke markers" d=" M 131.3677130335018 205.640192931274 A 2 2 0 1 1 131.36771203350187 205.6381929316073" stroke-miterlimit="10"/><path fill="#aec7e8" stroke="#aec7e8" paint-order="fill stroke markers" d=" M 145.8472133445739 204.93393501568664 A 2 2 0 1 1 145.847212344574 204.93193501601996" stroke-miterlimit="10"/><path fill="#aec7e8" stroke="#aec7e8" paint-order="fill stroke markers" d=" M 116.88821272243149 203.8258787960798 A 2 2 0 1 1 116.88821172243158 203.8238787964131" stroke-miterlimit="10"/><path fill="#aec7e8" stroke="#aec7e8" paint-order="fill stroke markers" d=" M 138.60746318903875 203.7838315674844 A 2 2 0 1 1 138.60746218903884 203.78183156781773" stroke-miterlimit="10"/><path fill="#aec7e8" stroke="#aec7e8" paint-order="fill stroke markers" d=" M 153.08696350010905 202.98906275192712 A 2 2 0 1 1 153.08696250010914 202.98706275226044" stroke-miterlimit="10"/><path fill="#aec7e8" stroke="#aec7e8" paint-order="fill stroke markers" d=" M 109.64846256689634 199.9445975894962 A 2 2 0 1 1 109.64846156689643 199.94259758982952" stroke-miterlimit="10"/><path fill="#aec7e8" stroke="#aec7e8" paint-order="fill stroke markers" d=" M 102.40871241135937 196.42715882188952 A 2 2 0 1 1 102.40871141135946 196.42515882222284" stroke-miterlimit="10"/><path fill="#aec7e8" stroke="#aec7e8" paint-order="fill stroke markers" d=" M 95.16896225582423 197.25587462648787 A 2 2 0 1 1 95.16896125582431 197.2538746268212" stroke-miterlimit="10"/><path fill="#aec7e8" stroke="#aec7e8" paint-order="fill stroke markers" d=" M 87.92921210028908 196.1926641390695 A 2 2 0 1 1 87.92921110028917 196.19066413940283" stroke-miterlimit="10"/><path fill="#aec7e8" stroke="#aec7e8" paint-order="fill stroke markers" d=" M 80.68946194475393 193.13678682139505 A 2 2 0 1 1 80.68946094475402 193.13478682172837" stroke-miterlimit="10"/><path fill="#aec7e8" stroke="#aec7e8" paint-order="fill stroke markers" d=" M 73.44971178921696 192.75602763164875 A 2 2 0 1 1 73.44971078921705 192.75402763198207" stroke-miterlimit="10"/><path fill="#aec7e8" stroke="#aec7e8" paint-order="fill stroke markers" d=" M 355.79996785510593 292.0796642428544 A 2 2 0 1 1 355.799966855106 292.0776642431877" stroke-miterlimit="10"/><path fill="#aec7e8" stroke="#aec7e8" paint-order="fill stroke markers" d=" M 391.9987186327835 294.68118039084015 A 2 2 0 1 1 391.99871763278355 294.6791803911735" stroke-miterlimit="10"/><path fill="#aec7e8" stroke="#aec7e8" paint-order="fill stroke markers" d=" M 384.75896847724835 297.0194826223427 A 2 2 0 1 1 384.7589674772484 297.017482622676" stroke-miterlimit="10"/><path fill="#aec7e8" stroke="#aec7e8" paint-order="fill stroke markers" d=" M 377.5192183217132 296.0347443475597 A 2 2 0 1 1 377.51921732171326 296.032744347893" stroke-miterlimit="10"/><path fill="#aec7e8" stroke="#aec7e8" paint-order="fill stroke markers" d=" M 370.27946816617805 296.3517363884814 A 2 2 0 1 1 370.2794671661781 296.34973638881473" stroke-miterlimit="10"/><path fill="#aec7e8" stroke="#aec7e8" paint-order="fill stroke markers" d=" M 363.0397180106411 294.55061108489167 A 2 2 0 1 1 363.03971701064114 294.548611085225" stroke-miterlimit="10"/><path fill="#aec7e8" stroke="#aec7e8" paint-order="fill stroke markers" d=" M 399.23846878832046 291.53283510405277 A 2 2 0 1 1 399.2384677883205 291.5308351043861" stroke-miterlimit="10"/><path fill="#aec7e8" stroke="#aec7e8" paint-order="fill stroke markers" d=" M 348.5602176995708 289.9658582871997 A 2 2 0 1 1 348.56021669957084 289.963858287533" stroke-miterlimit="10"/><path fill="#aec7e8" stroke="#aec7e8" paint-order="fill stroke markers" d=" M 341.32046754403564 288.895585095151 A 2 2 0 1 1 341.3204665440357 288.8935850954843" stroke-miterlimit="10"/><path fill="#aec7e8" stroke="#aec7e8" paint-order="fill stroke markers" d=" M 334.08071738849867 285.48789693819833 A 2 2 0 1 1 334.08071638849873 285.48589693853165" stroke-miterlimit="10"/><path fill="#aec7e8" stroke="#aec7e8" paint-order="fill stroke markers" d=" M 326.8409672329635 275.32550845360413 A 2 2 0 1 1 326.8409662329636 275.32350845393745" stroke-miterlimit="10"/><path fill="#aec7e8" stroke="#aec7e8" paint-order="fill stroke markers" d=" M 406.4782189438556 282.22073658571094 A 2 2 0 1 1 406.47821794385567 282.21873658604426" stroke-miterlimit="10"/><path fill="#aec7e8" stroke="#aec7e8" paint-order="fill stroke markers" d=" M 413.71796909939076 273.31166806072474 A 2 2 0 1 1 413.7179680993908 273.30966806105806" stroke-miterlimit="10"/><path fill="#aec7e8" stroke="#aec7e8" paint-order="fill stroke markers" d=" M 319.6012170774284 272.96988831963745 A 2 2 0 1 1 319.60121607742843 272.96788831997077" stroke-miterlimit="10"/><path fill="#aec7e8" stroke="#aec7e8" paint-order="fill stroke markers" d=" M 312.3614669218932 271.0053928321613 A 2 2 0 1 1 312.3614659218933 271.0033928324946" stroke-miterlimit="10"/><path fill="#aec7e8" stroke="#aec7e8" paint-order="fill stroke markers" d=" M 428.1974694104629 271.3495485751939 A 2 2 0 1 1 428.19746841046293 271.34754857552724" stroke-miterlimit="10"/><path fill="#aec7e8" stroke="#aec7e8" paint-order="fill stroke markers" d=" M 420.9577192549259 270.985990769419 A 2 2 0 1 1 420.95771825492596 270.9839907697523" stroke-miterlimit="10"/><path fill="#aec7e8" stroke="#aec7e8" paint-order="fill stroke markers" d=" M 442.67696972153317 269.4831141779583 A 2 2 0 1 1 442.6769687215332 269.48111417829165" stroke-miterlimit="10"/><path fill="#aec7e8" stroke="#aec7e8" paint-order="fill stroke markers" d=" M 305.12171676635626 269.31449370415294 A 2 2 0 1 1 305.1217157663563 269.31249370448626" stroke-miterlimit="10"/><path fill="#aec7e8" stroke="#aec7e8" paint-order="fill stroke markers" d=" M 290.64221645528596 268.9431703327458 A 2 2 0 1 1 290.642215455286 268.9411703330791" stroke-miterlimit="10"/><path fill="#aec7e8" stroke="#aec7e8" paint-order="fill stroke markers" d=" M 435.437219565998 267.22005895121424 A 2 2 0 1 1 435.4372185659981 267.21805895154756" stroke-miterlimit="10"/><path fill="#aec7e8" stroke="#aec7e8" paint-order="fill stroke markers" d=" M 297.8819666108211 266.83389872761984 A 2 2 0 1 1 297.88196561082117 266.83189872795316" stroke-miterlimit="10"/><path fill="#aec7e8" stroke="#aec7e8" paint-order="fill stroke markers" d=" M 283.4024662997508 264.1000232962664 A 2 2 0 1 1 283.4024652997509 264.0980232965997" stroke-miterlimit="10"/><path fill="#aec7e8" stroke="#aec7e8" paint-order="fill stroke markers" d=" M 449.9167198770683 260.40955636340414 A 2 2 0 1 1 449.9167188770684 260.40755636373746" stroke-miterlimit="10"/><path fill="#aec7e8" stroke="#aec7e8" paint-order="fill stroke markers" d=" M 457.1564700326053 258.2277897258065 A 2 2 0 1 1 457.15646903260534 258.2257897261398" stroke-miterlimit="10"/><path fill="#aec7e8" stroke="#aec7e8" paint-order="fill stroke markers" d=" M 276.16271614421385 253.1965672650549 A 2 2 0 1 1 276.1627151442139 253.19456726538823" stroke-miterlimit="10"/><path fill="#aec7e8" stroke="#aec7e8" paint-order="fill stroke markers" d=" M 268.9229659886787 247.12321145667022 A 2 2 0 1 1 268.92296498867876 247.12121145700354" stroke-miterlimit="10"/><path fill="#aec7e8" stroke="#aec7e8" paint-order="fill stroke markers" d=" M 464.39622018814043 256.02045424067273 A 2 2 0 1 1 464.3962191881405 256.01845424100605" stroke-miterlimit="10"/><path fill="#aec7e8" stroke="#aec7e8" paint-order="fill stroke markers" d=" M 471.6359703436756 254.3384036837282 A 2 2 0 1 1 471.63596934367564 254.3364036840615" stroke-miterlimit="10"/><path fill="#aec7e8" stroke="#aec7e8" paint-order="fill stroke markers" d=" M 478.87572049921073 246.16274600912686 A 2 2 0 1 1 478.8757194992108 246.16074600946018" stroke-miterlimit="10"/><path fill="#aec7e8" stroke="#aec7e8" paint-order="fill stroke markers" d=" M 486.1154706547477 242.32974380561234 A 2 2 0 1 1 486.11546965474776 242.32774380594566" stroke-miterlimit="10"/><path fill="#aec7e8" stroke="#aec7e8" paint-order="fill stroke markers" d=" M 493.35522081028284 236.1549438725002 A 2 2 0 1 1 493.3552198102829 236.15294387283353" stroke-miterlimit="10"/><path fill="#aec7e8" stroke="#aec7e8" paint-order="fill stroke markers" d=" M 500.594970965818 224.32132334965013 A 2 2 0 1 1 500.59496996581805 224.31932334998345" stroke-miterlimit="10"/><path fill="#aec7e8" stroke="#aec7e8" paint-order="fill stroke markers" d=" M 507.83472112135314 219.4029712440523 A 2 2 0 1 1 507.8347201213532 219.40097124438563" stroke-miterlimit="10"/><path fill="#aec7e8" stroke="#aec7e8" paint-order="fill stroke markers" d=" M 515.0744712768901 212.02903380192424 A 2 2 0 1 1 515.0744702768902 212.02703380225756" stroke-miterlimit="10"/><path fill="#aec7e8" stroke="#aec7e8" paint-order="fill stroke markers" d=" M 522.3142214324253 206.6679601972039 A 2 2 0 1 1 522.3142204324254 206.66596019753723" stroke-miterlimit="10"/><path fill="#aec7e8" stroke="#aec7e8" paint-order="fill stroke markers" d=" M 529.5539715879604 198.27280105517605 A 2 2 0 1 1 529.5539705879605 198.27080105550937" stroke-miterlimit="10"/><path fill="#aec7e8" stroke="#aec7e8" paint-order="fill stroke markers" d=" M 536.7937217434956 195.878667592306 A 2 2 0 1 1 536.7937207434957 195.8766675926393" stroke-miterlimit="10"/></g><g><path fill="none" stroke="none"/><path fill="none" stroke="#aec7e8" paint-order="fill stroke markers" d=" M 71.44971178921696 194.2959779362402 L 78.68946194475393 194.95918547167116 L 85.92921210028908 195.73510501716623 L 93.16896225582423 196.62423625229246 L 100.40871241135937 197.62739051586811 L 107.64846256689634 198.74467362835037 L 114.88821272243149 199.9766977166712 L 122.12796287796664 201.322929640712 L 129.3677130335018 202.7827802547081 L 136.60746318903875 204.35517583335388 L 143.8472133445739 206.0378431984152 L 151.08696350010905 207.829431849172 L 158.3267136556442 209.72695852075572 L 165.56646381118117 211.7292027764895 L 172.8062139667163 213.83414790593554 L 180.04596412225146 216.0413026786871 L 187.2857142777866 218.35177559201406 L 194.52546443332358 220.76673255965125 L 201.76521458885873 223.29549920120076 L 209.00496474439387 225.94279531791824 L 216.24471489992902 228.73175491898314 L 223.484465055466 231.6741007007032 L 230.72421521100114 234.7772911707101 L 237.96396536653629 238.05632833823393 L 245.20371552207143 241.46346364856765 L 252.4434656776084 244.96012993873 L 259.68321583314355 248.53283266314895 L 266.9229659886787 252.16943745570302 L 274.16271614421385 255.8776095541989 L 281.4024662997508 259.64474163667796 L 288.64221645528596 263.37560490068336 L 295.8819666108211 267.0860305597962 L 303.12171676635626 270.94798096381646 L 310.3614669218932 274.61133207594673 L 317.6012170774284 277.9717778357739 L 324.8409672329635 281.0979516830263 L 332.08071738849867 283.80697394086746 L 339.32046754403564 286.12658080437154 L 346.5602176995708 287.9409405654526 L 353.79996785510593 289.2689105304179 L 361.0397180106411 290.00940494659073 L 368.27946816617805 290.1542200627607 L 375.5192183217132 289.8199129367712 L 382.75896847724835 289.0030449847993 L 389.9987186327835 287.8458498521078 L 397.23846878832046 286.3368654621959 L 404.4782189438556 284.47826213071926 L 411.71796909939076 282.2626690092353 L 418.9577192549259 279.67935821586434 L 426.1974694104629 276.73236449459773 L 433.437219565998 273.4202714891519 L 440.67696972153317 269.74087197739857 L 447.9167198770683 265.70108155406365 L 455.1564700326053 261.3022753991754 L 462.39622018814043 256.5513478995265 L 469.6359703436756 251.45106868289895 L 476.87572049921073 246.00458619568496 L 484.1154706547477 240.21921813128336 L 491.35522081028284 234.09801861076585 L 498.594970965818 227.64375512438266 L 505.83472112135314 220.8587396672259 L 513.0744712768901 213.74920365513833 L 520.3142214324253 206.31362586652108 L 527.5539715879604 198.55927457252255 L 534.7937217434956 190.49042746198495" stroke-miterlimit="10"/></g><g><path fill="none" stroke="none"/><path fill="#ff7f0e" stroke="#ff7f0e" paint-order="fill stroke markers" d=" M 261.68321583314355 228.36402126640428 A 2 2 0 1 1 261.6832148331436 228.3620212667376" stroke-miterlimit="10"/><path fill="#ff7f0e" stroke="#ff7f0e" paint-order="fill stroke markers" d=" M 254.4434656776084 226.6410863430474 A 2 2 0 1 1 254.4434646776085 226.6390863433807" stroke-miterlimit="10"/><path fill="#ff7f0e" stroke="#ff7f0e" paint-order="fill stroke markers" d=" M 247.20371552207143 225.3114844451103 A 2 2 0 1 1 247.20371452207152 225.30948444544362" stroke-miterlimit="10"/><path fill="#ff7f0e" stroke="#ff7f0e" paint-order="fill stroke markers" d=" M 239.96396536653629 220.7638645614918 A 2 2 0 1 1 239.96396436653637 220.76186456182512" stroke-miterlimit="10"/><path fill="#ff7f0e" stroke="#ff7f0e" paint-order="fill stroke markers" d=" M 232.72421521100114 223.59994668847332 A 2 2 0 1 1 232.72421421100123 223.59794668880664" stroke-miterlimit="10"/><path fill="#ff7f0e" stroke="#ff7f0e" paint-order="fill stroke markers" d=" M 225.484465055466 216.231284962622 A 2 2 0 1 1 225.48446405546608 216.22928496295532" stroke-miterlimit="10"/><path fill="#ff7f0e" stroke="#ff7f0e" paint-order="fill stroke markers" d=" M 218.24471489992902 211.5323952273302 A 2 2 0 1 1 218.2447138999291 211.53039522766352" stroke-miterlimit="10"/><path fill="#ff7f0e" stroke="#ff7f0e" paint-order="fill stroke markers" d=" M 211.00496474439387 205.7376200862351 A 2 2 0 1 1 211.00496374439396 205.73562008656842" stroke-miterlimit="10"/><path fill="#ff7f0e" stroke="#ff7f0e" paint-order="fill stroke markers" d=" M 203.76521458885873 202.73461850671515 A 2 2 0 1 1 203.7652135888588 202.73261850704847" stroke-miterlimit="10"/><path fill="#ff7f0e" stroke="#ff7f0e" paint-order="fill stroke markers" d=" M 196.52546443332358 167.13285372330517 A 2 2 0 1 1 196.52546343332367 167.1308537236385" stroke-miterlimit="10"/><path fill="#ff7f0e" stroke="#ff7f0e" paint-order="fill stroke markers" d=" M 145.8472133445739 131.50128903716586 A 2 2 0 1 1 145.847212344574 131.49928903749918" stroke-miterlimit="10"/><path fill="#ff7f0e" stroke="#ff7f0e" paint-order="fill stroke markers" d=" M 153.08696350010905 130.94022422734065 A 2 2 0 1 1 153.08696250010914 130.93822422767397" stroke-miterlimit="10"/><path fill="#ff7f0e" stroke="#ff7f0e" paint-order="fill stroke markers" d=" M 160.3267136556442 138.97007631999327 A 2 2 0 1 1 160.3267126556443 138.9680763203266" stroke-miterlimit="10"/><path fill="#ff7f0e" stroke="#ff7f0e" paint-order="fill stroke markers" d=" M 167.56646381118117 145.12431922893984 A 2 2 0 1 1 167.56646281118125 145.12231922927316" stroke-miterlimit="10"/><path fill="#ff7f0e" stroke="#ff7f0e" paint-order="fill stroke markers" d=" M 174.8062139667163 150.49462160335963 A 2 2 0 1 1 174.8062129667164 150.49262160369295" stroke-miterlimit="10"/><path fill="#ff7f0e" stroke="#ff7f0e" paint-order="fill stroke markers" d=" M 182.04596412225146 155.70424421102177 A 2 2 0 1 1 182.04596312225155 155.7022442113551" stroke-miterlimit="10"/><path fill="#ff7f0e" stroke="#ff7f0e" paint-order="fill stroke markers" d=" M 189.2857142777866 160.57686529204614 A 2 2 0 1 1 189.2857132777867 160.57486529237946" stroke-miterlimit="10"/><path fill="#ff7f0e" stroke="#ff7f0e" paint-order="fill stroke markers" d=" M 124.12796287796664 129.87118315091868 A 2 2 0 1 1 124.12796187796673 129.869183151252" stroke-miterlimit="10"/><path fill="#ff7f0e" stroke="#ff7f0e" paint-order="fill stroke markers" d=" M 138.60746318903875 127.16788412905703 A 2 2 0 1 1 138.60746218903884 127.16588412939036" stroke-miterlimit="10"/><path fill="#ff7f0e" stroke="#ff7f0e" paint-order="fill stroke markers" d=" M 131.3677130335018 121.55759052047631 A 2 2 0 1 1 131.36771203350187 121.55559052080964" stroke-miterlimit="10"/><path fill="#ff7f0e" stroke="#ff7f0e" paint-order="fill stroke markers" d=" M 116.88821272243149 123.64524535140481 A 2 2 0 1 1 116.88821172243158 123.64324535173814" stroke-miterlimit="10"/><path fill="#ff7f0e" stroke="#ff7f0e" paint-order="fill stroke markers" d=" M 109.64846256689634 117.3390942549421 A 2 2 0 1 1 109.64846156689643 117.33709425527543" stroke-miterlimit="10"/><path fill="#ff7f0e" stroke="#ff7f0e" paint-order="fill stroke markers" d=" M 102.40871241135937 104.64665856628949 A 2 2 0 1 1 102.40871141135946 104.64465856662282" stroke-miterlimit="10"/><path fill="#ff7f0e" stroke="#ff7f0e" paint-order="fill stroke markers" d=" M 95.16896225582423 105.89615365515806 A 2 2 0 1 1 95.16896125582431 105.8941536554914" stroke-miterlimit="10"/><path fill="#ff7f0e" stroke="#ff7f0e" paint-order="fill stroke markers" d=" M 87.92921210028908 101.39727743070932 A 2 2 0 1 1 87.92921110028917 101.39527743104266" stroke-miterlimit="10"/><path fill="#ff7f0e" stroke="#ff7f0e" paint-order="fill stroke markers" d=" M 73.44971178921696 89.68508139398762 A 2 2 0 1 1 73.44971078921705 89.68308139432095" stroke-miterlimit="10"/><path fill="#ff7f0e" stroke="#ff7f0e" paint-order="fill stroke markers" d=" M 80.68946194475393 89.05341298859366 A 2 2 0 1 1 80.68946094475402 89.051412988927" stroke-miterlimit="10"/><path fill="#ff7f0e" stroke="#ff7f0e" paint-order="fill stroke markers" d=" M 348.5602176995708 248.0522362861176 A 2 2 0 1 1 348.56021669957084 248.0502362864509" stroke-miterlimit="10"/><path fill="#ff7f0e" stroke="#ff7f0e" paint-order="fill stroke markers" d=" M 391.9987186327835 249.3691988014698 A 2 2 0 1 1 391.99871763278355 249.3671988018031" stroke-miterlimit="10"/><path fill="#ff7f0e" stroke="#ff7f0e" paint-order="fill stroke markers" d=" M 384.75896847724835 251.0935729661328 A 2 2 0 1 1 384.7589674772484 251.09157296646612" stroke-miterlimit="10"/><path fill="#ff7f0e" stroke="#ff7f0e" paint-order="fill stroke markers" d=" M 377.5192183217132 251.8087176725943 A 2 2 0 1 1 377.51921732171326 251.80671767292762" stroke-miterlimit="10"/><path fill="#ff7f0e" stroke="#ff7f0e" paint-order="fill stroke markers" d=" M 370.27946816617805 254.535939107515 A 2 2 0 1 1 370.2794671661781 254.5339391078483" stroke-miterlimit="10"/><path fill="#ff7f0e" stroke="#ff7f0e" paint-order="fill stroke markers" d=" M 363.0397180106411 252.70249420610605 A 2 2 0 1 1 363.03971701064114 252.70049420643937" stroke-miterlimit="10"/><path fill="#ff7f0e" stroke="#ff7f0e" paint-order="fill stroke markers" d=" M 355.79996785510593 250.47767066142637 A 2 2 0 1 1 355.799966855106 250.4756706617597" stroke-miterlimit="10"/><path fill="#ff7f0e" stroke="#ff7f0e" paint-order="fill stroke markers" d=" M 341.32046754403564 245.04432969019285 A 2 2 0 1 1 341.3204665440357 245.04232969052617" stroke-miterlimit="10"/><path fill="#ff7f0e" stroke="#ff7f0e" paint-order="fill stroke markers" d=" M 399.23846878832046 244.10987138392795 A 2 2 0 1 1 399.2384677883205 244.10787138426127" stroke-miterlimit="10"/><path fill="#ff7f0e" stroke="#ff7f0e" paint-order="fill stroke markers" d=" M 334.08071738849867 241.97576717301115 A 2 2 0 1 1 334.08071638849873 241.97376717334447" stroke-miterlimit="10"/><path fill="#ff7f0e" stroke="#ff7f0e" paint-order="fill stroke markers" d=" M 276.16271614421385 238.99035970284785 A 2 2 0 1 1 276.1627151442139 238.98835970318117" stroke-miterlimit="10"/><path fill="#ff7f0e" stroke="#ff7f0e" paint-order="fill stroke markers" d=" M 268.9229659886787 233.36384033952856 A 2 2 0 1 1 268.92296498867876 233.36184033986189" stroke-miterlimit="10"/><path fill="#ff7f0e" stroke="#ff7f0e" paint-order="fill stroke markers" d=" M 319.6012170774284 229.08573340295584 A 2 2 0 1 1 319.60121607742843 229.08373340328916" stroke-miterlimit="10"/><path fill="#ff7f0e" stroke="#ff7f0e" paint-order="fill stroke markers" d=" M 406.4782189438556 232.5395222738107 A 2 2 0 1 1 406.47821794385567 232.537522274144" stroke-miterlimit="10"/><path fill="#ff7f0e" stroke="#ff7f0e" paint-order="fill stroke markers" d=" M 326.8409672329635 228.86657431510218 A 2 2 0 1 1 326.8409662329636 228.8645743154355" stroke-miterlimit="10"/><path fill="#ff7f0e" stroke="#ff7f0e" paint-order="fill stroke markers" d=" M 312.3614669218932 227.01248044325598 A 2 2 0 1 1 312.3614659218933 227.0104804435893" stroke-miterlimit="10"/><path fill="#ff7f0e" stroke="#ff7f0e" paint-order="fill stroke markers" d=" M 290.64221645528596 223.11421442489382 A 2 2 0 1 1 290.642215455286 223.11221442522714" stroke-miterlimit="10"/><path fill="#ff7f0e" stroke="#ff7f0e" paint-order="fill stroke markers" d=" M 305.12171676635626 222.59629971197194 A 2 2 0 1 1 305.1217157663563 222.59429971230526" stroke-miterlimit="10"/><path fill="#ff7f0e" stroke="#ff7f0e" paint-order="fill stroke markers" d=" M 297.8819666108211 221.37488608108458 A 2 2 0 1 1 297.88196561082117 221.3728860814179" stroke-miterlimit="10"/><path fill="#ff7f0e" stroke="#ff7f0e" paint-order="fill stroke markers" d=" M 413.71796909939076 219.1831482911591 A 2 2 0 1 1 413.7179680993908 219.18114829149243" stroke-miterlimit="10"/><path fill="#ff7f0e" stroke="#ff7f0e" paint-order="fill stroke markers" d=" M 283.4024662997508 216.6227068817684 A 2 2 0 1 1 283.4024652997509 216.62070688210173" stroke-miterlimit="10"/><path fill="#ff7f0e" stroke="#ff7f0e" paint-order="fill stroke markers" d=" M 420.9577192549259 214.01570097107845 A 2 2 0 1 1 420.95771825492596 214.01370097141177" stroke-miterlimit="10"/><path fill="#ff7f0e" stroke="#ff7f0e" paint-order="fill stroke markers" d=" M 428.1974694104629 212.07436337684067 A 2 2 0 1 1 428.19746841046293 212.07236337717399" stroke-miterlimit="10"/><path fill="#ff7f0e" stroke="#ff7f0e" paint-order="fill stroke markers" d=" M 435.437219565998 204.38444928672777 A 2 2 0 1 1 435.4372185659981 204.3824492870611" stroke-miterlimit="10"/><path fill="#ff7f0e" stroke="#ff7f0e" paint-order="fill stroke markers" d=" M 442.67696972153317 203.64703350759805 A 2 2 0 1 1 442.6769687215332 203.64503350793137" stroke-miterlimit="10"/><path fill="#ff7f0e" stroke="#ff7f0e" paint-order="fill stroke markers" d=" M 449.9167198770683 191.08309450118838 A 2 2 0 1 1 449.9167188770684 191.0810945015217" stroke-miterlimit="10"/><path fill="#ff7f0e" stroke="#ff7f0e" paint-order="fill stroke markers" d=" M 457.1564700326053 185.87123248369517 A 2 2 0 1 1 457.15646903260534 185.8692324840285" stroke-miterlimit="10"/><path fill="#ff7f0e" stroke="#ff7f0e" paint-order="fill stroke markers" d=" M 464.39622018814043 178.98006172885664 A 2 2 0 1 1 464.3962191881405 178.97806172918996" stroke-miterlimit="10"/><path fill="#ff7f0e" stroke="#ff7f0e" paint-order="fill stroke markers" d=" M 471.6359703436756 170.46974980925154 A 2 2 0 1 1 471.63596934367564 170.46774980958486" stroke-miterlimit="10"/><path fill="#ff7f0e" stroke="#ff7f0e" paint-order="fill stroke markers" d=" M 478.87572049921073 155.8449302208245 A 2 2 0 1 1 478.8757194992108 155.84293022115781" stroke-miterlimit="10"/><path fill="#ff7f0e" stroke="#ff7f0e" paint-order="fill stroke markers" d=" M 486.1154706547477 147.87354061630208 A 2 2 0 1 1 486.11546965474776 147.8715406166354" stroke-miterlimit="10"/><path fill="#ff7f0e" stroke="#ff7f0e" paint-order="fill stroke markers" d=" M 493.35522081028284 140.01003903337892 A 2 2 0 1 1 493.3552198102829 140.00803903371224" stroke-miterlimit="10"/><path fill="#ff7f0e" stroke="#ff7f0e" paint-order="fill stroke markers" d=" M 500.594970965818 118.61644774893603 A 2 2 0 1 1 500.59496996581805 118.61444774926936" stroke-miterlimit="10"/><path fill="#ff7f0e" stroke="#ff7f0e" paint-order="fill stroke markers" d=" M 507.83472112135314 107.69351226861897 A 2 2 0 1 1 507.8347201213532 107.69151226895231" stroke-miterlimit="10"/><path fill="#ff7f0e" stroke="#ff7f0e" paint-order="fill stroke markers" d=" M 515.0744712768901 92.03878200419808 A 2 2 0 1 1 515.0744702768902 92.03678200453142" stroke-miterlimit="10"/><path fill="#ff7f0e" stroke="#ff7f0e" paint-order="fill stroke markers" d=" M 522.3142214324253 81.37847868005895 A 2 2 0 1 1 522.3142204324254 81.37647868039228" stroke-miterlimit="10"/><path fill="#ff7f0e" stroke="#ff7f0e" paint-order="fill stroke markers" d=" M 529.5539715879604 65.10173249662046 A 2 2 0 1 1 529.5539705879605 65.09973249695379" stroke-miterlimit="10"/><path fill="#ff7f0e" stroke="#ff7f0e" paint-order="fill stroke markers" d=" M 536.7937217434956 55.08896519982238 A 2 2 0 1 1 536.7937207434957 55.08696520015572" stroke-miterlimit="10"/></g><g><path fill="none" stroke="none"/><path fill="none" stroke="#ff7f0e" paint-order="fill stroke markers" d=" M 71.44971178921696 83.23235233548667 L 78.68946194475393 88.90617561250554 L 85.92921210028908 94.66268535538211 L 93.16896225582423 100.49097893233022 L 100.40871241135937 106.3783312482982 L 107.64846256689634 112.31311798700813 L 114.88821272243149 118.27937006394097 L 122.12796287796664 124.26479635218232 L 129.3677130335018 130.24906500846555 L 136.60746318903875 136.22037790478328 L 143.8472133445739 142.155569784587 L 151.08696350010905 148.04494867513085 L 158.3267136556442 153.86672680124218 L 165.56646381118117 159.6155463032229 L 172.8062139667163 165.27733943343128 L 180.04596412225146 170.85423117819084 L 187.2857142777866 176.34889161236538 L 194.52546443332358 181.7754783618235 L 201.76521458885873 187.16373557001066 L 209.00496474439387 192.54622886503194 L 216.24471489992902 197.94345239780864 L 223.484465055466 203.40448295208807 L 230.72421521100114 208.7291037416294 L 237.96396536653629 213.9244222483585 L 245.20371552207143 218.21779306463225 L 252.4434656776084 221.56557193754963 L 259.68321583314355 224.49281640334118 L 266.9229659886787 226.92945618426756 L 274.16271614421385 229.12111132265977 L 281.4024662997508 230.9822138945857 L 288.64221645528596 232.58725544593267 L 295.8819666108211 233.86052178277646 L 303.12171676635626 235.8420333077412 L 310.3614669218932 237.48118458973067 L 317.6012170774284 239.03050541558798 L 324.8409672329635 240.53020076177086 L 332.08071738849867 241.87108167616088 L 339.32046754403564 243.11787965883912 L 346.5602176995708 244.04718282543388 L 353.79996785510593 244.72272412834297 L 361.0397180106411 244.839705236918 L 368.27946816617805 244.36424962777824 L 375.5192183217132 243.17258239085345 L 382.75896847724835 241.2302414132123 L 389.9987186327835 238.6171263295745 L 397.23846878832046 235.34871380161917 L 404.4782189438556 231.42467146962792 L 411.71796909939076 226.8484959877236 L 418.9577192549259 221.58941271511685 L 426.1974694104629 215.71408676132717 L 433.437219565998 209.19097737009236 L 440.67696972153317 202.02206946808428 L 447.9167198770683 194.21527443053844 L 455.1564700326053 185.77143978270442 L 462.39622018814043 176.6948683569857 L 469.6359703436756 166.98643146325458 L 476.87572049921073 156.6463482387942 L 484.1154706547477 145.68093257339558 L 491.35522081028284 134.0891400772116 L 498.594970965818 121.8728251124486 L 505.83472112135314 109.03405761840463 L 513.0744712768901 95.57258211909186 L 520.3142214324253 81.49294830925157 L 527.5539715879604 66.793120825129 L 534.7937217434956 51.47299538352263" stroke-miterlimit="10"/></g><g><path fill="none" stroke="none"/><path fill="#ffbb78" stroke="#ffbb78" paint-order="fill stroke markers" d=" M 196.52546443332358 382.86692054592936 A 2 2 0 1 1 196.52546343332367 382.8649205462627" stroke-miterlimit="10"/><path fill="#ffbb78" stroke="#ffbb78" paint-order="fill stroke markers" d=" M 247.20371552207143 383.16560515223046 A 2 2 0 1 1 247.20371452207152 383.1636051525638" stroke-miterlimit="10"/><path fill="#ffbb78" stroke="#ffbb78" paint-order="fill stroke markers" d=" M 189.2857142777866 382.2683355885724 A 2 2 0 1 1 189.2857132777867 382.26633558890575" stroke-miterlimit="10"/><path fill="#ffbb78" stroke="#ffbb78" paint-order="fill stroke markers" d=" M 87.92921210028908 380.42844642054627 A 2 2 0 1 1 87.92921110028917 380.4264464208796" stroke-miterlimit="10"/><path fill="#ffbb78" stroke="#ffbb78" paint-order="fill stroke markers" d=" M 174.8062139667163 380.2628570466669 A 2 2 0 1 1 174.8062129667164 380.26085704700023" stroke-miterlimit="10"/><path fill="#ffbb78" stroke="#ffbb78" paint-order="fill stroke markers" d=" M 254.4434656776084 379.730395894126 A 2 2 0 1 1 254.4434646776085 379.7283958944593" stroke-miterlimit="10"/><path fill="#ffbb78" stroke="#ffbb78" paint-order="fill stroke markers" d=" M 182.04596412225146 377.9562275494968 A 2 2 0 1 1 182.04596312225155 377.95422754983014" stroke-miterlimit="10"/><path fill="#ffbb78" stroke="#ffbb78" paint-order="fill stroke markers" d=" M 239.96396536653629 380.1424820058696 A 2 2 0 1 1 239.96396436653637 380.14048200620294" stroke-miterlimit="10"/><path fill="#ffbb78" stroke="#ffbb78" paint-order="fill stroke markers" d=" M 160.3267136556442 375.93334118811856 A 2 2 0 1 1 160.3267126556443 375.9313411884519" stroke-miterlimit="10"/><path fill="#ffbb78" stroke="#ffbb78" paint-order="fill stroke markers" d=" M 225.484465055466 374.2026417023359 A 2 2 0 1 1 225.48446405546608 374.2006417026692" stroke-miterlimit="10"/><path fill="#ffbb78" stroke="#ffbb78" paint-order="fill stroke markers" d=" M 261.68321583314355 372.6434589951641 A 2 2 0 1 1 261.6832148331436 372.64145899549743" stroke-miterlimit="10"/><path fill="#ffbb78" stroke="#ffbb78" paint-order="fill stroke markers" d=" M 211.00496474439387 372.2146400315412 A 2 2 0 1 1 211.00496374439396 372.2126400318745" stroke-miterlimit="10"/><path fill="#ffbb78" stroke="#ffbb78" paint-order="fill stroke markers" d=" M 102.40871241135937 372.1657396617685 A 2 2 0 1 1 102.40871141135946 372.1637396621018" stroke-miterlimit="10"/><path fill="#ffbb78" stroke="#ffbb78" paint-order="fill stroke markers" d=" M 167.56646381118117 371.79337736762875 A 2 2 0 1 1 167.56646281118125 371.79137736796207" stroke-miterlimit="10"/><path fill="#ffbb78" stroke="#ffbb78" paint-order="fill stroke markers" d=" M 95.16896225582423 368.50932448031745 A 2 2 0 1 1 95.16896125582431 368.50732448065077" stroke-miterlimit="10"/><path fill="#ffbb78" stroke="#ffbb78" paint-order="fill stroke markers" d=" M 80.68946194475393 371.0904022604725 A 2 2 0 1 1 80.68946094475402 371.0884022608058" stroke-miterlimit="10"/><path fill="#ffbb78" stroke="#ffbb78" paint-order="fill stroke markers" d=" M 203.76521458885873 366.6366456274145 A 2 2 0 1 1 203.7652135888588 366.63464562774783" stroke-miterlimit="10"/><path fill="#ffbb78" stroke="#ffbb78" paint-order="fill stroke markers" d=" M 232.72421521100114 365.2476873064933 A 2 2 0 1 1 232.72421421100123 365.2456873068266" stroke-miterlimit="10"/><path fill="#ffbb78" stroke="#ffbb78" paint-order="fill stroke markers" d=" M 153.08696350010905 365.0195412297227 A 2 2 0 1 1 153.08696250010914 365.017541230056" stroke-miterlimit="10"/><path fill="#ffbb78" stroke="#ffbb78" paint-order="fill stroke markers" d=" M 138.60746318903875 361.2767411172831 A 2 2 0 1 1 138.60746218903884 361.27474111761643" stroke-miterlimit="10"/><path fill="#ffbb78" stroke="#ffbb78" paint-order="fill stroke markers" d=" M 218.24471489992902 360.74569091425167 A 2 2 0 1 1 218.2447138999291 360.743690914585" stroke-miterlimit="10"/><path fill="#ffbb78" stroke="#ffbb78" paint-order="fill stroke markers" d=" M 73.44971178921696 360.72690120304355 A 2 2 0 1 1 73.44971078921705 360.7249012033769" stroke-miterlimit="10"/><path fill="#ffbb78" stroke="#ffbb78" paint-order="fill stroke markers" d=" M 145.8472133445739 360.2045034482984 A 2 2 0 1 1 145.847212344574 360.2025034486317" stroke-miterlimit="10"/><path fill="#ffbb78" stroke="#ffbb78" paint-order="fill stroke markers" d=" M 124.12796287796664 355.80214402579145 A 2 2 0 1 1 124.12796187796673 355.80014402612477" stroke-miterlimit="10"/><path fill="#ffbb78" stroke="#ffbb78" paint-order="fill stroke markers" d=" M 116.88821272243149 357.0297474800458 A 2 2 0 1 1 116.88821172243158 357.0277474803791" stroke-miterlimit="10"/><path fill="#ffbb78" stroke="#ffbb78" paint-order="fill stroke markers" d=" M 109.64846256689634 354.332608647204 A 2 2 0 1 1 109.64846156689643 354.3306086475373" stroke-miterlimit="10"/><path fill="#ffbb78" stroke="#ffbb78" paint-order="fill stroke markers" d=" M 131.3677130335018 351.3840861953229 A 2 2 0 1 1 131.36771203350187 351.3820861956562" stroke-miterlimit="10"/><path fill="#ffbb78" stroke="#ffbb78" paint-order="fill stroke markers" d=" M 276.16271614421385 382.52515762201915 A 2 2 0 1 1 276.1627151442139 382.52315762235247" stroke-miterlimit="10"/><path fill="#ffbb78" stroke="#ffbb78" paint-order="fill stroke markers" d=" M 268.9229659886787 379.9077730863471 A 2 2 0 1 1 268.92296498867876 379.9057730866804" stroke-miterlimit="10"/><path fill="#ffbb78" stroke="#ffbb78" paint-order="fill stroke markers" d=" M 283.4024662997508 364.20801377096245 A 2 2 0 1 1 283.4024652997509 364.2060137712958" stroke-miterlimit="10"/><path fill="#ffbb78" stroke="#ffbb78" paint-order="fill stroke markers" d=" M 290.64221645528596 354.6723675916794 A 2 2 0 1 1 290.642215455286 354.6703675920127" stroke-miterlimit="10"/><path fill="#ffbb78" stroke="#ffbb78" paint-order="fill stroke markers" d=" M 297.8819666108211 352.83991249947826 A 2 2 0 1 1 297.88196561082117 352.8379124998116" stroke-miterlimit="10"/><path fill="#ffbb78" stroke="#ffbb78" paint-order="fill stroke markers" d=" M 305.12171676635626 343.26324579608297 A 2 2 0 1 1 305.1217157663563 343.2612457964163" stroke-miterlimit="10"/><path fill="#ffbb78" stroke="#ffbb78" paint-order="fill stroke markers" d=" M 312.3614669218932 343.6510608265082 A 2 2 0 1 1 312.3614659218933 343.64906082684155" stroke-miterlimit="10"/><path fill="#ffbb78" stroke="#ffbb78" paint-order="fill stroke markers" d=" M 319.6012170774284 333.80964298271385 A 2 2 0 1 1 319.60121607742843 333.8076429830472" stroke-miterlimit="10"/><path fill="#ffbb78" stroke="#ffbb78" paint-order="fill stroke markers" d=" M 334.08071738849867 333.16729699104906 A 2 2 0 1 1 334.08071638849873 333.1652969913824" stroke-miterlimit="10"/><path fill="#ffbb78" stroke="#ffbb78" paint-order="fill stroke markers" d=" M 326.8409672329635 327.90044532288675 A 2 2 0 1 1 326.8409662329636 327.8984453232201" stroke-miterlimit="10"/><path fill="#ffbb78" stroke="#ffbb78" paint-order="fill stroke markers" d=" M 341.32046754403564 323.15115932857077 A 2 2 0 1 1 341.3204665440357 323.1491593289041" stroke-miterlimit="10"/><path fill="#ffbb78" stroke="#ffbb78" paint-order="fill stroke markers" d=" M 348.5602176995708 323.1927146993228 A 2 2 0 1 1 348.56021669957084 323.1907146996561" stroke-miterlimit="10"/><path fill="#ffbb78" stroke="#ffbb78" paint-order="fill stroke markers" d=" M 391.9987186327835 312.68280959432707 A 2 2 0 1 1 391.99871763278355 312.6808095946604" stroke-miterlimit="10"/><path fill="#ffbb78" stroke="#ffbb78" paint-order="fill stroke markers" d=" M 377.5192183217132 303.4294700440636 A 2 2 0 1 1 377.51921732171326 303.4274700443969" stroke-miterlimit="10"/><path fill="#ffbb78" stroke="#ffbb78" paint-order="fill stroke markers" d=" M 406.4782189438556 302.2504027542973 A 2 2 0 1 1 406.47821794385567 302.2484027546306" stroke-miterlimit="10"/><path fill="#ffbb78" stroke="#ffbb78" paint-order="fill stroke markers" d=" M 355.79996785510593 301.3712050313012 A 2 2 0 1 1 355.799966855106 301.3692050316345" stroke-miterlimit="10"/><path fill="#ffbb78" stroke="#ffbb78" paint-order="fill stroke markers" d=" M 428.1974694104629 298.730170215257 A 2 2 0 1 1 428.19746841046293 298.7281702155903" stroke-miterlimit="10"/><path fill="#ffbb78" stroke="#ffbb78" paint-order="fill stroke markers" d=" M 442.67696972153317 297.14546523220974 A 2 2 0 1 1 442.6769687215332 297.14346523254306" stroke-miterlimit="10"/><path fill="#ffbb78" stroke="#ffbb78" paint-order="fill stroke markers" d=" M 384.75896847724835 294.63030160376525 A 2 2 0 1 1 384.7589674772484 294.62830160409857" stroke-miterlimit="10"/><path fill="#ffbb78" stroke="#ffbb78" paint-order="fill stroke markers" d=" M 399.23846878832046 293.9545190207011 A 2 2 0 1 1 399.2384677883205 293.95251902103445" stroke-miterlimit="10"/><path fill="#ffbb78" stroke="#ffbb78" paint-order="fill stroke markers" d=" M 413.71796909939076 291.08737137333276 A 2 2 0 1 1 413.7179680993908 291.0853713736661" stroke-miterlimit="10"/><path fill="#ffbb78" stroke="#ffbb78" paint-order="fill stroke markers" d=" M 420.9577192549259 281.3495266133249 A 2 2 0 1 1 420.95771825492596 281.3475266136582" stroke-miterlimit="10"/><path fill="#ffbb78" stroke="#ffbb78" paint-order="fill stroke markers" d=" M 370.27946816617805 293.4273324667614 A 2 2 0 1 1 370.2794671661781 293.42533246709473" stroke-miterlimit="10"/><path fill="#ffbb78" stroke="#ffbb78" paint-order="fill stroke markers" d=" M 435.437219565998 271.5718898880697 A 2 2 0 1 1 435.4372185659981 271.569889888403" stroke-miterlimit="10"/><path fill="#ffbb78" stroke="#ffbb78" paint-order="fill stroke markers" d=" M 363.0397180106411 290.3329085978903 A 2 2 0 1 1 363.03971701064114 290.33090859822363" stroke-miterlimit="10"/><path fill="#ffbb78" stroke="#ffbb78" paint-order="fill stroke markers" d=" M 449.9167198770683 283.7518154064471 A 2 2 0 1 1 449.9167188770684 283.74981540678044" stroke-miterlimit="10"/><path fill="#ffbb78" stroke="#ffbb78" paint-order="fill stroke markers" d=" M 457.1564700326053 278.4253213884407 A 2 2 0 1 1 457.15646903260534 278.423321388774" stroke-miterlimit="10"/><path fill="#ffbb78" stroke="#ffbb78" paint-order="fill stroke markers" d=" M 522.3142214324253 270.07190645454796 A 2 2 0 1 1 522.3142204324254 270.0699064548813" stroke-miterlimit="10"/><path fill="#ffbb78" stroke="#ffbb78" paint-order="fill stroke markers" d=" M 471.6359703436756 291.1505914646974 A 2 2 0 1 1 471.63596934367564 291.14859146503073" stroke-miterlimit="10"/><path fill="#ffbb78" stroke="#ffbb78" paint-order="fill stroke markers" d=" M 464.39622018814043 298.6668429003928 A 2 2 0 1 1 464.3962191881405 298.6648429007261" stroke-miterlimit="10"/><path fill="#ffbb78" stroke="#ffbb78" paint-order="fill stroke markers" d=" M 486.1154706547477 272.7224222342471 A 2 2 0 1 1 486.11546965474776 272.72042223458044" stroke-miterlimit="10"/><path fill="#ffbb78" stroke="#ffbb78" paint-order="fill stroke markers" d=" M 493.35522081028284 276.8053774461332 A 2 2 0 1 1 493.3552198102829 276.8033774464665" stroke-miterlimit="10"/><path fill="#ffbb78" stroke="#ffbb78" paint-order="fill stroke markers" d=" M 500.594970965818 278.54337014577004 A 2 2 0 1 1 500.59496996581805 278.54137014610336" stroke-miterlimit="10"/><path fill="#ffbb78" stroke="#ffbb78" paint-order="fill stroke markers" d=" M 507.83472112135314 271.5452263627725 A 2 2 0 1 1 507.8347201213532 271.5432263631058" stroke-miterlimit="10"/><path fill="#ffbb78" stroke="#ffbb78" paint-order="fill stroke markers" d=" M 529.5539715879604 269.18788981639307 A 2 2 0 1 1 529.5539705879605 269.1858898167264" stroke-miterlimit="10"/><path fill="#ffbb78" stroke="#ffbb78" paint-order="fill stroke markers" d=" M 478.87572049921073 267.0670281077938 A 2 2 0 1 1 478.8757194992108 267.06502810812714" stroke-miterlimit="10"/><path fill="#ffbb78" stroke="#ffbb78" paint-order="fill stroke markers" d=" M 515.0744712768901 261.19776991322897 A 2 2 0 1 1 515.0744702768902 261.1957699135623" stroke-miterlimit="10"/><path fill="#ffbb78" stroke="#ffbb78" paint-order="fill stroke markers" d=" M 536.7937217434956 246.79926453429755 A 2 2 0 1 1 536.7937207434957 246.79726453463087" stroke-miterlimit="10"/></g><g><path fill="none" stroke="none"/><path fill="none" stroke="#ffbb78" paint-order="fill stroke markers" d=" M 71.44971178921696 360.16560982716544 L 78.68946194475393 361.3769609888469 L 85.92921210028908 362.6011279657042 L 93.16896225582423 363.82794195765064 L 100.40871241135937 365.04378462237696 L 107.64846256689634 366.2394358944923 L 114.88821272243149 367.39868491241873 L 122.12796287796664 368.51431580818314 L 129.3677130335018 369.5716932404489 L 136.60746318903875 370.5660113073484 L 143.8472133445739 371.48674727898015 L 151.08696350010905 372.33186948323464 L 158.3267136556442 373.0967361653246 L 165.56646381118117 373.7825447422466 L 172.8062139667163 374.3910271570786 L 180.04596412225146 374.92712173039183 L 187.2857142777866 375.39726041678364 L 194.52546443332358 375.8112237283018 L 201.76521458885873 376.168671816086 L 209.00496474439387 376.4859749224453 L 216.24471489992902 376.69776516894626 L 223.484465055466 376.8192077474263 L 230.72421521100114 376.59095941062265 L 237.96396536653629 375.9888026801066 L 245.20371552207143 374.76433663913247 L 252.4434656776084 372.8799161601157 L 259.68321583314355 370.5001213241403 L 266.9229659886787 367.65175569270684 L 274.16271614421385 364.3766989878752 L 281.4024662997508 360.69012572308145 L 288.64221645528596 356.7542342090503 L 295.8819666108211 352.5354261462786 L 303.12171676635626 347.68238728665233 L 310.3614669218932 342.72776507474555 L 317.6012170774284 337.7271696395127 L 324.8409672329635 332.57436572293227 L 332.08071738849867 327.51828261350454 L 339.32046754403564 322.52383175432453 L 346.5602176995708 317.82186015522416 L 353.79996785510593 313.3999718058492 L 361.0397180106411 309.4840495816396 L 368.27946816617805 306.0962978770409 L 375.5192183217132 303.13730562986166 L 382.75896847724835 300.59407258552596 L 389.9987186327835 298.1836793206784 L 397.23846878832046 295.91052288427124 L 404.4782189438556 293.7035876182333 L 411.71796909939076 291.57054124335593 L 418.9577192549259 289.4856708511012 L 426.1974694104629 287.48573409109406 L 433.437219565998 285.5492928151782 L 440.67696972153317 283.6838818213266 L 447.9167198770683 281.8876372984324 L 455.1564700326053 280.16098774767386 L 462.39622018814043 278.4976250384 L 469.6359703436756 276.894549889103 L 476.87572049921073 275.35376093320895 L 484.1154706547477 273.85439859561154 L 491.35522081028284 272.39399966305825 L 498.594970965818 270.9679743692742 L 505.83472112135314 269.57096304278946 L 513.0744712768901 268.1870372956722 L 520.3142214324253 266.81670948680767 L 527.5539715879604 265.4454392121854 L 534.7937217434956 264.06412503718536" stroke-miterlimit="10"/></g><g><path fill="none" stroke="none"/><path fill="#2ca02c" stroke="#2ca02c" paint-order="fill stroke markers" d=" M 261.68321583314355 508.38321977939125 A 2 2 0 1 1 261.6832148331436 508.3812197797246" stroke-miterlimit="10"/><path fill="#2ca02c" stroke="#2ca02c" paint-order="fill stroke markers" d=" M 254.4434656776084 503.5455701297616 A 2 2 0 1 1 254.4434646776085 503.5435701300949" stroke-miterlimit="10"/><path fill="#2ca02c" stroke="#2ca02c" paint-order="fill stroke markers" d=" M 247.20371552207143 499.25307707684294 A 2 2 0 1 1 247.20371452207152 499.25107707717626" stroke-miterlimit="10"/><path fill="#2ca02c" stroke="#2ca02c" paint-order="fill stroke markers" d=" M 239.96396536653629 498.99178082462737 A 2 2 0 1 1 239.96396436653637 498.9897808249607" stroke-miterlimit="10"/><path fill="#2ca02c" stroke="#2ca02c" paint-order="fill stroke markers" d=" M 232.72421521100114 487.15483192242874 A 2 2 0 1 1 232.72421421100123 487.15283192276206" stroke-miterlimit="10"/><path fill="#2ca02c" stroke="#2ca02c" paint-order="fill stroke markers" d=" M 225.484465055466 482.1727310977528 A 2 2 0 1 1 225.48446405546608 482.1707310980861" stroke-miterlimit="10"/><path fill="#2ca02c" stroke="#2ca02c" paint-order="fill stroke markers" d=" M 218.24471489992902 485.79711181453433 A 2 2 0 1 1 218.2447138999291 485.79511181486765" stroke-miterlimit="10"/><path fill="#2ca02c" stroke="#2ca02c" paint-order="fill stroke markers" d=" M 211.00496474439387 481.13073013862373 A 2 2 0 1 1 211.00496374439396 481.12873013895705" stroke-miterlimit="10"/><path fill="#2ca02c" stroke="#2ca02c" paint-order="fill stroke markers" d=" M 203.76521458885873 478.1046202164863 A 2 2 0 1 1 203.7652135888588 478.1026202168196" stroke-miterlimit="10"/><path fill="#2ca02c" stroke="#2ca02c" paint-order="fill stroke markers" d=" M 196.52546443332358 476.01702933262686 A 2 2 0 1 1 196.52546343332367 476.0150293329602" stroke-miterlimit="10"/><path fill="#2ca02c" stroke="#2ca02c" paint-order="fill stroke markers" d=" M 189.2857142777866 473.7230714182032 A 2 2 0 1 1 189.2857132777867 473.7210714185365" stroke-miterlimit="10"/><path fill="#2ca02c" stroke="#2ca02c" paint-order="fill stroke markers" d=" M 153.08696350010905 461.493382001548 A 2 2 0 1 1 153.08696250010914 461.49138200188133" stroke-miterlimit="10"/><path fill="#2ca02c" stroke="#2ca02c" paint-order="fill stroke markers" d=" M 160.3267136556442 463.00303415683913 A 2 2 0 1 1 160.3267126556443 463.00103415717246" stroke-miterlimit="10"/><path fill="#2ca02c" stroke="#2ca02c" paint-order="fill stroke markers" d=" M 167.56646381118117 464.6047941700982 A 2 2 0 1 1 167.56646281118125 464.60279417043154" stroke-miterlimit="10"/><path fill="#2ca02c" stroke="#2ca02c" paint-order="fill stroke markers" d=" M 174.8062139667163 466.57125818508064 A 2 2 0 1 1 174.8062129667164 466.56925818541396" stroke-miterlimit="10"/><path fill="#2ca02c" stroke="#2ca02c" paint-order="fill stroke markers" d=" M 182.04596412225146 469.80615266194394 A 2 2 0 1 1 182.04596312225155 469.80415266227726" stroke-miterlimit="10"/><path fill="#2ca02c" stroke="#2ca02c" paint-order="fill stroke markers" d=" M 138.60746318903875 456.3220185878603 A 2 2 0 1 1 138.60746218903884 456.32001858819365" stroke-miterlimit="10"/><path fill="#2ca02c" stroke="#2ca02c" paint-order="fill stroke markers" d=" M 145.8472133445739 455.7848152206532 A 2 2 0 1 1 145.847212344574 455.7828152209865" stroke-miterlimit="10"/><path fill="#2ca02c" stroke="#2ca02c" paint-order="fill stroke markers" d=" M 131.3677130335018 451.58111233098157 A 2 2 0 1 1 131.36771203350187 451.5791123313149" stroke-miterlimit="10"/><path fill="#2ca02c" stroke="#2ca02c" paint-order="fill stroke markers" d=" M 124.12796287796664 446.32461340642305 A 2 2 0 1 1 124.12796187796673 446.3226134067564" stroke-miterlimit="10"/><path fill="#2ca02c" stroke="#2ca02c" paint-order="fill stroke markers" d=" M 116.88821272243149 449.01168763895237 A 2 2 0 1 1 116.88821172243158 449.0096876392857" stroke-miterlimit="10"/><path fill="#2ca02c" stroke="#2ca02c" paint-order="fill stroke markers" d=" M 109.64846256689634 443.7394982150242 A 2 2 0 1 1 109.64846156689643 443.7374982153575" stroke-miterlimit="10"/><path fill="#2ca02c" stroke="#2ca02c" paint-order="fill stroke markers" d=" M 102.40871241135937 445.02214233416316 A 2 2 0 1 1 102.40871141135946 445.0201423344965" stroke-miterlimit="10"/><path fill="#2ca02c" stroke="#2ca02c" paint-order="fill stroke markers" d=" M 95.16896225582423 443.8092641375087 A 2 2 0 1 1 95.16896125582431 443.807264137842" stroke-miterlimit="10"/><path fill="#2ca02c" stroke="#2ca02c" paint-order="fill stroke markers" d=" M 87.92921210028908 437.93419782504833 A 2 2 0 1 1 87.92921110028917 437.93219782538165" stroke-miterlimit="10"/><path fill="#2ca02c" stroke="#2ca02c" paint-order="fill stroke markers" d=" M 80.68946194475393 438.7027898064842 A 2 2 0 1 1 80.68946094475402 438.7007898068175" stroke-miterlimit="10"/><path fill="#2ca02c" stroke="#2ca02c" paint-order="fill stroke markers" d=" M 73.44971178921696 432.2555353273052 A 2 2 0 1 1 73.44971078921705 432.25353532763853" stroke-miterlimit="10"/><path fill="#2ca02c" stroke="#2ca02c" paint-order="fill stroke markers" d=" M 297.8819666108211 521.7058522727273 A 2 2 0 1 1 297.88196561082117 521.7038522730606" stroke-miterlimit="10"/><path fill="#2ca02c" stroke="#2ca02c" paint-order="fill stroke markers" d=" M 305.12171676635626 519.4868955858394 A 2 2 0 1 1 305.1217157663563 519.4848955861728" stroke-miterlimit="10"/><path fill="#2ca02c" stroke="#2ca02c" paint-order="fill stroke markers" d=" M 283.4024662997508 519.558948860336 A 2 2 0 1 1 283.4024652997509 519.5569488606694" stroke-miterlimit="10"/><path fill="#2ca02c" stroke="#2ca02c" paint-order="fill stroke markers" d=" M 334.08071738849867 518.3776707551006 A 2 2 0 1 1 334.08071638849873 518.3756707554339" stroke-miterlimit="10"/><path fill="#2ca02c" stroke="#2ca02c" paint-order="fill stroke markers" d=" M 326.8409672329635 518.2659484060686 A 2 2 0 1 1 326.8409662329636 518.2639484064019" stroke-miterlimit="10"/><path fill="#2ca02c" stroke="#2ca02c" paint-order="fill stroke markers" d=" M 290.64221645528596 517.8515689944932 A 2 2 0 1 1 290.642215455286 517.8495689948265" stroke-miterlimit="10"/><path fill="#2ca02c" stroke="#2ca02c" paint-order="fill stroke markers" d=" M 341.32046754403564 516.2731045437595 A 2 2 0 1 1 341.3204665440357 516.2711045440929" stroke-miterlimit="10"/><path fill="#2ca02c" stroke="#2ca02c" paint-order="fill stroke markers" d=" M 319.6012170774284 516.6241459453324 A 2 2 0 1 1 319.60121607742843 516.6221459456658" stroke-miterlimit="10"/><path fill="#2ca02c" stroke="#2ca02c" paint-order="fill stroke markers" d=" M 276.16271614421385 515.728441003432 A 2 2 0 1 1 276.1627151442139 515.7264410037653" stroke-miterlimit="10"/><path fill="#2ca02c" stroke="#2ca02c" paint-order="fill stroke markers" d=" M 312.3614669218932 514.587983502347 A 2 2 0 1 1 312.3614659218933 514.5859835026804" stroke-miterlimit="10"/><path fill="#2ca02c" stroke="#2ca02c" paint-order="fill stroke markers" d=" M 363.0397180106411 511.7210093421385 A 2 2 0 1 1 363.03971701064114 511.7190093424718" stroke-miterlimit="10"/><path fill="#2ca02c" stroke="#2ca02c" paint-order="fill stroke markers" d=" M 268.9229659886787 511.62279718752467 A 2 2 0 1 1 268.92296498867876 511.620797187858" stroke-miterlimit="10"/><path fill="#2ca02c" stroke="#2ca02c" paint-order="fill stroke markers" d=" M 355.79996785510593 510.9643610867233 A 2 2 0 1 1 355.799966855106 510.9623610870566" stroke-miterlimit="10"/><path fill="#2ca02c" stroke="#2ca02c" paint-order="fill stroke markers" d=" M 348.5602176995708 507.2433893274563 A 2 2 0 1 1 348.56021669957084 507.24138932778965" stroke-miterlimit="10"/><path fill="#2ca02c" stroke="#2ca02c" paint-order="fill stroke markers" d=" M 370.27946816617805 506.72340937333996 A 2 2 0 1 1 370.2794671661781 506.7214093736733" stroke-miterlimit="10"/><path fill="#2ca02c" stroke="#2ca02c" paint-order="fill stroke markers" d=" M 377.5192183217132 507.0313157667191 A 2 2 0 1 1 377.51921732171326 507.0293157670524" stroke-miterlimit="10"/><path fill="#2ca02c" stroke="#2ca02c" paint-order="fill stroke markers" d=" M 384.75896847724835 501.9961115738764 A 2 2 0 1 1 384.7589674772484 501.99411157420974" stroke-miterlimit="10"/><path fill="#2ca02c" stroke="#2ca02c" paint-order="fill stroke markers" d=" M 399.23846878832046 500.45671321705254 A 2 2 0 1 1 399.2384677883205 500.45471321738586" stroke-miterlimit="10"/><path fill="#2ca02c" stroke="#2ca02c" paint-order="fill stroke markers" d=" M 391.9987186327835 499.7274344134037 A 2 2 0 1 1 391.99871763278355 499.72543441373705" stroke-miterlimit="10"/><path fill="#2ca02c" stroke="#2ca02c" paint-order="fill stroke markers" d=" M 406.4782189438556 491.0903557925685 A 2 2 0 1 1 406.47821794385567 491.08835579290184" stroke-miterlimit="10"/><path fill="#2ca02c" stroke="#2ca02c" paint-order="fill stroke markers" d=" M 413.71796909939076 482.58180590087017 A 2 2 0 1 1 413.7179680993908 482.5798059012035" stroke-miterlimit="10"/><path fill="#2ca02c" stroke="#2ca02c" paint-order="fill stroke markers" d=" M 420.9577192549259 486.69110138019454 A 2 2 0 1 1 420.95771825492596 486.68910138052786" stroke-miterlimit="10"/><path fill="#2ca02c" stroke="#2ca02c" paint-order="fill stroke markers" d=" M 428.1974694104629 481.65667220457607 A 2 2 0 1 1 428.19746841046293 481.6546722049094" stroke-miterlimit="10"/><path fill="#2ca02c" stroke="#2ca02c" paint-order="fill stroke markers" d=" M 435.437219565998 477.08769792013237 A 2 2 0 1 1 435.4372185659981 477.0856979204657" stroke-miterlimit="10"/><path fill="#2ca02c" stroke="#2ca02c" paint-order="fill stroke markers" d=" M 442.67696972153317 476.7704985087612 A 2 2 0 1 1 442.6769687215332 476.7684985090945" stroke-miterlimit="10"/><path fill="#2ca02c" stroke="#2ca02c" paint-order="fill stroke markers" d=" M 449.9167198770683 480.98013822153257 A 2 2 0 1 1 449.9167188770684 480.9781382218659" stroke-miterlimit="10"/><path fill="#2ca02c" stroke="#2ca02c" paint-order="fill stroke markers" d=" M 457.1564700326053 472.76427696196777 A 2 2 0 1 1 457.15646903260534 472.7622769623011" stroke-miterlimit="10"/><path fill="#2ca02c" stroke="#2ca02c" paint-order="fill stroke markers" d=" M 478.87572049921073 473.3258351367298 A 2 2 0 1 1 478.8757194992108 473.3238351370631" stroke-miterlimit="10"/><path fill="#2ca02c" stroke="#2ca02c" paint-order="fill stroke markers" d=" M 464.39622018814043 471.9851455366616 A 2 2 0 1 1 464.3962191881405 471.9831455369949" stroke-miterlimit="10"/><path fill="#2ca02c" stroke="#2ca02c" paint-order="fill stroke markers" d=" M 471.6359703436756 470.5731633438536 A 2 2 0 1 1 471.63596934367564 470.5711633441869" stroke-miterlimit="10"/><path fill="#2ca02c" stroke="#2ca02c" paint-order="fill stroke markers" d=" M 486.1154706547477 469.7377467783929 A 2 2 0 1 1 486.11546965474776 469.7357467787262" stroke-miterlimit="10"/><path fill="#2ca02c" stroke="#2ca02c" paint-order="fill stroke markers" d=" M 493.35522081028284 470.2376613354351 A 2 2 0 1 1 493.3552198102829 470.23566133576844" stroke-miterlimit="10"/><path fill="#2ca02c" stroke="#2ca02c" paint-order="fill stroke markers" d=" M 500.594970965818 467.35318829626686 A 2 2 0 1 1 500.59496996581805 467.3511882966002" stroke-miterlimit="10"/><path fill="#2ca02c" stroke="#2ca02c" paint-order="fill stroke markers" d=" M 507.83472112135314 467.85834786456945 A 2 2 0 1 1 507.8347201213532 467.8563478649028" stroke-miterlimit="10"/><path fill="#2ca02c" stroke="#2ca02c" paint-order="fill stroke markers" d=" M 515.0744712768901 464.4762990180797 A 2 2 0 1 1 515.0744702768902 464.47429901841303" stroke-miterlimit="10"/><path fill="#2ca02c" stroke="#2ca02c" paint-order="fill stroke markers" d=" M 522.3142214324253 462.03532853791745 A 2 2 0 1 1 522.3142204324254 462.03332853825077" stroke-miterlimit="10"/><path fill="#2ca02c" stroke="#2ca02c" paint-order="fill stroke markers" d=" M 536.7937217434956 460.4915926781138 A 2 2 0 1 1 536.7937207434957 460.48959267844714" stroke-miterlimit="10"/><path fill="#2ca02c" stroke="#2ca02c" paint-order="fill stroke markers" d=" M 529.5539715879604 454.2601480394443 A 2 2 0 1 1 529.5539705879605 454.2581480397776" stroke-miterlimit="10"/></g><g><path fill="none" stroke="none"/><path fill="none" stroke="#2ca02c" paint-order="fill stroke markers" d=" M 71.44971178921696 433.663442578974 L 78.68946194475393 435.8931748679666 L 85.92921210028908 438.1810211408952 L 93.16896225582423 440.5261899424635 L 100.40871241135937 442.9268005602256 L 107.64846256689634 445.38201345553045 L 114.88821272243149 447.88940969378007 L 122.12796287796664 450.44782173984896 L 129.3677130335018 453.0541759602679 L 136.60746318903875 455.7070654800885 L 143.8472133445739 458.4030550620398 L 151.08696350010905 461.14061525290515 L 158.3267136556442 463.9160061919562 L 165.56646381118117 466.7279014714358 L 172.8062139667163 469.5730003781859 L 180.04596412225146 472.4509583230518 L 187.2857142777866 475.36143916907565 L 194.52546443332358 478.30689293133884 L 201.76521458885873 481.29379862547285 L 209.00496474439387 484.33140873231554 L 216.24471489992902 487.4284150390724 L 223.484465055466 490.60642917483125 L 230.72421521100114 493.81760621161953 L 237.96396536653629 497.08907124672186 L 245.20371552207143 500.31863596017917 L 252.4434656776084 503.43031370636976 L 259.68321583314355 506.303847192968 L 266.9229659886787 508.9595912953205 L 274.16271614421385 511.3098382106819 L 281.4024662997508 513.3673698918765 L 288.64221645528596 515.1123819578636 L 295.8819666108211 516.5555171164908 L 303.12171676635626 517.2837061325451 L 310.3614669218932 517.7208046808784 L 317.6012170774284 517.703836109337 L 324.8409672329635 517.2264530028382 L 332.08071738849867 516.3141617556711 L 339.32046754403564 514.9582904063335 L 346.5602176995708 513.2486194334685 L 353.79996785510593 511.1796045721761 L 361.0397180106411 508.8537472523241 L 368.27946816617805 506.31573767585286 L 375.5192183217132 503.735645680369 L 382.75896847724835 501.1454334766685 L 389.9987186327835 498.6663062826426 L 397.23846878832046 496.2646490240827 L 404.4782189438556 493.9301441410707 L 411.71796909939076 491.64603825030156 L 418.9577192549259 489.41242339390305 L 426.1974694104629 487.17767740112475 L 433.437219565998 484.9611886485612 L 440.67696972153317 482.75793807070136 L 447.9167198770683 480.570823044174 L 455.1564700326053 478.4014020926445 L 462.39622018814043 476.2566320073839 L 469.6359703436756 474.14019583461493 L 476.87572049921073 472.05784301761935 L 484.1154706547477 470.01481437138864 L 491.35522081028284 468.01754995058866 L 498.594970965818 466.0692351384764 L 505.83472112135314 464.1733273891322 L 513.0744712768901 462.335919925459 L 520.3142214324253 460.55273459879567 L 527.5539715879604 458.8337352386609 L 534.7937217434956 457.1847957424829" stroke-miterlimit="10"/></g></g><g/><g><g><path fill="none" stroke="black" paint-order="fill stroke markers" d=" M 48 545 L 558 545" stroke-miterlimit="10"/><path fill="none" stroke="black" paint-order="fill stroke markers" d=" M 71 551 L 71 543" stroke-miterlimit="10"/><path fill="none" stroke="black" paint-order="fill stroke markers" d=" M 144 551 L 144 543" stroke-miterlimit="10"/><path fill="none" stroke="black" paint-order="fill stroke markers" d=" M 216 551 L 216 543" stroke-miterlimit="10"/><path fill="none" stroke="black" paint-order="fill stroke markers" d=" M 289 551 L 289 543" stroke-miterlimit="10"/><path fill="none" stroke="black" paint-order="fill stroke markers" d=" M 361 551 L 361 543" stroke-miterlimit="10"/><path fill="none" stroke="black" paint-order="fill stroke markers" d=" M 433 551 L 433 543" stroke-miterlimit="10"/><path fill="none" stroke="black" paint-order="fill stroke markers" d=" M 506 551 L 506 543" stroke-miterlimit="10"/><path fill="none" stroke="black" paint-order="fill stroke markers" d=" M 57 549 L 57 545" stroke-miterlimit="10"/><path fill="none" stroke="black" paint-order="fill stroke markers" d=" M 71 549 L 71 545" stroke-miterlimit="10"/><path fill="none" stroke="black" paint-order="fill stroke markers" d=" M 86 549 L 86 545" stroke-miterlimit="10"/><path fill="none" stroke="black" paint-order="fill stroke markers" d=" M 100 549 L 100 545" stroke-miterlimit="10"/><path fill="none" stroke="black" paint-order="fill stroke markers" d=" M 115 549 L 115 545" stroke-miterlimit="10"/><path fill="none" stroke="black" paint-order="fill stroke markers" d=" M 129 549 L 129 545" stroke-miterlimit="10"/><path fill="none" stroke="black" paint-order="fill stroke markers" d=" M 144 549 L 144 545" stroke-miterlimit="10"/><path fill="none" stroke="black" paint-order="fill stroke markers" d=" M 158 549 L 158 545" stroke-miterlimit="10"/><path fill="none" stroke="black" paint-order="fill stroke markers" d=" M 173 549 L 173 545" stroke-miterlimit="10"/><path fill="none" stroke="black" paint-order="fill stroke markers" d=" M 187 549 L 187 545" stroke-miterlimit="10"/><path fill="none" stroke="black" paint-order="fill stroke markers" d=" M 202 549 L 202 545" stroke-miterlimit="10"/><path fill="none" stroke="black" paint-order="fill stroke markers" d=" M 216 549 L 216 545" stroke-miterlimit="10"/><path fill="none" stroke="black" paint-order="fill stroke markers" d=" M 231 549 L 231 545" stroke-miterlimit="10"/><path fill="none" stroke="black" paint-order="fill stroke markers" d=" M 245 549 L 245 545" stroke-miterlimit="10"/><path fill="none" stroke="black" paint-order="fill stroke markers" d=" M 260 549 L 260 545" stroke-miterlimit="10"/><path fill="none" stroke="black" paint-order="fill stroke markers" d=" M 274 549 L 274 545" stroke-miterlimit="10"/><path fill="none" stroke="black" paint-order="fill stroke markers" d=" M 289 549 L 289 545" stroke-miterlimit="10"/><path fill="none" stroke="black" paint-order="fill stroke markers" d=" M 303 549 L 303 545" stroke-miterlimit="10"/><path fill="none" stroke="black" paint-order="fill stroke markers" d=" M 318 549 L 318 545" stroke-miterlimit="10"/><path fill="none" stroke="black" paint-order="fill stroke markers" d=" M 332 549 L 332 545" stroke-miterlimit="10"/><path fill="none" stroke="black" paint-order="fill stroke markers" d=" M 347 549 L 347 545" stroke-miterlimit="10"/><path fill="none" stroke="black" paint-order="fill stroke markers" d=" M 361 549 L 361 545" stroke-miterlimit="10"/><path fill="none" stroke="black" paint-order="fill stroke markers" d=" M 376 549 L 376 545" stroke-miterlimit="10"/><path fill="none" stroke="black" paint-order="fill stroke markers" d=" M 390 549 L 390 545" stroke-miterlimit="10"/><path fill="none" stroke="black" paint-order="fill stroke markers" d=" M 404 549 L 404 545" stroke-miterlimit="10"/><path fill="none" stroke="black" paint-order="fill stroke markers" d=" M 419 549 L 419 545" stroke-miterlimit="10"/><path fill="none" stroke="black" paint-order="fill stroke markers" d=" M 433 549 L 433 545" stroke-miterlimit="10"/><path fill="none" stroke="black" paint-order="fill stroke markers" d=" M 448 549 L 448 545" stroke-miterlimit="10"/><path fill="none" stroke="black" paint-order="fill stroke markers" d=" M 462 549 L 462 545" stroke-miterlimit="10"/><path fill="none" stroke="black" paint-order="fill stroke markers" d=" M 477 549 L 477 545" stroke-miterlimit="10"/><path fill="none" stroke="black" paint-order="fill stroke markers" d=" M 491 549 L 491 545" stroke-miterlimit="10"/><path fill="none" stroke="black" paint-order="fill stroke markers" d=" M 506 549 L 506 545" stroke-miterlimit="10"/><path fill="none" stroke="black" paint-order="fill stroke markers" d=" M 520 549 L 520 545" stroke-miterlimit="10"/><path fill="none" stroke="black" paint-order="fill stroke markers" d=" M 535 549 L 535 545" stroke-miterlimit="10"/><path fill="none" stroke="black" paint-order="fill stroke markers" d=" M 549 549 L 549 545" stroke-miterlimit="10"/><text fill="#444444" stroke="none" font-family="helvetica" font-size="8pt" font-style="normal" font-weight="normal" text-decoration="normal" x="71" y="556" text-anchor="middle" dominant-baseline="hanging">1950</text><text fill="#444444" stroke="none" font-family="helvetica" font-size="8pt" font-style="normal" font-weight="normal" text-decoration="normal" x="144" y="556" text-anchor="middle" dominant-baseline="hanging">1960</text><text fill="#444444" stroke="none" font-family="helvetica" font-size="8pt" font-style="normal" font-weight="normal" text-decoration="normal" x="216" y="556" text-anchor="middle" dominant-baseline="hanging">1970</text><text fill="#444444" stroke="none" font-family="helvetica" font-size="8pt" font-style="normal" font-weight="normal" text-decoration="normal" x="289" y="556" text-anchor="middle" dominant-baseline="hanging">1980</text><text fill="#444444" stroke="none" font-family="helvetica" font-size="8pt" font-style="normal" font-weight="normal" text-decoration="normal" x="361" y="556" text-anchor="middle" dominant-baseline="hanging">1990</text><text fill="#444444" stroke="none" font-family="helvetica" font-size="8pt" font-style="normal" font-weight="normal" text-decoration="normal" x="433" y="556" text-anchor="middle" dominant-baseline="hanging">2000</text><text fill="#444444" stroke="none" font-family="helvetica" font-size="8pt" font-style="normal" font-weight="normal" text-decoration="normal" x="506" y="556" text-anchor="middle" dominant-baseline="hanging">2010</text><text fill="#444444" stroke="none" font-family="helvetica" font-size="10pt" font-style="italic" font-weight="normal" text-decoration="normal" x="303.12171676635717" y="574.0000000000001" text-anchor="middle" dominant-baseline="hanging"></text></g><g><path fill="none" stroke="black" paint-order="fill stroke markers" d=" M 48 545 L 48 28" stroke-miterlimit="10"/><path fill="none" stroke="black" paint-order="fill stroke markers" d=" M 42 514 L 50 514" stroke-miterlimit="10"/><path fill="none" stroke="black" paint-order="fill stroke markers" d=" M 42 447 L 50 447" stroke-miterlimit="10"/><path fill="none" stroke="black" paint-order="fill stroke markers" d=" M 42 381 L 50 381" stroke-miterlimit="10"/><path fill="none" stroke="black" paint-order="fill stroke markers" d=" M 42 314 L 50 314" stroke-miterlimit="10"/><path fill="none" stroke="black" paint-order="fill stroke markers" d=" M 42 248 L 50 248" stroke-miterlimit="10"/><path fill="none" stroke="black" paint-order="fill stroke markers" d=" M 42 181 L 50 181" stroke-miterlimit="10"/><path fill="none" stroke="black" paint-order="fill stroke markers" d=" M 42 115 L 50 115" stroke-miterlimit="10"/><path fill="none" stroke="black" paint-order="fill stroke markers" d=" M 42 48 L 50 48" stroke-miterlimit="10"/><path fill="none" stroke="black" paint-order="fill stroke markers" d=" M 44 527 L 48 527" stroke-miterlimit="10"/><path fill="none" stroke="black" paint-order="fill stroke markers" d=" M 44 540 L 48 540" stroke-miterlimit="10"/><path fill="none" stroke="black" paint-order="fill stroke markers" d=" M 44 514 L 48 514" stroke-miterlimit="10"/><path fill="none" stroke="black" paint-order="fill stroke markers" d=" M 44 500 L 48 500" stroke-miterlimit="10"/><path fill="none" stroke="black" paint-order="fill stroke markers" d=" M 44 487 L 48 487" stroke-miterlimit="10"/><path fill="none" stroke="black" paint-order="fill stroke markers" d=" M 44 474 L 48 474" stroke-miterlimit="10"/><path fill="none" stroke="black" paint-order="fill stroke markers" d=" M 44 461 L 48 461" stroke-miterlimit="10"/><path fill="none" stroke="black" paint-order="fill stroke markers" d=" M 44 447 L 48 447" stroke-miterlimit="10"/><path fill="none" stroke="black" paint-order="fill stroke markers" d=" M 44 434 L 48 434" stroke-miterlimit="10"/><path fill="none" stroke="black" paint-order="fill stroke markers" d=" M 44 421 L 48 421" stroke-miterlimit="10"/><path fill="none" stroke="black" paint-order="fill stroke markers" d=" M 44 407 L 48 407" stroke-miterlimit="10"/><path fill="none" stroke="black" paint-order="fill stroke markers" d=" M 44 394 L 48 394" stroke-miterlimit="10"/><path fill="none" stroke="black" paint-order="fill stroke markers" d=" M 44 381 L 48 381" stroke-miterlimit="10"/><path fill="none" stroke="black" paint-order="fill stroke markers" d=" M 44 367 L 48 367" stroke-miterlimit="10"/><path fill="none" stroke="black" paint-order="fill stroke markers" d=" M 44 354 L 48 354" stroke-miterlimit="10"/><path fill="none" stroke="black" paint-order="fill stroke markers" d=" M 44 341 L 48 341" stroke-miterlimit="10"/><path fill="none" stroke="black" paint-order="fill stroke markers" d=" M 44 328 L 48 328" stroke-miterlimit="10"/><path fill="none" stroke="black" paint-order="fill stroke markers" d=" M 44 314 L 48 314" stroke-miterlimit="10"/><path fill="none" stroke="black" paint-order="fill stroke markers" d=" M 44 301 L 48 301" stroke-miterlimit="10"/><path fill="none" stroke="black" paint-order="fill stroke markers" d=" M 44 288 L 48 288" stroke-miterlimit="10"/><path fill="none" stroke="black" paint-order="fill stroke markers" d=" M 44 274 L 48 274" stroke-miterlimit="10"/><path fill="none" stroke="black" paint-order="fill stroke markers" d=" M 44 261 L 48 261" stroke-miterlimit="10"/><path fill="none" stroke="black" paint-order="fill stroke markers" d=" M 44 248 L 48 248" stroke-miterlimit="10"/><path fill="none" stroke="black" paint-order="fill stroke markers" d=" M 44 234 L 48 234" stroke-miterlimit="10"/><path fill="none" stroke="black" paint-order="fill stroke markers" d=" M 44 221 L 48 221" stroke-miterlimit="10"/><path fill="none" stroke="black" paint-order="fill stroke markers" d=" M 44 208 L 48 208" stroke-miterlimit="10"/><path fill="none" stroke="black" paint-order="fill stroke markers" d=" M 44 195 L 48 195" stroke-miterlimit="10"/><path fill="none" stroke="black" paint-order="fill stroke markers" d=" M 44 181 L 48 181" stroke-miterlimit="10"/><path fill="none" stroke="black" paint-order="fill stroke markers" d=" M 44 168 L 48 168" stroke-miterlimit="10"/><path fill="none" stroke="black" paint-order="fill stroke markers" d=" M 44 155 L 48 155" stroke-miterlimit="10"/><path fill="none" stroke="black" paint-order="fill stroke markers" d=" M 44 141 L 48 141" stroke-miterlimit="10"/><path fill="none" stroke="black" paint-order="fill stroke markers" d=" M 44 128 L 48 128" stroke-miterlimit="10"/><path fill="none" stroke="black" paint-order="fill stroke markers" d=" M 44 115 L 48 115" stroke-miterlimit="10"/><path fill="none" stroke="black" paint-order="fill stroke markers" d=" M 44 101 L 48 101" stroke-miterlimit="10"/><path fill="none" stroke="black" paint-order="fill stroke markers" d=" M 44 88 L 48 88" stroke-miterlimit="10"/><path fill="none" stroke="black" paint-order="fill stroke markers" d=" M 44 75 L 48 75" stroke-miterlimit="10"/><path fill="none" stroke="black" paint-order="fill stroke markers" d=" M 44 62 L 48 62" stroke-miterlimit="10"/><path fill="none" stroke="black" paint-order="fill stroke markers" d=" M 44 48 L 48 48" stroke-miterlimit="10"/><path fill="none" stroke="black" paint-order="fill stroke markers" d=" M 44 35 L 48 35" stroke-miterlimit="10"/><text fill="#444444" stroke="none" font-family="helvetica" font-size="8pt" font-style="normal" font-weight="normal" text-decoration="normal" x="37" y="514" text-anchor="end" dominant-baseline="central">0.6</text><text fill="#444444" stroke="none" font-family="helvetica" font-size="8pt" font-style="normal" font-weight="normal" text-decoration="normal" x="37" y="447" text-anchor="end" dominant-baseline="central">0.7</text><text fill="#444444" stroke="none" font-family="helvetica" font-size="8pt" font-style="normal" font-weight="normal" text-decoration="normal" x="37" y="381" text-anchor="end" dominant-baseline="central">0.8</text><text fill="#444444" stroke="none" font-family="helvetica" font-size="8pt" font-style="normal" font-weight="normal" text-decoration="normal" x="37" y="314" text-anchor="end" dominant-baseline="central">0.9</text><text fill="#444444" stroke="none" font-family="helvetica" font-size="8pt" font-style="normal" font-weight="normal" text-decoration="normal" x="37" y="248" text-anchor="end" dominant-baseline="central">1</text><text fill="#444444" stroke="none" font-family="helvetica" font-size="8pt" font-style="normal" font-weight="normal" text-decoration="normal" x="37" y="181" text-anchor="end" dominant-baseline="central">1.1</text><text fill="#444444" stroke="none" font-family="helvetica" font-size="8pt" font-style="normal" font-weight="normal" text-decoration="normal" x="37" y="115" text-anchor="end" dominant-baseline="central">1.2</text><text fill="#444444" stroke="none" font-family="helvetica" font-size="8pt" font-style="normal" font-weight="normal" text-decoration="normal" x="37" y="48" text-anchor="end" dominant-baseline="central">1.3</text><g transform="translate(15.987502441405738,286.589423828125) rotate(-90,0,0)"><text fill="#444444" stroke="none" font-family="helvetica" font-size="10pt" font-style="italic" font-weight="normal" text-decoration="normal" x="0" y="0" text-anchor="middle" dominant-baseline="alphabetic">0</text><g transform="rotate(90,0,0) translate(-15.987502441405738,-286.589423828125)"/></g></g><g/><g><path fill="#ffffff" stroke="#e5e5e5" paint-order="fill stroke markers" d=" M 557.9609222412109 29 L 800 29 L 800 161 L 557.9609222412109 161 L 557.9609222412109 29 Z" fill-opacity="0.95" stroke-miterlimit="10" stroke-opacity="0.5"/><text fill="#444444" stroke="none" font-family="helvetica" font-size="10pt" font-style="normal" font-weight="normal" text-decoration="normal" x="592.9609222412109" y="49" text-anchor="start" dominant-baseline="central">cirkulationsorgan</text><path fill="#1f77b4" stroke="#1f77b4" paint-order="fill stroke markers" d=" M 581.9609222412109 49 A 4 4 0 1 1 581.960920241211 48.99600000066666" stroke-miterlimit="10"/><text fill="#444444" stroke="none" font-family="helvetica" font-size="10pt" font-style="normal" font-weight="normal" text-decoration="normal" x="592.9609222412109" y="72" text-anchor="start" dominant-baseline="central">hjrtsjukdom</text><path fill="#aec7e8" stroke="#aec7e8" paint-order="fill stroke markers" d=" M 581.9609222412109 72 A 4 4 0 1 1 581.960920241211 71.99600000066667" stroke-miterlimit="10"/><text fill="#444444" stroke="none" font-family="helvetica" font-size="10pt" font-style="normal" font-weight="normal" text-decoration="normal" x="592.9609222412109" y="95" text-anchor="start" dominant-baseline="central">ischemisk hjrtsjukdom</text><path fill="#ff7f0e" stroke="#ff7f0e" paint-order="fill stroke markers" d=" M 581.9609222412109 95 A 4 4 0 1 1 581.960920241211 94.99600000066667" stroke-miterlimit="10"/><text fill="#444444" stroke="none" font-family="helvetica" font-size="10pt" font-style="normal" font-weight="normal" text-decoration="normal" x="592.9609222412109" y="118" text-anchor="start" dominant-baseline="central">artrsjukdom utom IHD/slaganfall</text><path fill="#ffbb78" stroke="#ffbb78" paint-order="fill stroke markers" d=" M 581.9609222412109 118 A 4 4 0 1 1 581.960920241211 117.99600000066667" stroke-miterlimit="10"/><text fill="#444444" stroke="none" font-family="helvetica" font-size="10pt" font-style="normal" font-weight="normal" text-decoration="normal" x="592.9609222412109" y="141" text-anchor="start" dominant-baseline="central">slaganfall</text><path fill="#2ca02c" stroke="#2ca02c" paint-order="fill stroke markers" d=" M 581.9609222412109 141 A 4 4 0 1 1 581.960920241211 140.99600000066667" stroke-miterlimit="10"/></g><g fill="#444444"><path fill="" stroke="none" d=""/><g transform="translate(48.282511291503916,9)"><path fill="none" stroke="none"/><text fill="" stroke="none" font-family="helvetica" font-size="10pt" font-style="normal" font-weight="bold" text-decoration="normal" x="0" y="0" text-anchor="start" dominant-baseline="text-before-edge">Dda mn/kvinnor/alla orsaker, USA</text></g></g></g></g><g/><g/><g/><g/><g/><g/><g/><g/><g/><g/><g/><g/><g/><g/><g/><g/><g/><g/><g/><g/><g/><g/><g/><g/><g/><g/><g/><g/><g/><g/><g/><g/></g></svg>